<svg width="80" height="80" viewBox="0 0 80 80" fill="none" xmlns="http://www.w3.org/2000/svg">
<g clip-path="url(#clip0_5496_43791)">
<rect width="80" height="80" rx="40" fill="#DEFAFF"/>
<g filter="url(#filter0_ii_5496_43791)">
<path d="M46.4121 60.0107C50.6389 60.2252 54 63.7199 54 68V72C54 76.4183 50.4183 80 46 80H2C-2.41828 80 -6 76.4183 -6 72V68C-6 63.7199 -2.63886 60.2252 1.58789 60.0107L2 60C-2.41828 60 -6 56.4183 -6 52V48C-6 43.7199 -2.63886 40.2252 1.58789 40.0107L2 40C-2.41828 40 -6 36.4183 -6 32V28C-6 23.5817 -2.41828 20 2 20H46C50.4183 20 54 23.5817 54 28V32C54 36.4183 50.4183 40 46 40L46.4121 40.0107C50.6389 40.2252 54 43.7199 54 48V52C54 56.4183 50.4183 60 46 60L46.4121 60.0107Z" fill="#28D0ED"/>
</g>
<circle cx="17" cy="33" r="3" fill="#171714"/>
<circle cx="32" cy="33" r="3" fill="#171714"/>
</g>
<defs>
<filter id="filter0_ii_5496_43791" x="-8" y="18" width="64" height="64" filterUnits="userSpaceOnUse" color-interpolation-filters="sRGB">
<feFlood flood-opacity="0" result="BackgroundImageFix"/>
<feBlend mode="normal" in="SourceGraphic" in2="BackgroundImageFix" result="shape"/>
<feColorMatrix in="SourceAlpha" type="matrix" values="0 0 0 0 0 0 0 0 0 0 0 0 0 0 0 0 0 0 127 0" result="hardAlpha"/>
<feOffset dx="2" dy="2"/>
<feGaussianBlur stdDeviation="2"/>
<feComposite in2="hardAlpha" operator="arithmetic" k2="-1" k3="1"/>
<feColorMatrix type="matrix" values="0 0 0 0 1 0 0 0 0 1 0 0 0 0 1 0 0 0 0.3 0"/>
<feBlend mode="luminosity" in2="shape" result="effect1_innerShadow_5496_43791"/>
<feColorMatrix in="SourceAlpha" type="matrix" values="0 0 0 0 0 0 0 0 0 0 0 0 0 0 0 0 0 0 127 0" result="hardAlpha"/>
<feOffset dx="-2" dy="-2"/>
<feGaussianBlur stdDeviation="2"/>
<feComposite in2="hardAlpha" operator="arithmetic" k2="-1" k3="1"/>
<feColorMatrix type="matrix" values="0 0 0 0 1 0 0 0 0 1 0 0 0 0 1 0 0 0 0.3 0"/>
<feBlend mode="luminosity" in2="effect1_innerShadow_5496_43791" result="effect2_innerShadow_5496_43791"/>
</filter>
<clipPath id="clip0_5496_43791">
<rect width="80" height="80" rx="40" fill="white"/>
</clipPath>
</defs>
</svg>
