<svg width="80" height="80" viewBox="0 0 80 80" fill="none" xmlns="http://www.w3.org/2000/svg">
<rect width="80" height="80" rx="40" fill="#FED5D5"/>
<g filter="url(#filter0_ii_5496_43909)">
<path d="M65.8379 46.7432C71.387 52.2925 71.387 61.2895 65.8379 66.8389C60.2885 72.3882 51.2906 72.3882 45.7412 66.8389L40 61.0967L34.2588 66.8379C28.7094 72.3873 19.7115 72.3873 14.1621 66.8379C8.61298 61.2886 8.61297 52.2915 14.1621 46.7422L19.9033 41.001L14.1621 35.2598C8.61271 29.7104 8.61271 20.7125 14.1621 15.1631C19.7114 9.61411 28.7085 9.61409 34.2578 15.1631L40 20.9043L45.7422 15.1621C51.2915 9.61311 60.2886 9.61314 65.8379 15.1621C71.3873 20.7115 71.3873 29.7094 65.8379 35.2588L60.0957 41.001L65.8379 46.7432Z" fill="#FF6363"/>
</g>
<circle cx="32" cy="39.001" r="3" fill="#171714"/>
<circle cx="47" cy="39.001" r="3" fill="#171714"/>
<defs>
<filter id="filter0_ii_5496_43909" x="8" y="9" width="64" height="64.001" filterUnits="userSpaceOnUse" color-interpolation-filters="sRGB">
<feFlood flood-opacity="0" result="BackgroundImageFix"/>
<feBlend mode="normal" in="SourceGraphic" in2="BackgroundImageFix" result="shape"/>
<feColorMatrix in="SourceAlpha" type="matrix" values="0 0 0 0 0 0 0 0 0 0 0 0 0 0 0 0 0 0 127 0" result="hardAlpha"/>
<feOffset dx="2" dy="2"/>
<feGaussianBlur stdDeviation="2"/>
<feComposite in2="hardAlpha" operator="arithmetic" k2="-1" k3="1"/>
<feColorMatrix type="matrix" values="0 0 0 0 1 0 0 0 0 1 0 0 0 0 1 0 0 0 0.3 0"/>
<feBlend mode="luminosity" in2="shape" result="effect1_innerShadow_5496_43909"/>
<feColorMatrix in="SourceAlpha" type="matrix" values="0 0 0 0 0 0 0 0 0 0 0 0 0 0 0 0 0 0 127 0" result="hardAlpha"/>
<feOffset dx="-2" dy="-2"/>
<feGaussianBlur stdDeviation="2"/>
<feComposite in2="hardAlpha" operator="arithmetic" k2="-1" k3="1"/>
<feColorMatrix type="matrix" values="0 0 0 0 1 0 0 0 0 1 0 0 0 0 1 0 0 0 0.3 0"/>
<feBlend mode="luminosity" in2="effect1_innerShadow_5496_43909" result="effect2_innerShadow_5496_43909"/>
</filter>
</defs>
</svg>
