<svg width="80" height="80" viewBox="0 0 80 80" fill="none" xmlns="http://www.w3.org/2000/svg">
<rect width="80" height="80" rx="40" fill="#FED9C4"/>
<g filter="url(#filter0_ii_5496_43781)">
<path d="M62.5536 3.16705C66.9318 2.13236 70.8676 6.06821 69.833 10.4464L64.8318 31.6085C64.6156 32.5236 64.6156 33.4764 64.8318 34.3915L69.833 55.5536C70.8676 59.9318 66.9318 63.8676 62.5536 62.833L41.3915 57.8318C40.4764 57.6156 39.5236 57.6156 38.6085 57.8318L17.4464 62.833C13.0682 63.8676 9.13236 59.9318 10.167 55.5536L15.1682 34.3915C15.3844 33.4764 15.3844 32.5236 15.1682 31.6085L10.167 10.4464C9.13236 6.0682 13.0682 2.13236 17.4464 3.16705L38.6085 8.16817C39.5236 8.38442 40.4764 8.38442 41.3915 8.16817L62.5536 3.16705Z" fill="#FF7B2E"/>
</g>
<circle cx="33" cy="41" r="3" fill="#171714"/>
<circle cx="48" cy="41" r="3" fill="#171714"/>
<defs>
<filter id="filter0_ii_5496_43781" x="8" y="1" width="64" height="64" filterUnits="userSpaceOnUse" color-interpolation-filters="sRGB">
<feFlood flood-opacity="0" result="BackgroundImageFix"/>
<feBlend mode="normal" in="SourceGraphic" in2="BackgroundImageFix" result="shape"/>
<feColorMatrix in="SourceAlpha" type="matrix" values="0 0 0 0 0 0 0 0 0 0 0 0 0 0 0 0 0 0 127 0" result="hardAlpha"/>
<feOffset dx="2" dy="2"/>
<feGaussianBlur stdDeviation="2"/>
<feComposite in2="hardAlpha" operator="arithmetic" k2="-1" k3="1"/>
<feColorMatrix type="matrix" values="0 0 0 0 0.996414 0 0 0 0 0.906773 0 0 0 0 0.103586 0 0 0 0.3 0"/>
<feBlend mode="luminosity" in2="shape" result="effect1_innerShadow_5496_43781"/>
<feColorMatrix in="SourceAlpha" type="matrix" values="0 0 0 0 0 0 0 0 0 0 0 0 0 0 0 0 0 0 127 0" result="hardAlpha"/>
<feOffset dx="-2" dy="-2"/>
<feGaussianBlur stdDeviation="2"/>
<feComposite in2="hardAlpha" operator="arithmetic" k2="-1" k3="1"/>
<feColorMatrix type="matrix" values="0 0 0 0 0.996414 0 0 0 0 0.906773 0 0 0 0 0.103586 0 0 0 0.3 0"/>
<feBlend mode="luminosity" in2="effect1_innerShadow_5496_43781" result="effect2_innerShadow_5496_43781"/>
</filter>
</defs>
</svg>
