<svg width="80" height="80" viewBox="0 0 80 80" fill="none" xmlns="http://www.w3.org/2000/svg">
<rect width="80" height="80" rx="40" fill="#F9EDFF"/>
<g filter="url(#filter0_ii_5496_43895)">
<path d="M51 0C62.0457 4.82823e-07 71 8.9543 71 20C71 24.064 69.7866 27.844 67.7041 31C69.7866 34.156 71 37.936 71 42C71 53.0457 62.0457 62 51 62H29C17.9543 62 9 53.0457 9 42C9 37.9362 10.2126 34.1559 12.2949 31C10.2126 27.8441 9 24.0638 9 20C9 8.9543 17.9543 1.93692e-07 29 0H51Z" fill="#D478FF"/>
</g>
<circle cx="33" cy="41" r="3" fill="#171714"/>
<circle cx="48" cy="41" r="3" fill="#171714"/>
<defs>
<filter id="filter0_ii_5496_43895" x="7" y="-2" width="66" height="66" filterUnits="userSpaceOnUse" color-interpolation-filters="sRGB">
<feFlood flood-opacity="0" result="BackgroundImageFix"/>
<feBlend mode="normal" in="SourceGraphic" in2="BackgroundImageFix" result="shape"/>
<feColorMatrix in="SourceAlpha" type="matrix" values="0 0 0 0 0 0 0 0 0 0 0 0 0 0 0 0 0 0 127 0" result="hardAlpha"/>
<feOffset dx="2" dy="2"/>
<feGaussianBlur stdDeviation="2"/>
<feComposite in2="hardAlpha" operator="arithmetic" k2="-1" k3="1"/>
<feColorMatrix type="matrix" values="0 0 0 0 1 0 0 0 0 1 0 0 0 0 1 0 0 0 0.3 0"/>
<feBlend mode="luminosity" in2="shape" result="effect1_innerShadow_5496_43895"/>
<feColorMatrix in="SourceAlpha" type="matrix" values="0 0 0 0 0 0 0 0 0 0 0 0 0 0 0 0 0 0 127 0" result="hardAlpha"/>
<feOffset dx="-2" dy="-2"/>
<feGaussianBlur stdDeviation="2"/>
<feComposite in2="hardAlpha" operator="arithmetic" k2="-1" k3="1"/>
<feColorMatrix type="matrix" values="0 0 0 0 1 0 0 0 0 1 0 0 0 0 1 0 0 0 0.3 0"/>
<feBlend mode="luminosity" in2="effect1_innerShadow_5496_43895" result="effect2_innerShadow_5496_43895"/>
</filter>
</defs>
</svg>
