<svg width="80" height="80" viewBox="0 0 80 80" fill="none" xmlns="http://www.w3.org/2000/svg">
<g clip-path="url(#clip0_5496_43871)">
<rect width="80" height="80" rx="40" fill="#FED9C4"/>
<g filter="url(#filter0_ii_5496_43871)">
<path d="M70 46C70 53.732 63.732 60 56 60C48.9471 60 43.1141 54.7845 42.1436 48L37.8574 48C36.8869 54.7845 31.0529 60 24 60C16.268 60 10 53.732 10 46L10 12C10 4.9471 15.2155 -0.886914 22 -1.85742L22 -2L58 -2L58 -1.85742C64.7845 -0.886918 70 4.94709 70 12L70 46Z" fill="#FF9B61"/>
</g>
<circle cx="32" cy="36" r="3" fill="#171714"/>
<circle cx="47" cy="36" r="3" fill="#171714"/>
</g>
<defs>
<filter id="filter0_ii_5496_43871" x="8" y="-4" width="64" height="66" filterUnits="userSpaceOnUse" color-interpolation-filters="sRGB">
<feFlood flood-opacity="0" result="BackgroundImageFix"/>
<feBlend mode="normal" in="SourceGraphic" in2="BackgroundImageFix" result="shape"/>
<feColorMatrix in="SourceAlpha" type="matrix" values="0 0 0 0 0 0 0 0 0 0 0 0 0 0 0 0 0 0 127 0" result="hardAlpha"/>
<feOffset dx="2" dy="2"/>
<feGaussianBlur stdDeviation="2"/>
<feComposite in2="hardAlpha" operator="arithmetic" k2="-1" k3="1"/>
<feColorMatrix type="matrix" values="0 0 0 0 1 0 0 0 0 1 0 0 0 0 1 0 0 0 0.3 0"/>
<feBlend mode="luminosity" in2="shape" result="effect1_innerShadow_5496_43871"/>
<feColorMatrix in="SourceAlpha" type="matrix" values="0 0 0 0 0 0 0 0 0 0 0 0 0 0 0 0 0 0 127 0" result="hardAlpha"/>
<feOffset dx="-2" dy="-2"/>
<feGaussianBlur stdDeviation="2"/>
<feComposite in2="hardAlpha" operator="arithmetic" k2="-1" k3="1"/>
<feColorMatrix type="matrix" values="0 0 0 0 1 0 0 0 0 1 0 0 0 0 1 0 0 0 0.3 0"/>
<feBlend mode="luminosity" in2="effect1_innerShadow_5496_43871" result="effect2_innerShadow_5496_43871"/>
</filter>
<clipPath id="clip0_5496_43871">
<rect width="80" height="80" rx="40" fill="white"/>
</clipPath>
</defs>
</svg>
