<svg width="80" height="80" viewBox="0 0 80 80" fill="none" xmlns="http://www.w3.org/2000/svg">
<g clip-path="url(#clip0_5496_43881)">
<rect width="80" height="80" rx="40" fill="#DBD3FE"/>
<g filter="url(#filter0_ii_5496_43881)">
<path d="M57.5 26C63.8513 26 69 31.1487 69 37.5C69 40.8677 67.552 43.8968 65.2451 46C67.552 48.1032 69 51.1323 69 54.5C69 57.8677 67.552 60.8968 65.2451 63C67.552 65.1032 69 68.1323 69 71.5C69 77.8513 63.8513 83 57.5 83C54.1323 83 51.1032 81.552 49 79.2451C46.8968 81.552 43.8677 83 40.5 83C37.1323 83 34.1032 81.552 32 79.2451C29.8968 81.552 26.8677 83 23.5 83C17.1487 83 12 77.8513 12 71.5C12 68.1326 13.4473 65.1032 15.7539 63C13.4473 60.8968 12 57.8674 12 54.5C12 51.1326 13.4473 48.1032 15.7539 46C13.4473 43.8968 12 40.8674 12 37.5C12 31.1487 17.1487 26 23.5 26C26.8674 26 29.8968 27.4473 32 29.7539C34.1032 27.4473 37.1326 26 40.5 26C43.8674 26 46.8968 27.4473 49 29.7539C51.1032 27.4473 54.1326 26 57.5 26Z" fill="#9E86FC"/>
</g>
<circle cx="33" cy="42" r="3" fill="#171714"/>
<circle cx="48" cy="42" r="3" fill="#171714"/>
</g>
<defs>
<filter id="filter0_ii_5496_43881" x="10" y="24" width="61" height="61" filterUnits="userSpaceOnUse" color-interpolation-filters="sRGB">
<feFlood flood-opacity="0" result="BackgroundImageFix"/>
<feBlend mode="normal" in="SourceGraphic" in2="BackgroundImageFix" result="shape"/>
<feColorMatrix in="SourceAlpha" type="matrix" values="0 0 0 0 0 0 0 0 0 0 0 0 0 0 0 0 0 0 127 0" result="hardAlpha"/>
<feOffset dx="2" dy="2"/>
<feGaussianBlur stdDeviation="2"/>
<feComposite in2="hardAlpha" operator="arithmetic" k2="-1" k3="1"/>
<feColorMatrix type="matrix" values="0 0 0 0 1 0 0 0 0 1 0 0 0 0 1 0 0 0 0.3 0"/>
<feBlend mode="luminosity" in2="shape" result="effect1_innerShadow_5496_43881"/>
<feColorMatrix in="SourceAlpha" type="matrix" values="0 0 0 0 0 0 0 0 0 0 0 0 0 0 0 0 0 0 127 0" result="hardAlpha"/>
<feOffset dx="-2" dy="-2"/>
<feGaussianBlur stdDeviation="2"/>
<feComposite in2="hardAlpha" operator="arithmetic" k2="-1" k3="1"/>
<feColorMatrix type="matrix" values="0 0 0 0 1 0 0 0 0 1 0 0 0 0 1 0 0 0 0.3 0"/>
<feBlend mode="luminosity" in2="effect1_innerShadow_5496_43881" result="effect2_innerShadow_5496_43881"/>
</filter>
<clipPath id="clip0_5496_43881">
<rect width="80" height="80" rx="40" fill="white"/>
</clipPath>
</defs>
</svg>
