<svg width="80" height="80" viewBox="0 0 80 80" fill="none" xmlns="http://www.w3.org/2000/svg">
<g clip-path="url(#clip0_5496_43776)">
<rect width="80" height="80" rx="40" fill="#ACFCC7"/>
<g filter="url(#filter0_ii_5496_43776)">
<path d="M51 24C61.4934 24 70 32.5066 70 43C70 47.0996 68.7012 50.8957 66.4932 54C68.7012 57.1043 70 60.9004 70 65C70 75.4934 61.4934 84 51 84C46.9004 84 43.1043 82.7012 40 80.4932C36.8957 82.7012 33.0996 84 29 84C18.5066 84 10 75.4934 10 65C10 60.9009 11.2983 57.1051 13.5059 54.001V53.999C11.2983 50.8949 10 47.0991 10 43C10 32.5066 18.5066 24 29 24C33.0991 24 36.8949 25.2983 39.999 27.5059H40.001C43.1051 25.2983 46.9009 24 51 24Z" fill="#1ED45A"/>
</g>
<circle cx="35" cy="43" r="3" fill="#171714"/>
<circle cx="50" cy="43" r="3" fill="#171714"/>
</g>
<defs>
<filter id="filter0_ii_5496_43776" x="8" y="22" width="64" height="64" filterUnits="userSpaceOnUse" color-interpolation-filters="sRGB">
<feFlood flood-opacity="0" result="BackgroundImageFix"/>
<feBlend mode="normal" in="SourceGraphic" in2="BackgroundImageFix" result="shape"/>
<feColorMatrix in="SourceAlpha" type="matrix" values="0 0 0 0 0 0 0 0 0 0 0 0 0 0 0 0 0 0 127 0" result="hardAlpha"/>
<feOffset dx="2" dy="2"/>
<feGaussianBlur stdDeviation="2"/>
<feComposite in2="hardAlpha" operator="arithmetic" k2="-1" k3="1"/>
<feColorMatrix type="matrix" values="0 0 0 0 1 0 0 0 0 1 0 0 0 0 1 0 0 0 0.3 0"/>
<feBlend mode="luminosity" in2="shape" result="effect1_innerShadow_5496_43776"/>
<feColorMatrix in="SourceAlpha" type="matrix" values="0 0 0 0 0 0 0 0 0 0 0 0 0 0 0 0 0 0 127 0" result="hardAlpha"/>
<feOffset dx="-2" dy="-2"/>
<feGaussianBlur stdDeviation="2"/>
<feComposite in2="hardAlpha" operator="arithmetic" k2="-1" k3="1"/>
<feColorMatrix type="matrix" values="0 0 0 0 1 0 0 0 0 1 0 0 0 0 1 0 0 0 0.3 0"/>
<feBlend mode="luminosity" in2="effect1_innerShadow_5496_43776" result="effect2_innerShadow_5496_43776"/>
</filter>
<clipPath id="clip0_5496_43776">
<rect width="80" height="80" rx="40" fill="white"/>
</clipPath>
</defs>
</svg>
