<svg width="80" height="80" viewBox="0 0 80 80" fill="none" xmlns="http://www.w3.org/2000/svg">
<g clip-path="url(#clip0_5496_43901)">
<rect width="80" height="80" rx="40" fill="#FEECFB"/>
<g filter="url(#filter0_ii_5496_43901)">
<path d="M58 57C58 64.732 51.732 71 44 71C36.6043 71 30.5499 65.2652 30.0371 58L25.9639 58C25.4511 65.2652 19.3957 71 12 71C4.26801 71 -2 64.732 -2 57L-2 23C-2 15.268 4.26802 9 12 9C18.7022 9 24.3044 13.7096 25.6777 20L30.3232 20C31.6967 13.7097 37.2978 9 44 9C51.732 9 58 15.268 58 23L58 57Z" fill="#FA73E3"/>
</g>
<circle cx="32" cy="40" r="3" fill="#171714"/>
<circle cx="47" cy="40" r="3" fill="#171714"/>
</g>
<defs>
<filter id="filter0_ii_5496_43901" x="-4" y="7" width="64" height="66" filterUnits="userSpaceOnUse" color-interpolation-filters="sRGB">
<feFlood flood-opacity="0" result="BackgroundImageFix"/>
<feBlend mode="normal" in="SourceGraphic" in2="BackgroundImageFix" result="shape"/>
<feColorMatrix in="SourceAlpha" type="matrix" values="0 0 0 0 0 0 0 0 0 0 0 0 0 0 0 0 0 0 127 0" result="hardAlpha"/>
<feOffset dx="2" dy="2"/>
<feGaussianBlur stdDeviation="2"/>
<feComposite in2="hardAlpha" operator="arithmetic" k2="-1" k3="1"/>
<feColorMatrix type="matrix" values="0 0 0 0 1 0 0 0 0 1 0 0 0 0 1 0 0 0 0.3 0"/>
<feBlend mode="luminosity" in2="shape" result="effect1_innerShadow_5496_43901"/>
<feColorMatrix in="SourceAlpha" type="matrix" values="0 0 0 0 0 0 0 0 0 0 0 0 0 0 0 0 0 0 127 0" result="hardAlpha"/>
<feOffset dx="-2" dy="-2"/>
<feGaussianBlur stdDeviation="2"/>
<feComposite in2="hardAlpha" operator="arithmetic" k2="-1" k3="1"/>
<feColorMatrix type="matrix" values="0 0 0 0 1 0 0 0 0 1 0 0 0 0 1 0 0 0 0.3 0"/>
<feBlend mode="luminosity" in2="effect1_innerShadow_5496_43901" result="effect2_innerShadow_5496_43901"/>
</filter>
<clipPath id="clip0_5496_43901">
<rect width="80" height="80" rx="40" fill="white"/>
</clipPath>
</defs>
</svg>
