<svg width="18" height="18" viewBox="0 0 18 18" fill="none" xmlns="http://www.w3.org/2000/svg">
<path fill-rule="evenodd" clip-rule="evenodd" d="M9.00011 2.36572C5.0967 2.36572 1.92871 4.82658 1.92871 7.85315C1.92871 9.74122 3.15206 11.3889 5.01891 12.393L4.23399 15.2711C4.21918 15.3283 4.22223 15.3887 4.24272 15.4442C4.26322 15.4997 4.30019 15.5475 4.34867 15.5814C4.39714 15.6153 4.45482 15.6335 4.51395 15.6336C4.57308 15.6338 4.63084 15.6158 4.67949 15.5822L8.11619 13.2982C8.40612 13.2982 8.70311 13.3477 9.00011 13.3477C12.9035 13.3477 16.0715 10.8868 16.0715 7.85315C16.0715 4.81951 12.9035 2.36572 9.00011 2.36572Z" fill="black"/>
</svg>
