<svg width="15" height="14" viewBox="0 0 15 14" fill="none" xmlns="http://www.w3.org/2000/svg">
<path fill-rule="evenodd" clip-rule="evenodd" d="M6 0C9.31371 0 12 2.68629 12 6C12 7.349 11.5542 8.59357 10.8027 9.5957L14.3535 13.1465C14.5488 13.3417 14.5488 13.6583 14.3535 13.8535C14.1583 14.0488 13.8417 14.0488 13.6465 13.8535L10.1357 10.3428C9.05923 11.3683 7.60417 12 6 12C2.68629 12 0 9.31371 0 6C0 2.68629 2.68629 0 6 0ZM6 1C3.23858 1 1 3.23858 1 6C1 8.76142 3.23858 11 6 11C8.76142 11 11 8.76142 11 6C11 3.23858 8.76142 1 6 1Z" fill="#171714"/>
</svg>
