<svg width="31" height="26" viewBox="0 0 31 26" fill="none" xmlns="http://www.w3.org/2000/svg">
<path d="M20.2331 15.0752C20.0191 15.0752 19.8456 14.9017 19.8456 14.6877L19.8456 5.38868C19.8456 5.17469 20.0191 5.00122 20.2331 5.00122L24.8826 5.00122C27.6645 5.00122 29.9196 7.25635 29.9196 10.0382C29.9196 12.8201 27.6645 15.0752 24.8826 15.0752L20.2331 15.0752Z" fill="#191914"/>
<path d="M1.0804 6.01406C1.0804 5.46076 1.51538 5.00098 2.06868 5.00098C9.6263 5.00112 16.2467 9.00581 19.9273 15.0085C19.9453 15.0377 19.9242 15.0752 19.89 15.0752C19.8657 15.0752 19.846 15.0949 19.846 15.1191L19.846 19.9635C19.846 20.5359 19.382 21 18.8095 21L13.7281 21C13.3202 21 12.9538 20.7588 12.7659 20.3968C10.7599 16.5317 6.72419 13.8899 2.06868 13.8896C1.5357 13.8897 1.0804 13.4742 1.0804 12.9413L1.0804 6.01406Z" fill="#191914"/>
<path d="M20.4382 15.0744L20.7345 15.0744L19.8456 13.6917C19.8456 14.0467 19.3851 14.1862 19.1882 13.8908L19.0555 13.6917L19.8456 15.667C19.8456 15.3397 20.1109 15.0744 20.4382 15.0744Z" fill="#191914"/>
</svg>
