<svg width="107" height="24" viewBox="0 0 107 24" fill="none" xmlns="http://www.w3.org/2000/svg">
<path d="M3.07859 4.7741C2.76574 4.13625 3.23006 3.39136 3.9405 3.39136H8.81585C9.45717 3.39136 10.0436 3.75317 10.3313 4.32632L12.6765 8.9983C14.5662 12.7629 14.5323 17.2062 12.5853 20.9416C12.2485 21.5879 11.3198 21.5765 10.9988 20.9222L3.07859 4.7741Z" fill="#FEE300"/>
<path d="M21.0961 4.77617L17.2862 12.497C16.9655 13.147 16.1029 13.296 15.6551 12.7261C13.0873 9.4583 13.4391 5.73803 14.1033 3.82583C14.1964 3.55767 14.4558 3.39136 14.7397 3.39136H20.2352C20.9466 3.39136 21.4109 4.13817 21.0961 4.77617Z" fill="url(#paint0_linear_2565_51802)"/>
<mask id="path-4-outside-1_2565_51802" maskUnits="userSpaceOnUse" x="24" y="4.5" width="82" height="14" fill="black">
<rect fill="white" x="24" y="4.5" width="82" height="14"/>
<path d="M32.3646 17.5H30.679L24.4957 5.11538H25.7576L31.5534 16.7248L37.3491 5.11538H38.6019L32.3646 17.5ZM49.5559 17.5V16.4232C49.2158 16.6074 48.8286 16.7774 48.3941 16.9333C47.9643 17.0891 47.5086 17.2237 47.0268 17.3371C46.5498 17.4504 46.0587 17.5378 45.5533 17.5992C45.048 17.6606 44.5521 17.6913 44.0656 17.6913C43.4328 17.6913 42.8637 17.6346 42.3583 17.5213C41.8577 17.4079 41.4327 17.2402 41.0832 17.0183C40.7337 16.7916 40.4645 16.5129 40.2756 16.1823C40.0867 15.847 39.9922 15.4598 39.9922 15.0205C39.9922 14.586 40.1009 14.2035 40.3181 13.8729C40.5401 13.5376 40.8541 13.2471 41.2603 13.0015C41.6665 12.7512 42.1553 12.5411 42.7267 12.371C43.3029 12.1963 43.9452 12.0499 44.6536 11.9318C45.362 11.809 46.1271 11.7099 46.9489 11.6343C47.7754 11.554 48.6444 11.4879 49.5559 11.4359V10.6921C49.5559 10.3898 49.4992 10.123 49.3859 9.89158C49.2725 9.66017 49.1143 9.45945 48.9112 9.28943C48.7081 9.11468 48.4696 8.97064 48.1957 8.85729C47.9218 8.73922 47.6243 8.64477 47.3031 8.57392C46.9867 8.50308 46.6514 8.45349 46.2972 8.42516C45.9477 8.3921 45.5958 8.37557 45.2416 8.37557C44.7646 8.37557 44.3301 8.39918 43.9381 8.44641C43.5461 8.49364 43.1801 8.55976 42.8401 8.64477C42.5 8.72505 42.1742 8.81951 41.8625 8.92813C41.5508 9.03676 41.2367 9.15247 40.9203 9.27526V8.24097C41.5767 8.06622 42.2757 7.9151 43.0172 7.78758C43.7634 7.65534 44.5544 7.58922 45.3904 7.58922C46.0988 7.58922 46.76 7.65062 47.374 7.77341C47.9879 7.89148 48.5216 8.08275 48.975 8.34723C49.4284 8.61171 49.7849 8.95411 50.0447 9.37444C50.3044 9.79004 50.4343 10.2977 50.4343 10.8975V17.5H49.5559ZM49.5559 12.2223C48.0115 12.3073 46.6915 12.4277 45.5958 12.5836C44.5049 12.7394 43.6123 12.9307 42.918 13.1574C42.2237 13.3841 41.7137 13.6486 41.3878 13.9508C41.0667 14.2531 40.9061 14.5955 40.9061 14.978C40.9061 15.2897 40.984 15.566 41.1399 15.8069C41.3004 16.0477 41.5295 16.2508 41.827 16.4161C42.1246 16.5767 42.4859 16.6995 42.9109 16.7845C43.336 16.8648 43.813 16.9049 44.3419 16.9049C44.6536 16.9049 44.9748 16.8884 45.3054 16.8553C45.6407 16.8176 45.9736 16.768 46.3042 16.7066C46.6348 16.6405 46.9607 16.5649 47.2819 16.4799C47.603 16.3901 47.9053 16.2933 48.1886 16.1894C48.472 16.0855 48.7294 15.9745 48.9608 15.8565C49.197 15.7384 49.3953 15.618 49.5559 15.4952V12.2223ZM54.5219 14.135C54.5219 14.5742 54.5573 14.9521 54.6282 15.2685C54.699 15.5849 54.8478 15.8447 55.0745 16.0477C55.3012 16.2508 55.627 16.402 56.0521 16.5011C56.4819 16.5956 57.051 16.6428 57.7594 16.6428H62.1587V17.5H57.5823C56.803 17.5 56.1583 17.4386 55.6483 17.3158C55.1429 17.1883 54.7391 16.9947 54.4369 16.7349C54.1394 16.4704 53.9315 16.1375 53.8135 15.736C53.6954 15.3346 53.6364 14.8576 53.6364 14.305V7.76633H54.5219V14.135ZM64.794 7.76633V14.1917C64.7892 14.7348 64.8577 15.1811 64.9994 15.5306C65.1411 15.8801 65.3442 16.1564 65.6087 16.3594C65.8778 16.5578 66.2014 16.6971 66.5792 16.7774C66.9617 16.853 67.3915 16.8908 67.8685 16.8908C68.4211 16.8908 68.9618 16.8246 69.4908 16.6924C70.0197 16.5554 70.518 16.3854 70.9855 16.1823C71.4531 15.9745 71.8805 15.7455 72.2678 15.4952C72.6598 15.2449 72.9927 15.004 73.2667 14.7726V7.76633H74.1663V17.5H73.2667V15.7856C72.9361 15.9982 72.5748 16.2201 72.1828 16.4515C71.7908 16.6782 71.3657 16.8884 70.9076 17.082C70.4542 17.2709 69.9678 17.4268 69.4483 17.5496C68.9288 17.6724 68.3786 17.7338 67.7977 17.7338C67.1412 17.7338 66.5674 17.6511 66.0762 17.4858C65.5898 17.3205 65.1836 17.0891 64.8577 16.7916C64.5366 16.494 64.2957 16.1422 64.1351 15.736C63.9746 15.3252 63.8943 14.8741 63.8943 14.383V7.76633H64.794ZM87.265 16.9899C86.8683 17.1127 86.4999 17.219 86.1599 17.3087C85.8198 17.3937 85.4845 17.4622 85.1539 17.5142C84.8233 17.5708 84.4856 17.611 84.1409 17.6346C83.8008 17.6629 83.4254 17.6771 83.0145 17.6771C82.0605 17.6771 81.1986 17.5614 80.4288 17.33C79.659 17.0986 79.0025 16.768 78.4594 16.3382C77.921 15.9037 77.5054 15.3795 77.2125 14.7655C76.9197 14.1515 76.7733 13.462 76.7733 12.6969C76.7733 11.9554 76.9127 11.2754 77.1913 10.6567C77.4747 10.038 77.869 9.50668 78.3744 9.06273C78.8797 8.61879 79.4842 8.27403 80.1879 8.02844C80.8916 7.78286 81.6685 7.66006 82.5186 7.66006C83.4018 7.66006 84.1881 7.77813 84.8776 8.01427C85.5672 8.25041 86.1481 8.58809 86.6203 9.02731C87.0926 9.46653 87.4516 10.0002 87.6971 10.6283C87.9427 11.2517 88.0655 11.9554 88.0655 12.7394V12.959H77.6872C77.7391 13.5636 77.8903 14.109 78.1406 14.5955C78.3909 15.0819 78.7451 15.4952 79.2032 15.8352C79.666 16.1753 80.2328 16.4374 80.9034 16.6216C81.5788 16.801 82.3651 16.8908 83.2624 16.8908C83.645 16.8908 84.0323 16.8648 84.4242 16.8128C84.8162 16.7609 85.1917 16.6924 85.5506 16.6074C85.9096 16.5177 86.2378 16.4185 86.5353 16.3099C86.8329 16.1965 87.0761 16.0808 87.265 15.9627V16.9899ZM87.1942 12.1869C87.1611 11.691 87.0501 11.2187 86.8612 10.77C86.6723 10.3166 86.3889 9.91756 86.0111 9.5728C85.638 9.22803 85.161 8.95411 84.5801 8.75103C84.0039 8.54795 83.312 8.44641 82.5044 8.44641C81.7441 8.44641 81.0782 8.54795 80.5067 8.75103C79.9352 8.95411 79.4512 9.22803 79.0544 9.5728C78.6577 9.91284 78.346 10.3096 78.1193 10.7629C77.8926 11.2116 77.7486 11.6862 77.6872 12.1869H87.1942ZM101.285 12.6261C101.285 13.2495 101.218 13.8044 101.086 14.2909C100.959 14.7726 100.777 15.1929 100.541 15.5518C100.305 15.9108 100.017 16.2154 99.6765 16.4657C99.3412 16.716 98.9657 16.9167 98.5501 17.0679C98.1392 17.219 97.6906 17.33 97.2041 17.4008C96.7224 17.4669 96.2147 17.5 95.681 17.5H90.6583V7.76633H95.6669C96.465 7.76633 97.2065 7.84425 97.8913 8.00011C98.5761 8.15596 99.1688 8.4228 99.6694 8.80062C100.175 9.17372 100.569 9.67197 100.852 10.2954C101.141 10.9188 101.285 11.6957 101.285 12.6261ZM100.371 12.6261C100.371 12.0971 100.319 11.6296 100.215 11.2234C100.111 10.8173 99.9622 10.4654 99.7686 10.1679C99.575 9.86561 99.3388 9.61294 99.0602 9.40986C98.7815 9.20678 98.4675 9.04384 98.118 8.92105C97.7685 8.79353 97.3883 8.7038 96.9774 8.65185C96.5665 8.5999 96.1297 8.57392 95.6669 8.57392H91.5439V16.6853H95.6669C96.3611 16.6853 96.9963 16.6239 97.5725 16.5011C98.1487 16.3736 98.6422 16.1564 99.0531 15.8494C99.4687 15.5377 99.7922 15.1221 100.024 14.6026C100.255 14.0783 100.371 13.4195 100.371 12.6261ZM104.027 17.5V6.79429H105.001V17.5H104.027Z"/>
</mask>
<path d="M32.3646 17.5H30.679L24.4957 5.11538H25.7576L31.5534 16.7248L37.3491 5.11538H38.6019L32.3646 17.5ZM49.5559 17.5V16.4232C49.2158 16.6074 48.8286 16.7774 48.3941 16.9333C47.9643 17.0891 47.5086 17.2237 47.0268 17.3371C46.5498 17.4504 46.0587 17.5378 45.5533 17.5992C45.048 17.6606 44.5521 17.6913 44.0656 17.6913C43.4328 17.6913 42.8637 17.6346 42.3583 17.5213C41.8577 17.4079 41.4327 17.2402 41.0832 17.0183C40.7337 16.7916 40.4645 16.5129 40.2756 16.1823C40.0867 15.847 39.9922 15.4598 39.9922 15.0205C39.9922 14.586 40.1009 14.2035 40.3181 13.8729C40.5401 13.5376 40.8541 13.2471 41.2603 13.0015C41.6665 12.7512 42.1553 12.5411 42.7267 12.371C43.3029 12.1963 43.9452 12.0499 44.6536 11.9318C45.362 11.809 46.1271 11.7099 46.9489 11.6343C47.7754 11.554 48.6444 11.4879 49.5559 11.4359V10.6921C49.5559 10.3898 49.4992 10.123 49.3859 9.89158C49.2725 9.66017 49.1143 9.45945 48.9112 9.28943C48.7081 9.11468 48.4696 8.97064 48.1957 8.85729C47.9218 8.73922 47.6243 8.64477 47.3031 8.57392C46.9867 8.50308 46.6514 8.45349 46.2972 8.42516C45.9477 8.3921 45.5958 8.37557 45.2416 8.37557C44.7646 8.37557 44.3301 8.39918 43.9381 8.44641C43.5461 8.49364 43.1801 8.55976 42.8401 8.64477C42.5 8.72505 42.1742 8.81951 41.8625 8.92813C41.5508 9.03676 41.2367 9.15247 40.9203 9.27526V8.24097C41.5767 8.06622 42.2757 7.9151 43.0172 7.78758C43.7634 7.65534 44.5544 7.58922 45.3904 7.58922C46.0988 7.58922 46.76 7.65062 47.374 7.77341C47.9879 7.89148 48.5216 8.08275 48.975 8.34723C49.4284 8.61171 49.7849 8.95411 50.0447 9.37444C50.3044 9.79004 50.4343 10.2977 50.4343 10.8975V17.5H49.5559ZM49.5559 12.2223C48.0115 12.3073 46.6915 12.4277 45.5958 12.5836C44.5049 12.7394 43.6123 12.9307 42.918 13.1574C42.2237 13.3841 41.7137 13.6486 41.3878 13.9508C41.0667 14.2531 40.9061 14.5955 40.9061 14.978C40.9061 15.2897 40.984 15.566 41.1399 15.8069C41.3004 16.0477 41.5295 16.2508 41.827 16.4161C42.1246 16.5767 42.4859 16.6995 42.9109 16.7845C43.336 16.8648 43.813 16.9049 44.3419 16.9049C44.6536 16.9049 44.9748 16.8884 45.3054 16.8553C45.6407 16.8176 45.9736 16.768 46.3042 16.7066C46.6348 16.6405 46.9607 16.5649 47.2819 16.4799C47.603 16.3901 47.9053 16.2933 48.1886 16.1894C48.472 16.0855 48.7294 15.9745 48.9608 15.8565C49.197 15.7384 49.3953 15.618 49.5559 15.4952V12.2223ZM54.5219 14.135C54.5219 14.5742 54.5573 14.9521 54.6282 15.2685C54.699 15.5849 54.8478 15.8447 55.0745 16.0477C55.3012 16.2508 55.627 16.402 56.0521 16.5011C56.4819 16.5956 57.051 16.6428 57.7594 16.6428H62.1587V17.5H57.5823C56.803 17.5 56.1583 17.4386 55.6483 17.3158C55.1429 17.1883 54.7391 16.9947 54.4369 16.7349C54.1394 16.4704 53.9315 16.1375 53.8135 15.736C53.6954 15.3346 53.6364 14.8576 53.6364 14.305V7.76633H54.5219V14.135ZM64.794 7.76633V14.1917C64.7892 14.7348 64.8577 15.1811 64.9994 15.5306C65.1411 15.8801 65.3442 16.1564 65.6087 16.3594C65.8778 16.5578 66.2014 16.6971 66.5792 16.7774C66.9617 16.853 67.3915 16.8908 67.8685 16.8908C68.4211 16.8908 68.9618 16.8246 69.4908 16.6924C70.0197 16.5554 70.518 16.3854 70.9855 16.1823C71.4531 15.9745 71.8805 15.7455 72.2678 15.4952C72.6598 15.2449 72.9927 15.004 73.2667 14.7726V7.76633H74.1663V17.5H73.2667V15.7856C72.9361 15.9982 72.5748 16.2201 72.1828 16.4515C71.7908 16.6782 71.3657 16.8884 70.9076 17.082C70.4542 17.2709 69.9678 17.4268 69.4483 17.5496C68.9288 17.6724 68.3786 17.7338 67.7977 17.7338C67.1412 17.7338 66.5674 17.6511 66.0762 17.4858C65.5898 17.3205 65.1836 17.0891 64.8577 16.7916C64.5366 16.494 64.2957 16.1422 64.1351 15.736C63.9746 15.3252 63.8943 14.8741 63.8943 14.383V7.76633H64.794ZM87.265 16.9899C86.8683 17.1127 86.4999 17.219 86.1599 17.3087C85.8198 17.3937 85.4845 17.4622 85.1539 17.5142C84.8233 17.5708 84.4856 17.611 84.1409 17.6346C83.8008 17.6629 83.4254 17.6771 83.0145 17.6771C82.0605 17.6771 81.1986 17.5614 80.4288 17.33C79.659 17.0986 79.0025 16.768 78.4594 16.3382C77.921 15.9037 77.5054 15.3795 77.2125 14.7655C76.9197 14.1515 76.7733 13.462 76.7733 12.6969C76.7733 11.9554 76.9127 11.2754 77.1913 10.6567C77.4747 10.038 77.869 9.50668 78.3744 9.06273C78.8797 8.61879 79.4842 8.27403 80.1879 8.02844C80.8916 7.78286 81.6685 7.66006 82.5186 7.66006C83.4018 7.66006 84.1881 7.77813 84.8776 8.01427C85.5672 8.25041 86.1481 8.58809 86.6203 9.02731C87.0926 9.46653 87.4516 10.0002 87.6971 10.6283C87.9427 11.2517 88.0655 11.9554 88.0655 12.7394V12.959H77.6872C77.7391 13.5636 77.8903 14.109 78.1406 14.5955C78.3909 15.0819 78.7451 15.4952 79.2032 15.8352C79.666 16.1753 80.2328 16.4374 80.9034 16.6216C81.5788 16.801 82.3651 16.8908 83.2624 16.8908C83.645 16.8908 84.0323 16.8648 84.4242 16.8128C84.8162 16.7609 85.1917 16.6924 85.5506 16.6074C85.9096 16.5177 86.2378 16.4185 86.5353 16.3099C86.8329 16.1965 87.0761 16.0808 87.265 15.9627V16.9899ZM87.1942 12.1869C87.1611 11.691 87.0501 11.2187 86.8612 10.77C86.6723 10.3166 86.3889 9.91756 86.0111 9.5728C85.638 9.22803 85.161 8.95411 84.5801 8.75103C84.0039 8.54795 83.312 8.44641 82.5044 8.44641C81.7441 8.44641 81.0782 8.54795 80.5067 8.75103C79.9352 8.95411 79.4512 9.22803 79.0544 9.5728C78.6577 9.91284 78.346 10.3096 78.1193 10.7629C77.8926 11.2116 77.7486 11.6862 77.6872 12.1869H87.1942ZM101.285 12.6261C101.285 13.2495 101.218 13.8044 101.086 14.2909C100.959 14.7726 100.777 15.1929 100.541 15.5518C100.305 15.9108 100.017 16.2154 99.6765 16.4657C99.3412 16.716 98.9657 16.9167 98.5501 17.0679C98.1392 17.219 97.6906 17.33 97.2041 17.4008C96.7224 17.4669 96.2147 17.5 95.681 17.5H90.6583V7.76633H95.6669C96.465 7.76633 97.2065 7.84425 97.8913 8.00011C98.5761 8.15596 99.1688 8.4228 99.6694 8.80062C100.175 9.17372 100.569 9.67197 100.852 10.2954C101.141 10.9188 101.285 11.6957 101.285 12.6261ZM100.371 12.6261C100.371 12.0971 100.319 11.6296 100.215 11.2234C100.111 10.8173 99.9622 10.4654 99.7686 10.1679C99.575 9.86561 99.3388 9.61294 99.0602 9.40986C98.7815 9.20678 98.4675 9.04384 98.118 8.92105C97.7685 8.79353 97.3883 8.7038 96.9774 8.65185C96.5665 8.5999 96.1297 8.57392 95.6669 8.57392H91.5439V16.6853H95.6669C96.3611 16.6853 96.9963 16.6239 97.5725 16.5011C98.1487 16.3736 98.6422 16.1564 99.0531 15.8494C99.4687 15.5377 99.7922 15.1221 100.024 14.6026C100.255 14.0783 100.371 13.4195 100.371 12.6261ZM104.027 17.5V6.79429H105.001V17.5H104.027Z" fill="black"/>
<path d="M32.3646 17.5V17.6976C32.4392 17.6976 32.5075 17.6555 32.541 17.5889L32.3646 17.5ZM30.679 17.5L30.5023 17.5883C30.5357 17.6552 30.6042 17.6976 30.679 17.6976V17.5ZM24.4957 5.11538V4.91781C24.4273 4.91781 24.3637 4.95325 24.3277 5.01147C24.2917 5.06969 24.2884 5.14239 24.319 5.20364L24.4957 5.11538ZM25.7576 5.11538L25.9344 5.02714C25.901 4.96014 25.8325 4.91781 25.7576 4.91781V5.11538ZM31.5534 16.7248L31.3766 16.8131C31.41 16.8801 31.4785 16.9224 31.5534 16.9224C31.6282 16.9224 31.6967 16.8801 31.7301 16.8131L31.5534 16.7248ZM37.3491 5.11538V4.91781C37.2742 4.91781 37.2057 4.96014 37.1723 5.02714L37.3491 5.11538ZM38.6019 5.11538L38.7784 5.20425C38.8093 5.14301 38.8061 5.07015 38.7702 5.01176C38.7342 4.95337 38.6705 4.91781 38.6019 4.91781V5.11538ZM32.3646 17.5V17.3024H30.679V17.5V17.6976H32.3646V17.5ZM30.679 17.5L30.8558 17.4117L24.6725 5.02713L24.4957 5.11538L24.319 5.20364L30.5023 17.5883L30.679 17.5ZM24.4957 5.11538V5.31296H25.7576V5.11538V4.91781H24.4957V5.11538ZM25.7576 5.11538L25.5809 5.20363L31.3766 16.8131L31.5534 16.7248L31.7301 16.6366L25.9344 5.02714L25.7576 5.11538ZM31.5534 16.7248L31.7301 16.8131L37.5258 5.20363L37.3491 5.11538L37.1723 5.02714L31.3766 16.6366L31.5534 16.7248ZM37.3491 5.11538V5.31296H38.6019V5.11538V4.91781H37.3491V5.11538ZM38.6019 5.11538L38.4255 5.02651L32.1881 17.4111L32.3646 17.5L32.541 17.5889L38.7784 5.20425L38.6019 5.11538ZM49.5559 17.5H49.3583C49.3583 17.6091 49.4468 17.6976 49.5559 17.6976V17.5ZM49.5559 16.4232H49.7535C49.7535 16.3536 49.7168 16.2891 49.657 16.2535C49.5972 16.2178 49.523 16.2163 49.4618 16.2495L49.5559 16.4232ZM48.3941 16.9333L48.3274 16.7473L48.3267 16.7475L48.3941 16.9333ZM47.0268 17.3371L46.9816 17.1447L46.9812 17.1448L47.0268 17.3371ZM45.5533 17.5992L45.5771 17.7953L45.5533 17.5992ZM42.3583 17.5213L42.3147 17.7139L42.3151 17.714L42.3583 17.5213ZM41.0832 17.0183L40.9757 17.184L40.9773 17.1851L41.0832 17.0183ZM40.2756 16.1823L40.1035 16.2793L40.1041 16.2804L40.2756 16.1823ZM40.3181 13.8729L40.1534 13.7638L40.153 13.7644L40.3181 13.8729ZM41.2603 13.0015L41.3625 13.1706L41.364 13.1697L41.2603 13.0015ZM42.7267 12.371L42.7831 12.5604L42.7841 12.5601L42.7267 12.371ZM44.6536 11.9318L44.6861 12.1267L44.6874 12.1265L44.6536 11.9318ZM46.9489 11.6343L46.967 11.831L46.968 11.8309L46.9489 11.6343ZM49.5559 11.4359L49.5671 11.6332C49.6717 11.6272 49.7535 11.5407 49.7535 11.4359H49.5559ZM48.9112 9.28943L48.7823 9.4392L48.7844 9.44092L48.9112 9.28943ZM48.1957 8.85729L48.1175 9.03875L48.1202 9.03985L48.1957 8.85729ZM47.3031 8.57393L47.2599 8.76673L47.2606 8.76686L47.3031 8.57393ZM46.2972 8.42516L46.2785 8.62187L46.2814 8.6221L46.2972 8.42516ZM42.8401 8.64477L42.8855 8.83707L42.888 8.83644L42.8401 8.64477ZM40.9203 9.27526H40.7227C40.7227 9.34046 40.7549 9.40146 40.8087 9.43829C40.8624 9.47512 40.931 9.48304 40.9917 9.45945L40.9203 9.27526ZM40.9203 8.24097L40.8694 8.05004C40.7829 8.07308 40.7227 8.15142 40.7227 8.24097H40.9203ZM43.0172 7.78758L43.0507 7.9823L43.0517 7.98212L43.0172 7.78758ZM47.374 7.77341L47.3352 7.96715L47.3366 7.96743L47.374 7.77341ZM50.0447 9.37444L49.8766 9.4783L49.8772 9.47915L50.0447 9.37444ZM50.4343 17.5V17.6976C50.5434 17.6976 50.6319 17.6091 50.6319 17.5H50.4343ZM49.5559 12.2223H49.7535C49.7535 12.168 49.7311 12.1161 49.6917 12.0788C49.6523 12.0415 49.5992 12.022 49.545 12.025L49.5559 12.2223ZM45.5958 12.5836L45.568 12.388L45.5679 12.388L45.5958 12.5836ZM41.3878 13.9508L41.2535 13.806L41.2524 13.807L41.3878 13.9508ZM41.1399 15.8069L40.974 15.9142L40.9755 15.9165L41.1399 15.8069ZM41.827 16.4161L41.7311 16.5888L41.7332 16.59L41.827 16.4161ZM42.9109 16.7845L42.8722 16.9782L42.8742 16.9786L42.9109 16.7845ZM45.3054 16.8553L45.325 17.0519L45.3275 17.0517L45.3054 16.8553ZM46.3042 16.7066L46.3403 16.9008L46.343 16.9003L46.3042 16.7066ZM47.2819 16.4799L47.3324 16.6709L47.335 16.6702L47.2819 16.4799ZM48.9608 15.8565L48.8725 15.6797L48.871 15.6805L48.9608 15.8565ZM49.5559 15.4952L49.6759 15.6521C49.7248 15.6147 49.7535 15.5567 49.7535 15.4952H49.5559ZM49.5559 17.5H49.7535V16.4232H49.5559H49.3583V17.5H49.5559ZM49.5559 16.4232L49.4618 16.2495C49.132 16.4281 48.7542 16.5942 48.3274 16.7473L48.3941 16.9333L48.4608 17.1192C48.903 16.9606 49.2996 16.7867 49.65 16.5969L49.5559 16.4232ZM48.3941 16.9333L48.3267 16.7475C47.9047 16.9006 47.4564 17.033 46.9816 17.1447L47.0268 17.3371L47.0721 17.5294C47.5607 17.4144 48.0239 17.2777 48.4614 17.119L48.3941 16.9333ZM47.0268 17.3371L46.9812 17.1448C46.5116 17.2564 46.0278 17.3425 45.5295 17.403L45.5533 17.5992L45.5771 17.7953C46.0896 17.7331 46.588 17.6444 47.0725 17.5293L47.0268 17.3371ZM45.5533 17.5992L45.5295 17.403C45.0317 17.4635 44.5438 17.4937 44.0656 17.4937V17.6913V17.8888C44.5604 17.8888 45.0643 17.8576 45.5771 17.7953L45.5533 17.5992ZM44.0656 17.6913V17.4937C43.4443 17.4937 42.89 17.438 42.4016 17.3285L42.3583 17.5213L42.3151 17.714C42.8374 17.8312 43.4213 17.8888 44.0656 17.8888V17.6913ZM42.3583 17.5213L42.402 17.3286C41.9184 17.2191 41.5155 17.0588 41.1891 16.8515L41.0832 17.0183L40.9773 17.1851C41.3498 17.4217 41.7971 17.5968 42.3147 17.7139L42.3583 17.5213ZM41.0832 17.0183L41.1907 16.8525C40.8651 16.6413 40.619 16.385 40.4471 16.0843L40.2756 16.1823L40.1041 16.2804C40.31 16.6408 40.6023 16.9418 40.9757 17.184L41.0832 17.0183ZM40.2756 16.1823L40.4477 16.0854C40.2777 15.7836 40.1898 15.4306 40.1898 15.0205H39.9922H39.7947C39.7947 15.4889 39.8956 15.9104 40.1035 16.2793L40.2756 16.1823ZM39.9922 15.0205H40.1898C40.1898 14.6207 40.2892 14.2766 40.4832 13.9814L40.3181 13.8729L40.153 13.7644C39.9125 14.1304 39.7947 14.5514 39.7947 15.0205H39.9922ZM40.3181 13.8729L40.4828 13.982C40.686 13.675 40.9769 13.4038 41.3625 13.1706L41.2603 13.0015L41.1581 12.8325C40.7314 13.0905 40.3941 13.4001 40.1534 13.7638L40.3181 13.8729ZM41.2603 13.0015L41.364 13.1697C41.7522 12.9305 42.2243 12.7267 42.7831 12.5604L42.7267 12.371L42.6704 12.1817C42.0862 12.3555 41.5807 12.572 41.1566 12.8333L41.2603 13.0015ZM42.7267 12.371L42.7841 12.5601C43.3507 12.3883 43.9845 12.2436 44.6861 12.1267L44.6536 11.9318L44.6211 11.7369C43.9059 11.8562 43.2551 12.0043 42.6694 12.182L42.7267 12.371ZM44.6536 11.9318L44.6874 12.1265C45.3899 12.0047 46.1497 11.9062 46.967 11.831L46.9489 11.6343L46.9308 11.4376C46.1045 11.5135 45.3342 11.6133 44.6199 11.7372L44.6536 11.9318ZM46.9489 11.6343L46.968 11.8309C47.7916 11.7509 48.658 11.685 49.5671 11.6332L49.5559 11.4359L49.5446 11.2387C48.6308 11.2908 47.7591 11.3571 46.9298 11.4376L46.9489 11.6343ZM49.5559 11.4359H49.7535V10.6921H49.5559H49.3583V11.4359H49.5559ZM49.5559 10.6921H49.7535C49.7535 10.3649 49.692 10.0675 49.5633 9.80468L49.3859 9.89158L49.2084 9.97849C49.3064 10.1786 49.3583 10.4148 49.3583 10.6921H49.5559ZM49.3859 9.89158L49.5633 9.80468C49.4374 9.54773 49.2617 9.3252 49.0381 9.13794L48.9112 9.28943L48.7844 9.44092C48.9669 9.5937 49.1076 9.7726 49.2084 9.97849L49.3859 9.89158ZM48.9112 9.28943L49.0401 9.13967C48.8195 8.94985 48.5625 8.79526 48.2713 8.67473L48.1957 8.85729L48.1202 9.03985C48.3767 9.14602 48.5968 9.27952 48.7824 9.43919L48.9112 9.28943ZM48.1957 8.85729L48.2739 8.67586C47.9874 8.55236 47.6778 8.45426 47.3457 8.38099L47.3031 8.57393L47.2606 8.76686C47.5707 8.83528 47.8562 8.92609 48.1175 9.03873L48.1957 8.85729ZM47.3031 8.57393L47.3463 8.38112C47.02 8.30808 46.6755 8.25722 46.3129 8.22821L46.2972 8.42516L46.2814 8.6221C46.6273 8.64977 46.9534 8.69809 47.2599 8.76672L47.3031 8.57393ZM46.2972 8.42516L46.3158 8.22846C45.96 8.19481 45.602 8.178 45.2416 8.178V8.37557V8.57314C45.5897 8.57314 45.9353 8.58938 46.2786 8.62185L46.2972 8.42516ZM45.2416 8.37557V8.178C44.7583 8.178 44.3157 8.20191 43.9145 8.25026L43.9381 8.44641L43.9618 8.64256C44.3445 8.59645 44.7709 8.57314 45.2416 8.57314V8.37557ZM43.9381 8.44641L43.9145 8.25026C43.5153 8.29835 43.1411 8.36585 42.7922 8.45309L42.8401 8.64477L42.888 8.83644C43.2191 8.75366 43.5769 8.68893 43.9618 8.64256L43.9381 8.44641ZM42.8401 8.64477L42.7947 8.45248C42.4484 8.53424 42.1159 8.63057 41.7974 8.74157L41.8625 8.92813L41.9275 9.1147C42.2324 9.00845 42.5517 8.91586 42.8855 8.83705L42.8401 8.64477ZM41.8625 8.92813L41.7974 8.74157C41.4835 8.85097 41.1673 8.96747 40.8488 9.09107L40.9203 9.27526L40.9917 9.45945C41.3061 9.33746 41.618 9.22255 41.9275 9.1147L41.8625 8.92813ZM40.9203 9.27526H41.1178V8.24097H40.9203H40.7227V9.27526H40.9203ZM40.9203 8.24097L40.9711 8.43189C41.6213 8.25882 42.3144 8.10891 43.0507 7.98229L43.0172 7.78758L42.9837 7.59287C42.237 7.72128 41.5322 7.87363 40.8694 8.05004L40.9203 8.24097ZM43.0172 7.78758L43.0517 7.98212C43.7854 7.85209 44.5648 7.7868 45.3904 7.7868V7.58922V7.39165C44.5441 7.39165 43.7414 7.45859 42.9827 7.59304L43.0172 7.78758ZM45.3904 7.58922V7.7868C46.0875 7.7868 46.7355 7.84721 47.3352 7.96715L47.374 7.77341L47.4127 7.57968C46.7844 7.45402 46.1101 7.39165 45.3904 7.39165V7.58922ZM47.374 7.77341L47.3366 7.96743C47.9328 8.08207 48.4446 8.26658 48.8754 8.51789L48.975 8.34723L49.0745 8.17657C48.5986 7.89893 48.0431 7.70089 47.4113 7.57939L47.374 7.77341ZM48.975 8.34723L48.8754 8.51789C49.3026 8.7671 49.6349 9.08723 49.8766 9.4783L50.0447 9.37444L50.2128 9.27057C49.9349 8.82099 49.5541 8.45632 49.0745 8.17657L48.975 8.34723ZM50.0447 9.37444L49.8772 9.47915C50.1133 9.85699 50.2367 10.3265 50.2367 10.8975H50.4343H50.6319C50.6319 10.269 50.4956 9.7231 50.2122 9.26972L50.0447 9.37444ZM50.4343 10.8975H50.2367V17.5H50.4343H50.6319V10.8975H50.4343ZM50.4343 17.5V17.3024H49.5559V17.5V17.6976H50.4343V17.5ZM49.5559 12.2223L49.545 12.025C47.997 12.1102 46.671 12.2311 45.568 12.388L45.5958 12.5836L45.6236 12.7792C46.712 12.6244 48.026 12.5044 49.5667 12.4196L49.5559 12.2223ZM45.5958 12.5836L45.5679 12.388C44.4707 12.5447 43.5658 12.738 42.8567 12.9696L42.918 13.1574L42.9793 13.3452C43.6587 13.1234 44.539 12.9341 45.6238 12.7792L45.5958 12.5836ZM42.918 13.1574L42.8567 12.9696C42.1506 13.2001 41.6095 13.4757 41.2535 13.806L41.3878 13.9508L41.5222 14.0957C41.8178 13.8214 42.2969 13.568 42.9793 13.3452L42.918 13.1574ZM41.3878 13.9508L41.2524 13.807C40.8982 14.1403 40.7085 14.5325 40.7085 14.978H40.9061H41.1037C41.1037 14.6584 41.2351 14.3659 41.5232 14.0947L41.3878 13.9508ZM40.9061 14.978H40.7085C40.7085 15.3244 40.7957 15.6386 40.974 15.9142L41.1399 15.8069L41.3057 15.6995C41.1724 15.4934 41.1037 15.2551 41.1037 14.978H40.9061ZM41.1399 15.8069L40.9755 15.9165C41.1563 16.1878 41.4109 16.4109 41.7311 16.5888L41.827 16.4161L41.923 16.2434C41.6481 16.0907 41.4445 15.9077 41.3043 15.6973L41.1399 15.8069ZM41.827 16.4161L41.7332 16.59C42.0521 16.7621 42.433 16.8904 42.8722 16.9782L42.9109 16.7845L42.9497 16.5908C42.5387 16.5086 42.1971 16.3913 41.9209 16.2423L41.827 16.4161ZM42.9109 16.7845L42.8742 16.9786C43.3137 17.0616 43.8033 17.1025 44.3419 17.1025V16.9049V16.7074C43.8227 16.7074 43.3582 16.6679 42.9476 16.5904L42.9109 16.7845ZM44.3419 16.9049V17.1025C44.6606 17.1025 44.9883 17.0856 45.325 17.0519L45.3054 16.8553L45.2857 16.6587C44.9612 16.6912 44.6466 16.7074 44.3419 16.7074V16.9049ZM45.3054 16.8553L45.3275 17.0517C45.6675 17.0134 46.0051 16.9631 46.3403 16.9008L46.3042 16.7066L46.2682 16.5123C45.9422 16.5729 45.6139 16.6218 45.2832 16.659L45.3054 16.8553ZM46.3042 16.7066L46.343 16.9003C46.6775 16.8334 47.0073 16.7569 47.3324 16.6709L47.2819 16.4799L47.2313 16.2889C46.9141 16.3728 46.5922 16.4475 46.2655 16.5128L46.3042 16.7066ZM47.2819 16.4799L47.335 16.6702C47.6607 16.5792 47.9679 16.4808 48.2567 16.3749L48.1886 16.1894L48.1206 16.0039C47.8426 16.1059 47.5453 16.2011 47.2287 16.2896L47.2819 16.4799ZM48.1886 16.1894L48.2567 16.3749C48.5463 16.2687 48.8111 16.1547 49.0506 16.0325L48.9608 15.8565L48.871 15.6805C48.6477 15.7944 48.3977 15.9023 48.1206 16.0039L48.1886 16.1894ZM48.9608 15.8565L49.0492 16.0332C49.2933 15.9111 49.5029 15.7844 49.6759 15.6521L49.5559 15.4952L49.4359 15.3382C49.2877 15.4516 49.1006 15.5657 48.8725 15.6798L48.9608 15.8565ZM49.5559 15.4952H49.7535V12.2223H49.5559H49.3583V15.4952H49.5559ZM56.0521 16.5011L56.0072 16.6936L56.0097 16.6941L56.0521 16.5011ZM62.1586 16.6428H62.3562C62.3562 16.5337 62.2678 16.4452 62.1586 16.4452V16.6428ZM62.1586 17.5V17.6976C62.2678 17.6976 62.3562 17.6091 62.3562 17.5H62.1586ZM55.6483 17.3158L55.5999 17.5074L55.602 17.5079L55.6483 17.3158ZM54.4369 16.7349L54.3056 16.8826L54.3081 16.8848L54.4369 16.7349ZM53.8135 15.736L53.6239 15.7918L53.8135 15.736ZM53.6364 7.76633V7.56876C53.5273 7.56876 53.4388 7.65721 53.4388 7.76633H53.6364ZM54.5219 7.76633H54.7195C54.7195 7.65721 54.631 7.56876 54.5219 7.56876V7.76633ZM54.5219 14.135H54.3243C54.3243 14.584 54.3605 14.9771 54.4354 15.3116L54.6282 15.2685L54.821 15.2253C54.7542 14.927 54.7195 14.5645 54.7195 14.135H54.5219ZM54.6282 15.2685L54.4354 15.3116C54.5146 15.6655 54.6832 15.9625 54.9426 16.1949L55.0745 16.0477L55.2063 15.9006C55.0123 15.7268 54.8834 15.5044 54.821 15.2253L54.6282 15.2685ZM55.0745 16.0477L54.9426 16.1949C55.2025 16.4277 55.563 16.5899 56.0072 16.6935L56.0521 16.5011L56.097 16.3087C55.6911 16.214 55.3999 16.074 55.2063 15.9006L55.0745 16.0477ZM56.0521 16.5011L56.0097 16.6941C56.4592 16.7929 57.0442 16.8404 57.7594 16.8404V16.6428V16.4452C57.0577 16.4452 56.5045 16.3983 56.0945 16.3082L56.0521 16.5011ZM57.7594 16.6428V16.8404H62.1586V16.6428V16.4452H57.7594V16.6428ZM62.1586 16.6428H61.9611V17.5H62.1586H62.3562V16.6428H62.1586ZM62.1586 17.5V17.3024H57.5823V17.5V17.6976H62.1586V17.5ZM57.5823 17.5V17.3024C56.8118 17.3024 56.1841 17.2416 55.6945 17.1237L55.6483 17.3158L55.602 17.5079C56.1326 17.6356 56.7942 17.6976 57.5823 17.6976V17.5ZM55.6483 17.3158L55.6966 17.1242C55.2122 17.002 54.8387 16.8197 54.5657 16.5851L54.4369 16.7349L54.3081 16.8848C54.6396 17.1696 55.0737 17.3746 55.5999 17.5074L55.6483 17.3158ZM54.4369 16.7349L54.5681 16.5872C54.2997 16.3486 54.1112 16.0481 54.003 15.6803L53.8135 15.736L53.6239 15.7918C53.7519 16.2268 53.979 16.5922 54.3056 16.8826L54.4369 16.7349ZM53.8135 15.736L54.003 15.6803C53.8917 15.3017 53.8339 14.8444 53.8339 14.305H53.6364H53.4388C53.4388 14.8708 53.4991 15.3675 53.6239 15.7918L53.8135 15.736ZM53.6364 14.305H53.8339V7.76633H53.6364H53.4388V14.305H53.6364ZM53.6364 7.76633V7.9639H54.5219V7.76633V7.56876H53.6364V7.76633ZM54.5219 7.76633H54.3243V14.135H54.5219H54.7195V7.76633H54.5219ZM64.794 7.76633H64.9915C64.9915 7.65721 64.9031 7.56876 64.794 7.56876V7.76633ZM64.794 14.1917L64.9915 14.1934V14.1917H64.794ZM65.6087 16.3594L65.4883 16.5162L65.4915 16.5185L65.6087 16.3594ZM66.5792 16.7774L66.5381 16.9707L66.5409 16.9712L66.5792 16.7774ZM69.4908 16.6924L69.5387 16.8841L69.5403 16.8837L69.4908 16.6924ZM70.9855 16.1823L71.0643 16.3636L71.0658 16.3629L70.9855 16.1823ZM72.2678 15.4952L72.1615 15.3287L72.1605 15.3292L72.2678 15.4952ZM73.2667 14.7726L73.3942 14.9235C73.4386 14.886 73.4642 14.8308 73.4642 14.7726H73.2667ZM73.2667 7.76633V7.56876C73.1575 7.56876 73.0691 7.65721 73.0691 7.76633H73.2667ZM74.1663 7.76633H74.3639C74.3639 7.65721 74.2755 7.56876 74.1663 7.56876V7.76633ZM74.1663 17.5V17.6976C74.2755 17.6976 74.3639 17.6091 74.3639 17.5H74.1663ZM73.2667 17.5H73.0691C73.0691 17.6091 73.1575 17.6976 73.2667 17.6976V17.5ZM73.2667 15.7856H73.4642C73.4642 15.7134 73.4248 15.6468 73.3613 15.6122C73.2979 15.5776 73.2206 15.5804 73.1598 15.6194L73.2667 15.7856ZM72.1828 16.4515L72.2817 16.6226L72.2832 16.6217L72.1828 16.4515ZM70.9076 17.082L70.9836 17.2644L70.9845 17.264L70.9076 17.082ZM66.0762 17.4858L66.0126 17.6729L66.0132 17.6731L66.0762 17.4858ZM64.8577 16.7916L64.7234 16.9365L64.7245 16.9375L64.8577 16.7916ZM64.1351 15.736L63.9511 15.808L63.9514 15.8087L64.1351 15.736ZM63.8943 7.76633V7.56876C63.7852 7.56876 63.6967 7.65721 63.6967 7.76633H63.8943ZM64.794 7.76633H64.5964V14.1917H64.794H64.9915V7.76633H64.794ZM64.794 14.1917L64.5964 14.19C64.5915 14.7486 64.6615 15.2231 64.8163 15.6048L64.9994 15.5306L65.1825 15.4564C65.0539 15.1391 64.9869 14.721 64.9915 14.1934L64.794 14.1917ZM64.9994 15.5306L64.8163 15.6048C64.9694 15.9825 65.1925 16.289 65.4883 16.5162L65.6087 16.3594L65.729 16.2027C65.4959 16.0238 65.3127 15.7776 65.1825 15.4564L64.9994 15.5306ZM65.6087 16.3594L65.4915 16.5185C65.7866 16.7359 66.137 16.8854 66.5381 16.9707L66.5792 16.7774L66.6203 16.5842C66.2657 16.5088 65.9691 16.3797 65.7258 16.2004L65.6087 16.3594ZM66.5792 16.7774L66.5409 16.9712C66.9385 17.0498 67.3814 17.0883 67.8685 17.0883V16.8908V16.6932C67.4016 16.6932 66.985 16.6562 66.6175 16.5836L66.5792 16.7774ZM67.8685 16.8908V17.0883C68.437 17.0883 68.9939 17.0203 69.5387 16.8841L69.4908 16.6924L69.4429 16.5007C68.9298 16.629 68.4051 16.6932 67.8685 16.6932V16.8908ZM69.4908 16.6924L69.5403 16.8837C70.0785 16.7443 70.5866 16.571 71.0643 16.3636L70.9855 16.1823L70.9068 16.0011C70.4494 16.1998 69.9609 16.3666 69.4413 16.5011L69.4908 16.6924ZM70.9855 16.1823L71.0658 16.3629C71.5417 16.1514 71.9783 15.9175 72.375 15.6611L72.2678 15.4952L72.1605 15.3292C71.7828 15.5734 71.3645 15.7977 70.9053 16.0018L70.9855 16.1823ZM72.2678 15.4952L72.3741 15.6617C72.7715 15.408 73.1119 15.162 73.3942 14.9235L73.2667 14.7726L73.1392 14.6217C72.8736 14.846 72.5481 15.0818 72.1615 15.3287L72.2678 15.4952ZM73.2667 14.7726H73.4642V7.76633H73.2667H73.0691V14.7726H73.2667ZM73.2667 7.76633V7.9639H74.1663V7.76633V7.56876H73.2667V7.76633ZM74.1663 7.76633H73.9688V17.5H74.1663H74.3639V7.76633H74.1663ZM74.1663 17.5V17.3024H73.2667V17.5V17.6976H74.1663V17.5ZM73.2667 17.5H73.4642V15.7856H73.2667H73.0691V17.5H73.2667ZM73.2667 15.7856L73.1598 15.6194C72.8316 15.8304 72.4725 16.0511 72.0823 16.2814L72.1828 16.4515L72.2832 16.6217C72.677 16.3892 73.0405 16.1659 73.3735 15.9518L73.2667 15.7856ZM72.1828 16.4515L72.0839 16.2805C71.6996 16.5027 71.282 16.7093 70.8307 16.9L70.9076 17.082L70.9845 17.264C71.4495 17.0675 71.8819 16.8537 72.2817 16.6226L72.1828 16.4515ZM70.9076 17.082L70.8316 16.8997C70.389 17.0841 69.9128 17.2368 69.4028 17.3573L69.4483 17.5496L69.4937 17.7419C70.0228 17.6168 70.5195 17.4578 70.9836 17.2644L70.9076 17.082ZM69.4483 17.5496L69.4028 17.3573C68.8995 17.4763 68.3646 17.5362 67.7977 17.5362V17.7338V17.9314C68.3925 17.9314 68.9581 17.8685 69.4937 17.7419L69.4483 17.5496ZM67.7977 17.7338V17.5362C67.1572 17.5362 66.6055 17.4555 66.1392 17.2986L66.0762 17.4858L66.0132 17.6731C66.5293 17.8468 67.1252 17.9314 67.7977 17.9314V17.7338ZM66.0762 17.4858L66.1398 17.2988C65.6749 17.1408 65.2937 16.9221 64.9909 16.6457L64.8577 16.7916L64.7245 16.9375C65.0735 17.2562 65.5046 17.5003 66.0126 17.6729L66.0762 17.4858ZM64.8577 16.7916L64.992 16.6466C64.6925 16.3692 64.4686 16.042 64.3189 15.6634L64.1351 15.736L63.9514 15.8087C64.1229 16.2424 64.3807 16.6189 64.7234 16.9365L64.8577 16.7916ZM64.1351 15.736L64.3192 15.6641C64.1685 15.2786 64.0919 14.8523 64.0919 14.383H63.8943H63.6967C63.6967 14.896 63.7806 15.3717 63.9511 15.808L64.1351 15.736ZM63.8943 14.383H64.0919V7.76633H63.8943H63.6967V14.383H63.8943ZM63.8943 7.76633V7.9639H64.794V7.76633V7.56876H63.8943V7.76633ZM87.265 16.9899L87.3234 17.1787C87.4062 17.1531 87.4626 17.0766 87.4626 16.9899H87.265ZM86.1599 17.3087L86.2078 17.5004L86.2103 17.4998L86.1599 17.3087ZM85.1539 17.5142L85.1232 17.319L85.1205 17.3194L85.1539 17.5142ZM84.1409 17.6346L84.1274 17.4375L84.1245 17.4377L84.1409 17.6346ZM78.4594 16.3382L78.3353 16.492L78.3368 16.4931L78.4594 16.3382ZM77.1913 10.6567L77.0117 10.5744L77.0112 10.5755L77.1913 10.6567ZM87.6971 10.6283L87.5131 10.7003L87.5133 10.7008L87.6971 10.6283ZM88.0655 12.959V13.1566C88.1746 13.1566 88.2631 13.0682 88.2631 12.959H88.0655ZM77.6872 12.959V12.7615C77.6318 12.7615 77.579 12.7847 77.5416 12.8254C77.5042 12.8662 77.4856 12.9208 77.4903 12.976L77.6872 12.959ZM79.2032 15.8352L79.0854 15.9939L79.0862 15.9944L79.2032 15.8352ZM80.9034 16.6216L80.8511 16.8121L80.8527 16.8125L80.9034 16.6216ZM85.5506 16.6074L85.5962 16.7997L85.5986 16.7991L85.5506 16.6074ZM86.5353 16.3099L86.6031 16.4955L86.6057 16.4945L86.5353 16.3099ZM87.265 15.9627H87.4626C87.4626 15.8909 87.4236 15.8247 87.3608 15.7899C87.298 15.7551 87.2212 15.7571 87.1603 15.7952L87.265 15.9627ZM87.1942 12.1869V12.3844C87.2488 12.3844 87.3011 12.3618 87.3384 12.3218C87.3758 12.2819 87.3949 12.2283 87.3913 12.1737L87.1942 12.1869ZM86.8612 10.77L86.6788 10.846L86.6791 10.8467L86.8612 10.77ZM86.0111 9.57279L85.877 9.7179L85.8779 9.71874L86.0111 9.57279ZM84.5801 8.75103L84.5144 8.93737L84.5149 8.93753L84.5801 8.75103ZM79.0544 9.57279L79.183 9.72281L79.184 9.72192L79.0544 9.57279ZM78.1193 10.7629L78.2957 10.852L78.296 10.8513L78.1193 10.7629ZM77.6872 12.1869L77.4911 12.1628C77.4842 12.219 77.5017 12.2754 77.5392 12.3178C77.5767 12.3602 77.6306 12.3844 77.6872 12.3844V12.1869ZM87.265 16.9899L87.2066 16.8012C86.8121 16.9233 86.4464 17.0288 86.1095 17.1177L86.1599 17.3087L86.2103 17.4998C86.5534 17.4092 86.9245 17.3021 87.3234 17.1787L87.265 16.9899ZM86.1599 17.3087L86.112 17.1171C85.7773 17.2007 85.4478 17.268 85.1232 17.319L85.1539 17.5142L85.1846 17.7093C85.5213 17.6564 85.8623 17.5868 86.2078 17.5004L86.1599 17.3087ZM85.1539 17.5142L85.1205 17.3194C84.7967 17.3749 84.4657 17.4143 84.1274 17.4375L84.1409 17.6346L84.1544 17.8317C84.5056 17.8077 84.8499 17.7667 85.1873 17.7089L85.1539 17.5142ZM84.1409 17.6346L84.1245 17.4377C83.7909 17.4655 83.421 17.4795 83.0145 17.4795V17.6771V17.8747C83.4298 17.8747 83.8108 17.8604 84.1573 17.8315L84.1409 17.6346ZM83.0145 17.6771V17.4795C82.0763 17.4795 81.2339 17.3657 80.4856 17.1408L80.4288 17.33L80.3719 17.5192C81.1632 17.7571 82.0447 17.8747 83.0145 17.8747V17.6771ZM80.4288 17.33L80.4856 17.1408C79.7359 16.9154 79.1027 16.5953 78.582 16.1833L78.4594 16.3382L78.3368 16.4931C78.9023 16.9406 79.582 17.2817 80.3719 17.5192L80.4288 17.33ZM78.4594 16.3382L78.5834 16.1844C78.0676 15.7682 77.6707 15.2673 77.3909 14.6805L77.2125 14.7655L77.0342 14.8506C77.34 15.4917 77.7743 16.0392 78.3353 16.4919L78.4594 16.3382ZM77.2125 14.7655L77.3909 14.6805C77.1122 14.0962 76.9709 13.4363 76.9709 12.6969H76.7733H76.5758C76.5758 13.4877 76.7272 14.2069 77.0342 14.8506L77.2125 14.7655ZM76.7733 12.6969H76.9709C76.9709 11.9808 77.1053 11.3287 77.3714 10.7378L77.1913 10.6567L77.0112 10.5755C76.72 11.222 76.5758 11.9301 76.5758 12.6969H76.7733ZM77.1913 10.6567L77.3709 10.7389C77.6429 10.1452 78.0205 9.63654 78.5048 9.21116L78.3744 9.06273L78.244 8.9143C77.7175 9.37681 77.3065 9.93075 77.0117 10.5744L77.1913 10.6567ZM78.3744 9.06273L78.5048 9.21116C78.989 8.78573 79.5707 8.45309 80.253 8.21498L80.1879 8.02844L80.1228 7.8419C79.3977 8.09496 78.7704 8.45185 78.244 8.9143L78.3744 9.06273ZM80.1879 8.02844L80.253 8.21498C80.9331 7.97765 81.6876 7.85764 82.5186 7.85764V7.66006V7.46249C81.6494 7.46249 80.8501 7.58807 80.1228 7.8419L80.1879 8.02844ZM82.5186 7.66006V7.85764C83.3844 7.85764 84.1485 7.97342 84.8136 8.20119L84.8776 8.01427L84.9417 7.82736C84.2277 7.58285 83.4191 7.46249 82.5186 7.46249V7.66006ZM84.8776 8.01427L84.8136 8.20119C85.4804 8.42952 86.0363 8.75395 86.4858 9.17199L86.6203 9.02731L86.7549 8.88264C86.2598 8.42224 85.654 8.07131 84.9417 7.82736L84.8776 8.01427ZM86.6203 9.02731L86.4858 9.17199C86.9353 9.59006 87.2779 10.0985 87.5131 10.7003L87.6971 10.6283L87.8812 10.5564C87.6253 9.90191 87.2499 9.343 86.7549 8.88264L86.6203 9.02731ZM87.6971 10.6283L87.5133 10.7008C87.7484 11.2975 87.868 11.9761 87.868 12.7394H88.0655H88.2631C88.2631 11.9348 88.137 11.206 87.881 10.5559L87.6971 10.6283ZM88.0655 12.7394H87.868V12.959H88.0655H88.2631V12.7394H88.0655ZM88.0655 12.959V12.7615H77.6872V12.959V13.1566H88.0655V12.959ZM77.6872 12.959L77.4903 12.976C77.5443 13.6033 77.7016 14.1742 77.9649 14.6859L78.1406 14.5955L78.3163 14.5051C78.0789 14.0439 77.934 13.5238 77.884 12.9421L77.6872 12.959ZM78.1406 14.5955L77.9649 14.6859C78.2296 15.2004 78.6041 15.6366 79.0854 15.9939L79.2032 15.8352L79.321 15.6766C78.8861 15.3538 78.5521 14.9635 78.3163 14.5051L78.1406 14.5955ZM79.2032 15.8352L79.0862 15.9944C79.5721 16.3514 80.1619 16.6228 80.8511 16.8121L80.9034 16.6216L80.9557 16.431C80.3036 16.2519 79.7599 15.9991 79.3202 15.676L79.2032 15.8352ZM80.9034 16.6216L80.8527 16.8125C81.5485 16.9974 82.3526 17.0883 83.2624 17.0883V16.8908V16.6932C82.3777 16.6932 81.609 16.6046 80.9542 16.4306L80.9034 16.6216ZM83.2624 16.8908V17.0883C83.654 17.0883 84.0499 17.0617 84.4502 17.0087L84.4243 16.8128L84.3983 16.617C84.0146 16.6678 83.636 16.6932 83.2624 16.6932V16.8908ZM84.4243 16.8128L84.4502 17.0087C84.8483 16.9559 85.2303 16.8863 85.5962 16.7996L85.5506 16.6074L85.5051 16.4151C85.1531 16.4985 84.7842 16.5658 84.3983 16.617L84.4243 16.8128ZM85.5506 16.6074L85.5986 16.7991C85.9631 16.7079 86.2981 16.6068 86.6031 16.4954L86.5353 16.3099L86.4676 16.1243C86.1775 16.2302 85.856 16.3274 85.5027 16.4157L85.5506 16.6074ZM86.5353 16.3099L86.6057 16.4945C86.9106 16.3783 87.1664 16.2573 87.3697 16.1303L87.265 15.9627L87.1603 15.7952C86.9858 15.9043 86.7552 16.0147 86.465 16.1252L86.5353 16.3099ZM87.265 15.9627H87.0674V16.9899H87.265H87.4626V15.9627H87.265ZM87.1942 12.1869L87.3913 12.1737C87.3568 11.6564 87.2409 11.1626 87.0433 10.6934L86.8612 10.77L86.6791 10.8467C86.8593 11.2747 86.9654 11.7255 86.997 12.2L87.1942 12.1869ZM86.8612 10.77L87.0436 10.694C86.8431 10.2129 86.5425 9.79024 86.1443 9.42685L86.0111 9.57279L85.8779 9.71874C86.2354 10.0449 86.5015 10.4204 86.6788 10.846L86.8612 10.77ZM86.0111 9.57279L86.1452 9.42769C85.7485 9.0611 85.2465 8.77469 84.6453 8.56453L84.5801 8.75103L84.5149 8.93753C85.0755 9.13353 85.5275 9.39496 85.877 9.7179L86.0111 9.57279ZM84.5801 8.75103L84.6458 8.56469C84.0429 8.35222 83.3276 8.24884 82.5044 8.24884V8.44641V8.64398C83.2964 8.64398 83.9649 8.74368 84.5144 8.93737L84.5801 8.75103ZM82.5044 8.44641V8.24884C81.727 8.24884 81.0378 8.35259 80.4405 8.56486L80.5067 8.75103L80.5729 8.9372C81.1185 8.7433 81.7611 8.64398 82.5044 8.64398V8.44641ZM80.5067 8.75103L80.4405 8.56486C79.8493 8.77496 79.3428 9.06041 78.9248 9.42367L79.0544 9.57279L79.184 9.72192C79.5595 9.39566 80.0211 9.13326 80.5729 8.9372L80.5067 8.75103ZM79.0544 9.57279L78.9259 9.42279C78.5098 9.77943 78.1814 10.1969 77.9426 10.6746L78.1193 10.7629L78.296 10.8513C78.5106 10.4222 78.8057 10.0462 79.183 9.7228L79.0544 9.57279ZM78.1193 10.7629L77.943 10.6738C77.706 11.143 77.5553 11.6396 77.4911 12.1628L77.6872 12.1869L77.8833 12.2109C77.9419 11.7329 78.0793 11.2803 78.2957 10.852L78.1193 10.7629ZM77.6872 12.1869V12.3844H87.1942V12.1869V11.9893H77.6872V12.1869ZM101.086 14.2909L100.896 14.239L100.895 14.2403L101.086 14.2909ZM99.6765 16.4657L99.5594 16.3066L99.5583 16.3074L99.6765 16.4657ZM98.5501 17.0679L98.4826 16.8822L98.4819 16.8824L98.5501 17.0679ZM97.2041 17.4008L97.231 17.5966L97.2326 17.5963L97.2041 17.4008ZM90.6583 17.5H90.4608C90.4608 17.6091 90.5492 17.6976 90.6583 17.6976V17.5ZM90.6583 7.76633V7.56876C90.5492 7.56876 90.4608 7.65721 90.4608 7.76633H90.6583ZM99.6694 8.80062L99.5504 8.95833L99.5521 8.95956L99.6694 8.80062ZM100.852 10.2954L100.673 10.3771L100.673 10.3783L100.852 10.2954ZM99.7686 10.1679L99.6022 10.2744L99.603 10.2756L99.7686 10.1679ZM98.118 8.92105L98.0503 9.10667L98.0525 9.10745L98.118 8.92105ZM91.5439 8.57393V8.37635C91.4347 8.37635 91.3463 8.46481 91.3463 8.57393H91.5439ZM91.5439 16.6853H91.3463C91.3463 16.7944 91.4347 16.8829 91.5439 16.8829V16.6853ZM97.5725 16.5011L97.6137 16.6944L97.6152 16.694L97.5725 16.5011ZM99.0531 15.8494L99.1713 16.0077L99.1716 16.0074L99.0531 15.8494ZM100.024 14.6026L100.204 14.683L100.204 14.6824L100.024 14.6026ZM101.285 12.6261H101.087C101.087 13.2359 101.022 13.7729 100.896 14.239L101.086 14.2909L101.277 14.3427C101.415 13.8359 101.482 13.263 101.482 12.6261H101.285ZM101.086 14.2909L100.895 14.2403C100.772 14.7046 100.598 15.1047 100.376 15.4433L100.541 15.5518L100.706 15.6604C100.955 15.2811 101.145 14.8405 101.277 14.3414L101.086 14.2909ZM100.541 15.5518L100.376 15.4433C100.152 15.783 99.8802 16.0704 99.5594 16.3066L99.6765 16.4657L99.7936 16.6248C100.153 16.3604 100.457 16.0386 100.706 15.6604L100.541 15.5518ZM99.6765 16.4657L99.5583 16.3074C99.2393 16.5455 98.8811 16.7373 98.4826 16.8822L98.5501 17.0679L98.6176 17.2535C99.0503 17.0962 99.4431 16.8865 99.7947 16.624L99.6765 16.4657ZM98.5501 17.0679L98.4819 16.8824C98.0854 17.0283 97.6502 17.1362 97.1757 17.2053L97.2041 17.4008L97.2326 17.5963C97.731 17.5238 98.1931 17.4097 98.6183 17.2533L98.5501 17.0679ZM97.2041 17.4008L97.1773 17.2051C96.7052 17.2699 96.2066 17.3024 95.681 17.3024V17.5V17.6976C96.2228 17.6976 96.7395 17.664 97.231 17.5966L97.2041 17.4008ZM95.681 17.5V17.3024H90.6583V17.5V17.6976H95.681V17.5ZM90.6583 17.5H90.8559V7.76633H90.6583H90.4608V17.5H90.6583ZM90.6583 7.76633V7.9639H95.6669V7.76633V7.56876H90.6583V7.76633ZM95.6669 7.76633V7.9639C96.4522 7.9639 97.1788 8.04058 97.8475 8.19275L97.8913 8.00011L97.9351 7.80746C97.2341 7.64792 96.4778 7.56876 95.6669 7.56876V7.76633ZM97.8913 8.00011L97.8475 8.19275C98.5083 8.34315 99.0746 8.59924 99.5504 8.95832L99.6694 8.80062L99.7884 8.64292C99.263 8.24635 98.6439 7.96877 97.9351 7.80746L97.8913 8.00011ZM99.6694 8.80062L99.5521 8.95956C100.028 9.31091 100.402 9.78153 100.673 10.3771L100.852 10.2954L101.032 10.2136C100.736 9.56242 100.322 9.03653 99.7868 8.64167L99.6694 8.80062ZM100.852 10.2954L100.673 10.3783C100.946 10.9682 101.087 11.7147 101.087 12.6261H101.285H101.482C101.482 11.6767 101.335 10.8694 101.032 10.2125L100.852 10.2954ZM100.371 12.6261H100.568C100.568 12.0847 100.515 11.6001 100.406 11.1744L100.215 11.2234L100.023 11.2724C100.122 11.659 100.173 12.1096 100.173 12.6261H100.371ZM100.215 11.2234L100.406 11.1744C100.298 10.7511 100.141 10.3786 99.9342 10.0601L99.7686 10.1679L99.603 10.2756C99.783 10.5522 99.924 10.8834 100.023 11.2724L100.215 11.2234ZM99.7686 10.1679L99.935 10.0613C99.7287 9.73925 99.4758 9.4683 99.1766 9.25019L99.0602 9.40986L98.9438 9.56953C99.2018 9.75757 99.4213 9.99197 99.6022 10.2744L99.7686 10.1679ZM99.0602 9.40986L99.1766 9.25019C98.8812 9.03496 98.5498 8.86335 98.1835 8.73465L98.118 8.92105L98.0525 9.10745C98.3852 9.22433 98.6818 9.3786 98.9438 9.56953L99.0602 9.40986ZM98.118 8.92105L98.1857 8.73545C97.8209 8.60233 97.4261 8.50944 97.0022 8.45584L96.9774 8.65185L96.9526 8.84786C97.3505 8.89817 97.7161 8.98474 98.0503 9.10665L98.118 8.92105ZM96.9774 8.65185L97.0022 8.45584C96.5822 8.40274 96.137 8.37635 95.6669 8.37635V8.57393V8.7715C96.1224 8.7715 96.5509 8.79706 96.9526 8.84786L96.9774 8.65185ZM95.6669 8.57393V8.37635H91.5439V8.57393V8.7715H95.6669V8.57393ZM91.5439 8.57393H91.3463V16.6853H91.5439H91.7414V8.57393H91.5439ZM91.5439 16.6853V16.8829H95.6669V16.6853V16.4877H91.5439V16.6853ZM95.6669 16.6853V16.8829C96.3726 16.8829 97.0218 16.8205 97.6137 16.6944L97.5725 16.5011L97.5313 16.3079C96.9708 16.4273 96.3496 16.4877 95.6669 16.4877V16.6853ZM97.5725 16.5011L97.6152 16.694C98.2146 16.5614 98.7349 16.3338 99.1713 16.0077L99.0531 15.8494L98.9348 15.6911C98.5495 15.979 98.0827 16.1859 97.5298 16.3082L97.5725 16.5011ZM99.0531 15.8494L99.1716 16.0074C99.6167 15.6737 99.9603 15.2302 100.204 14.683L100.024 14.6026L99.8432 14.5222C99.6241 15.0139 99.3207 15.4017 98.9346 15.6913L99.0531 15.8494ZM100.024 14.6026L100.204 14.6824C100.45 14.1253 100.568 13.4371 100.568 12.6261H100.371H100.173C100.173 13.4019 100.06 14.0314 99.8429 14.5228L100.024 14.6026ZM104.027 17.5H103.829C103.829 17.6091 103.918 17.6976 104.027 17.6976V17.5ZM104.027 6.79428V6.59671C103.918 6.59671 103.829 6.68517 103.829 6.79428H104.027ZM105.001 6.79428H105.198C105.198 6.68517 105.11 6.59671 105.001 6.59671V6.79428ZM105.001 17.5V17.6976C105.11 17.6976 105.198 17.6091 105.198 17.5H105.001ZM104.027 17.5H104.224V6.79428H104.027H103.829V17.5H104.027ZM104.027 6.79428V6.99186H105.001V6.79428V6.59671H104.027V6.79428ZM105.001 6.79428H104.803V17.5H105.001H105.198V6.79428H105.001ZM105.001 17.5V17.3024H104.027V17.5V17.6976H105.001V17.5Z" fill="black" mask="url(#path-4-outside-1_2565_51802)"/>
<defs>
<linearGradient id="paint0_linear_2565_51802" x1="17.7012" y1="3.39136" x2="17.7012" y2="17.6321" gradientUnits="userSpaceOnUse">
<stop stop-color="#FEE300"/>
<stop offset="1" stop-color="white"/>
</linearGradient>
</defs>
</svg>
