<svg width="16" height="16" viewBox="0 0 16 16" fill="none" xmlns="http://www.w3.org/2000/svg">
<path d="M14.2197 0.219666C14.5126 -0.0732231 14.9874 -0.0732262 15.2803 0.219666C15.573 0.512573 15.5731 0.987384 15.2803 1.28021L8.81055 7.74994L15.2803 14.2197C15.5731 14.5126 15.5732 14.9873 15.2803 15.2802C14.9874 15.573 14.5126 15.573 14.2197 15.2802L7.75 8.81049L1.28027 15.2802C0.987446 15.573 0.512636 15.5729 0.219727 15.2802C-0.0731667 14.9873 -0.0731667 14.5126 0.219727 14.2197L6.68945 7.74994L0.219727 1.28021C-0.0731193 0.987367 -0.0730245 0.51257 0.219727 0.219666C0.51262 -0.0732277 0.98738 -0.0732277 1.28027 0.219666L7.75 6.68939L14.2197 0.219666Z" fill="#171714"/>
</svg>
