<svg width="24" height="24" viewBox="0 0 24 24" fill="none" xmlns="http://www.w3.org/2000/svg">
<path d="M18.8701 4.06946C19.1629 3.77684 19.6378 3.7769 19.9307 4.06946C20.2233 4.36238 20.2235 4.83818 19.9307 5.13098L13.0605 12.0001L19.9307 18.8693C20.2233 19.1622 20.2235 19.638 19.9307 19.9308C19.6379 20.2232 19.1629 20.2231 18.8701 19.9308L12 13.0607L5.12988 19.9308C4.83707 20.2236 4.36224 20.2234 4.06934 19.9308C3.77646 19.6379 3.77647 19.1631 4.06934 18.8702L10.9395 12.0001L4.06934 5.13C3.77647 4.83714 3.77653 4.36236 4.06934 4.06946C4.36222 3.77657 4.83699 3.77657 5.12988 4.06946L12 10.9386L18.8701 4.06946Z" fill="#171714"/>
</svg>
