<svg width="32" height="32" viewBox="0 0 32 32" fill="none" xmlns="http://www.w3.org/2000/svg">
<rect width="32" height="32" rx="8" fill="#C4ECFE"/>
<path d="M8 10C8 8.89543 8.89543 8 10 8H16H22C23.1046 8 24 8.89543 24 10V22C24 23.1046 23.1046 24 22 24H18C17.4477 24 17 23.5523 17 23V21C17 20.4477 16.5523 20 16 20C15.4477 20 15 20.4477 15 21V23C15 23.5523 14.5523 24 14 24H10C8.89543 24 8 23.1046 8 22V10Z" fill="white"/>
<path d="M7 9C7 8.44772 7.44772 8 8 8H11V13C11 13.5523 10.5523 14 10 14H8C7.44772 14 7 13.5523 7 13V9Z" fill="#006796"/>
<path d="M11 8H14V13C14 13.5523 13.5523 14 13 14H12C11.4477 14 11 13.5523 11 13V8Z" fill="#70D2FF"/>
<path d="M14 8H18V13C18 13.5523 17.5523 14 17 14H15C14.4477 14 14 13.5523 14 13V8Z" fill="#006796"/>
<path d="M18 8H21V13C21 13.5523 20.5523 14 20 14H19C18.4477 14 18 13.5523 18 13V8Z" fill="#70D2FF"/>
<path d="M21 8H24C24.5523 8 25 8.44772 25 9V13C25 13.5523 24.5523 14 24 14H22C21.4477 14 21 13.5523 21 13V8Z" fill="#006796"/>
</svg>
