<svg width="32" height="32" viewBox="0 0 32 32" fill="none" xmlns="http://www.w3.org/2000/svg">
<rect width="32" height="32" rx="8" fill="#FED5D5"/>
<path d="M9 20C9 18.8954 9.89543 18 11 18H16H21C22.1046 18 23 18.8954 23 20V22C23 22.5523 22.5523 23 22 23H21C20.4477 23 20 22.5523 20 22V21H12V22C12 22.5523 11.5523 23 11 23H10C9.44772 23 9 22.5523 9 22V20Z" fill="#171714"/>
<path d="M9.86073 9.8356C9.9411 9.35341 10.3583 9 10.8471 9H16H21.1529C21.6417 9 22.0589 9.35341 22.1393 9.8356L23 15H13H9L9.86073 9.8356Z" fill="#F2F2F2"/>
<path d="M8 15C8 14.4477 8.44772 14 9 14H16H23C23.5523 14 24 14.4477 24 15V20C24 20.5523 23.5523 21 23 21H22H10H9C8.44772 21 8 20.5523 8 20V15Z" fill="#B00C0C"/>
<path d="M10 9.5C10 9.22386 10.2239 9 10.5 9H16H21.5C21.7761 9 22 9.22386 22 9.5C22 9.77614 21.7761 10 21.5 10H20.5H11.5H10.5C10.2239 10 10 9.77614 10 9.5Z" fill="#B00C0C"/>
<circle cx="10" cy="18" r="1" fill="#FF8C8C"/>
<circle cx="22" cy="18" r="1" fill="#FF8C8C"/>
<rect x="14" y="19" width="4" height="1" rx="0.5" fill="#FF8C8C"/>
</svg>
