<svg width="19" height="13" viewBox="0 0 19 13" fill="none" xmlns="http://www.w3.org/2000/svg">
<path d="M9.51699 12.244C9.08592 12.244 8.82065 11.987 8.82065 11.5725C8.82065 11.4316 8.84552 11.2989 8.91184 11.1248L12.7997 0.75438C12.9821 0.248706 13.3303 1.32881e-05 13.8442 1.32881e-05C14.3748 1.32881e-05 14.7147 0.256995 14.9053 0.76267L18.7932 11.1166C18.8595 11.2906 18.8844 11.4233 18.8844 11.5642C18.8844 11.9787 18.6025 12.244 18.1632 12.244C17.7321 12.244 17.5166 12.0782 17.3591 11.6139L16.2897 8.68766H11.3988L10.3294 11.6139C10.1719 12.0782 9.94806 12.244 9.51699 12.244ZM11.805 7.42762H15.8752L13.8608 1.84863H13.8194L11.805 7.42762ZM0.688414 12.244C0.265637 12.244 0.000364851 11.9953 0.000364851 11.6139C0.000364851 11.4399 0.0252341 11.2741 0.091552 11.1166L2.66966 4.26923C2.86033 3.74698 3.2085 3.49828 3.6893 3.49828C4.1784 3.49828 4.52656 3.76356 4.71723 4.26923L7.29534 11.1166C7.36166 11.2906 7.40311 11.4481 7.40311 11.6139C7.40311 11.987 7.12125 12.244 6.70677 12.244C6.3586 12.244 6.13477 12.0865 6.00214 11.6637L5.31409 9.63269H2.0728L1.38475 11.6637C1.25212 12.0699 1.02829 12.244 0.688414 12.244ZM2.43755 8.55503H4.94934L3.78878 5.09821H3.59811L2.43755 8.55503Z" fill="#0A7AFF"/>
</svg>
