<svg width="25" height="12" viewBox="0 0 25 12" fill="none" xmlns="http://www.w3.org/2000/svg">
<path opacity="0.35" d="M2.66309 0.499023H19.3076C20.5026 0.499023 21.4717 1.46808 21.4717 2.66309V8.65527C21.4716 9.85024 20.5026 10.8193 19.3076 10.8193H2.66309C1.46812 10.8193 0.499095 9.85023 0.499023 8.65527V2.66309C0.499042 1.46809 1.46809 0.499042 2.66309 0.499023Z" stroke="black" stroke-width="0.99867"/>
<path opacity="0.4" d="M22.9697 3.66211V7.65679C23.7734 7.31846 24.296 6.53142 24.296 5.65945C24.296 4.78748 23.7734 4.00044 22.9697 3.66211Z" fill="black"/>
<path d="M1.99707 3.09591C1.99707 2.48921 2.4889 1.99738 3.09561 1.99738H18.8746C19.4813 1.99738 19.9731 2.48921 19.9731 3.09591V8.22242C19.9731 8.82912 19.4813 9.32096 18.8746 9.32096H3.09561C2.4889 9.32096 1.99707 8.82913 1.99707 8.22242V3.09591Z" fill="black"/>
</svg>
