<svg width="139" height="14" viewBox="0 0 139 14" fill="none" xmlns="http://www.w3.org/2000/svg">
<path d="M2.45328 13.0149L-0.000485122 3.9542H2.07195L3.58068 10.7601H3.72161L5.46246 3.9542H7.42713L9.18455 10.7601H9.32548L10.8259 3.9542H12.8735L10.4197 13.0149H8.2561L6.49038 6.44942H6.34946L4.59203 13.0149H2.45328ZM15.9872 13.0149L13.5334 3.9542H15.6058L17.1146 10.7601H17.2555L18.9964 3.9542H20.961L22.7184 10.7601H22.8594L24.3598 3.9542H26.4074L23.9536 13.0149H21.79L20.0243 6.44942H19.8834L18.1259 13.0149H15.9872ZM29.5211 13.0149L27.0673 3.9542H29.1397L30.6485 10.7601H30.7894L32.5302 3.9542H34.4949L36.2523 10.7601H36.3933L37.8937 3.9542H39.9413L37.4875 13.0149H35.3239L33.5582 6.44942H33.4172L31.6598 13.0149H29.5211ZM41.6706 13.1807C40.9162 13.1807 40.3525 12.6087 40.3525 11.8709C40.3525 11.1331 40.9162 10.5611 41.6706 10.5611C42.4332 10.5611 42.9886 11.1331 42.9886 11.8709C42.9886 12.6087 42.4332 13.1807 41.6706 13.1807ZM46.5583 13.0149L43.3336 3.9542H45.5386L47.6359 11.0005H47.7769L49.8576 3.9542H52.0295L48.8214 13.0149H46.5583ZM55.5162 13.1641C53.792 13.1641 52.5402 12.103 52.5402 10.4534V10.4368C52.5402 8.82028 53.7754 7.87525 55.9804 7.74262L58.3099 7.60169V6.82245C58.3099 5.91887 57.7213 5.42149 56.6105 5.42149C55.6654 5.42149 55.052 5.76137 54.8448 6.35823L54.8365 6.39139H52.8884L52.8967 6.31678C53.0956 4.79147 54.5546 3.78012 56.7099 3.78012C59.0394 3.78012 60.3491 4.90752 60.3491 6.82245V13.0149H58.3099V11.7714H58.1689C57.6716 12.6501 56.7099 13.1641 55.5162 13.1641ZM54.5795 10.3539C54.5795 11.1248 55.2344 11.5808 56.1462 11.5808C57.3897 11.5808 58.3099 10.7684 58.3099 9.69071V8.96121L56.2706 9.09384C55.1183 9.16845 54.5795 9.59123 54.5795 10.3373V10.3539ZM62.5012 13.0149V0.44764H64.5654V13.0149H62.5012ZM69.7681 13.1973C67.7288 13.1973 66.6843 11.9704 66.6843 9.81505V3.9542H68.7484V9.34254C68.7484 10.7435 69.2707 11.4564 70.5141 11.4564C71.8488 11.4564 72.5617 10.5943 72.5617 9.23477V3.9542H74.6259V13.0149H72.5617V11.6388H72.4208C71.998 12.6087 71.0778 13.1973 69.7681 13.1973ZM80.6161 13.1973C77.9219 13.1973 76.2888 11.3901 76.2888 8.50527V8.49698C76.2888 5.64531 77.9385 3.78012 80.5166 3.78012C83.0947 3.78012 84.6864 5.58728 84.6864 8.3229V9.00266H78.353C78.3779 10.6274 79.2566 11.5725 80.6575 11.5725C81.7767 11.5725 82.415 11.0088 82.6139 10.5943L82.6388 10.5363H84.6035L84.5786 10.6109C84.2884 11.7797 83.0781 13.1973 80.6161 13.1973ZM80.5415 5.39662C79.3892 5.39662 78.5271 6.17585 78.3696 7.61827H82.6719C82.531 6.1344 81.6938 5.39662 80.5415 5.39662ZM89.6072 13.1641C87.3358 13.1641 85.8934 11.3652 85.8934 8.49698V8.4804C85.8934 5.59557 87.3109 3.80499 89.6072 3.80499C90.8507 3.80499 91.8869 4.41843 92.3594 5.39662H92.5003V0.44764H94.5728V13.0149H92.5003V11.5973H92.3594C91.862 12.5838 90.8838 13.1641 89.6072 13.1641ZM90.2538 11.4233C91.6631 11.4233 92.5335 10.3124 92.5335 8.49698V8.4804C92.5335 6.66495 91.6548 5.54583 90.2538 5.54583C88.8528 5.54583 87.9907 6.65666 87.9907 8.4804V8.49698C87.9907 10.3207 88.8445 11.4233 90.2538 11.4233ZM97.8191 2.43718C97.1393 2.43718 96.5839 1.89835 96.5839 1.21859C96.5839 0.547117 97.1393 -5.73136e-06 97.8191 -5.73136e-06C98.4906 -5.73136e-06 99.046 0.547117 99.046 1.21859C99.046 1.89835 98.4906 2.43718 97.8191 2.43718ZM96.7829 13.0149V3.9542H98.847V13.0149H96.7829ZM102.508 13.1807C101.753 13.1807 101.19 12.6087 101.19 11.8709C101.19 11.1331 101.753 10.5611 102.508 10.5611C103.27 10.5611 103.826 11.1331 103.826 11.8709C103.826 12.6087 103.27 13.1807 102.508 13.1807ZM109.708 13.1973C106.981 13.1973 105.373 11.4316 105.373 8.47211V8.45553C105.373 5.52925 106.973 3.78012 109.7 3.78012C112.029 3.78012 113.422 5.07332 113.654 6.9468V6.97996H111.706L111.698 6.95509C111.507 6.07638 110.836 5.44636 109.708 5.44636C108.299 5.44636 107.47 6.55718 107.47 8.45553V8.47211C107.47 10.3953 108.307 11.5227 109.708 11.5227C110.778 11.5227 111.433 11.0336 111.69 10.0803L111.706 10.0472L113.654 10.0389L113.638 10.1052C113.339 11.9621 112.005 13.1973 109.708 13.1973ZM119.122 13.1973C116.403 13.1973 114.762 11.4233 114.762 8.48869V8.47211C114.762 5.56241 116.428 3.78012 119.122 3.78012C121.825 3.78012 123.483 5.55412 123.483 8.47211V8.48869C123.483 11.4233 121.833 13.1973 119.122 13.1973ZM119.122 11.5227C120.556 11.5227 121.369 10.4036 121.369 8.49698V8.4804C121.369 6.57376 120.548 5.44636 119.122 5.44636C117.688 5.44636 116.867 6.57376 116.867 8.4804V8.49698C116.867 10.4036 117.688 11.5227 119.122 11.5227ZM125.146 13.0149V3.9542H127.21V5.36346H127.351C127.74 4.35211 128.652 3.78012 129.838 3.78012C131.065 3.78012 131.96 4.41014 132.349 5.4132H132.49C132.93 4.42672 133.974 3.78012 135.234 3.78012C137.058 3.78012 138.152 4.89923 138.152 6.781V13.0149H136.088V7.28668C136.088 6.10954 135.549 5.51267 134.447 5.51267C133.369 5.51267 132.673 6.31678 132.673 7.353V13.0149H130.609V7.13746C130.609 6.1344 129.987 5.51267 128.975 5.51267C127.956 5.51267 127.21 6.37481 127.21 7.50221V13.0149H125.146Z" fill="black"/>
</svg>
