<svg width="10" height="14" viewBox="0 0 10 14" fill="none" xmlns="http://www.w3.org/2000/svg">
<path d="M1.61078 13.7561C0.545793 13.7561 -0.000354343 13.1963 -0.000354343 12.0426V7.10677C-0.000354343 6.08274 0.436564 5.52977 1.28992 5.42054V3.82306C1.28992 1.33809 2.94202 2.38968e-05 4.86719 2.38968e-05C6.78553 2.38968e-05 8.44446 1.33809 8.44446 3.82306V5.42054C9.29098 5.52977 9.7279 6.08957 9.7279 7.10677V12.0426C9.7279 13.1963 9.18175 13.7561 8.11677 13.7561H1.61078ZM2.71673 3.72066V5.40689H7.02447V3.72066C7.02447 2.21192 6.04141 1.36539 4.86719 1.36539C3.68614 1.36539 2.71673 2.21192 2.71673 3.72066Z" fill="black"/>
</svg>
