<svg width="17" height="11" viewBox="0 0 17 11" fill="none" xmlns="http://www.w3.org/2000/svg">
<path fill-rule="evenodd" clip-rule="evenodd" d="M15.9787 0H14.9801C14.4285 0 13.9814 0.44712 13.9814 0.99867V9.65381C13.9814 10.2054 14.4285 10.6525 14.9801 10.6525H15.9787C16.5303 10.6525 16.9774 10.2054 16.9774 9.65381V0.99867C16.9774 0.44712 16.5303 0 15.9787 0ZM10.3196 2.33023H11.3183C11.8698 2.33023 12.3169 2.77735 12.3169 3.3289V9.65381C12.3169 10.2054 11.8698 10.6525 11.3183 10.6525H10.3196C9.76804 10.6525 9.32092 10.2054 9.32092 9.65381V3.3289C9.32092 2.77735 9.76804 2.33023 10.3196 2.33023ZM6.6578 4.66046H5.65913C5.10758 4.66046 4.66046 5.10758 4.66046 5.65913V9.65381C4.66046 10.2054 5.10758 10.6525 5.65913 10.6525H6.6578C7.20935 10.6525 7.65647 10.2054 7.65647 9.65381V5.65913C7.65647 5.10758 7.20935 4.66046 6.6578 4.66046ZM1.99734 6.6578H0.99867C0.44712 6.6578 0 7.10492 0 7.65647V9.65381C0 10.2054 0.44712 10.6525 0.99867 10.6525H1.99734C2.54889 10.6525 2.99601 10.2054 2.99601 9.65381V7.65647C2.99601 7.10492 2.54889 6.6578 1.99734 6.6578Z" fill="black"/>
</svg>
