<svg width="15" height="18" viewBox="0 0 15 18" fill="none" xmlns="http://www.w3.org/2000/svg">
<path d="M0.000469413 10.528C0.000469413 6.48257 3.27492 3.20812 7.32031 3.20812C7.82599 3.20812 8.32337 3.26615 8.74615 3.34905L6.54937 1.15227C6.42502 1.01963 6.36699 0.853835 6.36699 0.679751C6.36699 0.298423 6.64884 -8.24779e-06 7.01359 -8.24779e-06C7.22084 -8.24779e-06 7.37834 0.0663097 7.50269 0.198946L10.9098 3.66406C11.0507 3.79669 11.1253 3.97907 11.1253 4.16144C11.1253 4.35211 11.059 4.5179 10.9098 4.65883L7.4944 8.09078C7.37005 8.20684 7.22084 8.28145 7.01359 8.28145C6.64884 8.28145 6.36699 7.99959 6.36699 7.61827C6.36699 7.44418 6.41673 7.2701 6.55766 7.14575L9.028 4.69199C8.5389 4.57593 7.95862 4.53448 7.32031 4.53448C4.01271 4.53448 1.33512 7.21207 1.33512 10.5197C1.33512 13.8273 4.01271 16.5049 7.32031 16.5049C10.6279 16.5049 13.3055 13.8273 13.3055 10.5197C13.3055 10.1218 13.5625 9.83163 13.9521 9.83163C14.3583 9.83163 14.6402 10.1218 14.6402 10.528C14.6402 14.5734 11.3657 17.8478 7.32031 17.8478C3.27492 17.8478 0.000469413 14.5734 0.000469413 10.528Z" fill="#0A7AFF"/>
</svg>
