<svg width="28" height="12" viewBox="0 0 28 12" fill="none" xmlns="http://www.w3.org/2000/svg">
<path d="M3.92042 8.25152e-07C6.17328 8.25152e-07 8.13356 1.60187 8.13356 5.4054V5.42003C8.13356 8.97487 6.53169 11.0814 3.87654 11.0814C1.9382 11.0814 0.489932 9.93306 0.153466 8.31656L0.138837 8.2361H1.99671L2.01866 8.30925C2.29661 9.04801 2.9476 9.53077 3.87654 9.53077C5.55155 9.53077 6.26106 7.89232 6.34151 5.87353C6.34151 5.79307 6.34883 5.71261 6.34883 5.63215H6.20254C5.81487 6.466 4.89325 7.20476 3.44498 7.20476C1.41887 7.20476 -0.000138318 5.72724 -0.000138318 3.72307V3.70844C-0.000138318 1.5653 1.63099 8.25152e-07 3.92042 8.25152e-07ZM3.91311 5.7565C5.10537 5.7565 6.01968 4.89339 6.01968 3.70113V3.6865C6.01968 2.47961 5.10537 1.53604 3.93505 1.53604C2.77205 1.53604 1.84311 2.46498 1.84311 3.64261V3.65724C1.84311 4.87876 2.71353 5.7565 3.91311 5.7565ZM10.955 3.97908C10.2894 3.97908 9.792 3.46706 9.792 2.82339C9.792 2.1724 10.2894 1.6677 10.955 1.6677C11.6279 1.6677 12.118 2.1724 12.118 2.82339C12.118 3.46706 11.6279 3.97908 10.955 3.97908ZM10.955 9.40642C10.2894 9.40642 9.792 8.90172 9.792 8.25073C9.792 7.59974 10.2894 7.09505 10.955 7.09505C11.6279 7.09505 12.118 7.59974 12.118 8.25073C12.118 8.90172 11.6279 9.40642 10.955 9.40642ZM18.8966 10.8181V8.792H13.7326V7.24865C15.1004 4.87144 16.5998 2.44304 18.0335 0.263322H20.7033V7.23402H22.1223V8.792H20.7033V10.8181H18.8966ZM15.488 7.27791H18.9258V1.7701H18.8161C17.7336 3.42318 16.5121 5.37614 15.488 7.16819V7.27791ZM25.997 10.8181V2.1212H25.8726L23.2467 3.97908V2.20166L26.0043 0.263322H27.8841V10.8181H25.997Z" fill="black"/>
</svg>
