<svg width="16" height="11" viewBox="0 0 16 11" fill="none" xmlns="http://www.w3.org/2000/svg">
<path fill-rule="evenodd" clip-rule="evenodd" d="M7.62645 2.2743C9.8394 2.2744 11.9677 3.1247 13.5715 4.64947C13.6923 4.76719 13.8853 4.7657 14.0043 4.64614L15.1588 3.48103C15.219 3.42038 15.2526 3.33824 15.2521 3.25277C15.2516 3.16731 15.217 3.08556 15.1561 3.02563C10.9466 -1.00854 4.30564 -1.00854 0.0961445 3.02563C0.0351671 3.08552 0.000569242 3.16724 6.96151e-06 3.25271C-0.000555319 3.33817 0.0329643 3.42034 0.0931485 3.48103L1.24794 4.64614C1.36681 4.76588 1.56 4.76737 1.6807 4.64947C3.28472 3.1246 5.41329 2.27429 7.62645 2.2743ZM7.62645 6.06492C8.84232 6.06484 10.0148 6.51677 10.9161 7.3329C11.038 7.44872 11.23 7.44621 11.3488 7.32724L12.502 6.16212C12.5627 6.10101 12.5964 6.0181 12.5955 5.93195C12.5946 5.8458 12.5593 5.7636 12.4973 5.70373C9.75276 3.15075 5.50248 3.15075 2.75793 5.70373C2.69594 5.7636 2.66057 5.84584 2.65975 5.93202C2.65894 6.0182 2.69275 6.1011 2.75361 6.16212L3.9064 7.32724C4.02523 7.44621 4.21726 7.44872 4.33916 7.3329C5.23983 6.51731 6.41138 6.06542 7.62645 6.06492ZM9.93637 8.61534C9.93813 8.70173 9.90417 8.78502 9.8425 8.84555L7.84782 10.8585C7.78935 10.9177 7.70963 10.951 7.62645 10.951C7.54327 10.951 7.46355 10.9177 7.40508 10.8585L5.41007 8.84555C5.34844 8.78498 5.31454 8.70166 5.31636 8.61527C5.31819 8.52888 5.35559 8.44707 5.41972 8.38916C6.6936 7.31171 8.5593 7.31171 9.83318 8.38916C9.89727 8.44711 9.93461 8.52895 9.93637 8.61534Z" fill="black"/>
</svg>
