<svg width="12" height="11" viewBox="0 0 12 11" fill="none" xmlns="http://www.w3.org/2000/svg">
<rect y="1" width="12" height="10" rx="2" fill="#999999"/>
<path d="M10 4H2" stroke="white" stroke-linecap="round"/>
<path d="M3 0C3.27614 0 3.5 0.223858 3.5 0.5V2.5C3.5 2.77614 3.27614 3 3 3C2.72386 3 2.5 2.77614 2.5 2.5V0.5C2.5 0.223858 2.72386 0 3 0ZM9 0C9.27614 0 9.5 0.223858 9.5 0.5V2.5C9.5 2.77614 9.27614 3 9 3C8.72386 3 8.5 2.77614 8.5 2.5V0.5C8.5 0.223858 8.72386 0 9 0Z" fill="#999999"/>
</svg>
