<svg width="32" height="32" viewBox="0 0 32 32" fill="none" xmlns="http://www.w3.org/2000/svg">
<rect width="32" height="32" rx="8" fill="#B5F4FF"/>
<path d="M22.4914 18.5H9.5086C8.61564 18.5 7.83087 17.908 7.58555 17.0494L7.13941 15.4879C7.04792 15.1677 7.03784 14.8297 7.11008 14.5046L7.65517 12.0517C7.85665 11.1451 8.66081 10.5 9.58959 10.5C9.85237 10.5 10.1044 10.3956 10.2902 10.2098L10.5 10C10.8201 9.67986 11.2544 9.5 11.7071 9.5H11.8944C12.2893 9.5 12.6753 9.38312 13.0038 9.1641L13.0343 9.14381C13.6315 8.74569 14.3962 8.69808 15.0381 9.01906L15.5528 9.27639C15.8343 9.41716 16.1657 9.41716 16.4472 9.27639L16.9619 9.01906C17.6038 8.69808 18.3685 8.74569 18.9657 9.14381L18.9962 9.1641C19.3247 9.38312 19.7107 9.5 20.1056 9.5H20.2929C20.7456 9.5 21.1799 9.67986 21.5 10L21.7098 10.2098C21.8956 10.3956 22.1476 10.5 22.4104 10.5C23.3392 10.5 24.1434 11.1451 24.3448 12.0517L24.8899 14.5046C24.9622 14.8297 24.9521 15.1677 24.8606 15.4879L24.4144 17.0494C24.1691 17.908 23.3844 18.5 22.4914 18.5Z" fill="white"/>
<path d="M25 18.5V15.1751C25 14.7908 24.711 14.4679 24.3291 14.4255C18.7934 13.8104 13.2066 13.8104 7.67094 14.4255C7.28897 14.4679 7 14.7908 7 15.1751V18.5C7 20.7091 8.79086 22.5 11 22.5C11 23.0523 11.4477 23.5 12 23.5H16H20C20.5523 23.5 21 23.0523 21 22.5C23.2091 22.5 25 20.7091 25 18.5Z" fill="#008DCF"/>
</svg>
