<svg width="32" height="32" viewBox="0 0 32 32" fill="none" xmlns="http://www.w3.org/2000/svg">
<rect width="32" height="32" rx="8" fill="#F2F2F2"/>
<path d="M7.68742 8.40663C7.87005 7.58475 8.59902 7 9.44094 7H10.3447C11.3592 7 12.2866 7.57318 12.7403 8.48057C12.8893 8.77862 13.2348 8.92173 13.5509 8.81635L14.1026 8.63246C15.3342 8.22192 16.6658 8.22192 17.8974 8.63246L18.4491 8.81635C18.7652 8.92173 19.1107 8.77862 19.2597 8.48057C19.7134 7.57318 20.6408 7 21.6553 7H22.5591C23.401 7 24.1299 7.58475 24.3126 8.40663L24.3793 8.70675C25.4518 13.533 25.6865 18.5077 25.0733 23.4135C25.0291 23.767 24.7722 24.057 24.4265 24.1434L23.1017 24.4746C21.9691 24.7577 20.8358 24.0147 20.6438 22.8631L20.1781 20.0685C20.0821 19.4927 19.5154 19.1211 18.9491 19.2627L17.4552 19.6362C16.4998 19.8751 15.5002 19.8751 14.5448 19.6362L13.0509 19.2627C12.4846 19.1211 11.9179 19.4927 11.8219 20.0685L11.3562 22.8631C11.1642 24.0147 10.0309 24.7577 8.89829 24.4746L7.57345 24.1434C7.22783 24.057 6.97087 23.767 6.92668 23.4135C6.31346 18.5077 6.54823 13.533 7.62072 8.70675L7.68742 8.40663Z" fill="#CCCCCC"/>
<circle cx="20" cy="11" r="1" fill="#666666"/>
<circle cx="22" cy="13" r="1" fill="#FF4242"/>
<circle cx="18" cy="13" r="1" fill="#787878"/>
<circle cx="20" cy="15" r="1" fill="#787878"/>
<rect x="11" y="10" width="2" height="6" rx="1" fill="#999999"/>
<rect x="15" y="12" width="2" height="6" rx="1" transform="rotate(90 15 12)" fill="#999999"/>
</svg>
