<svg width="32" height="32" viewBox="0 0 32 32" fill="none" xmlns="http://www.w3.org/2000/svg">
<rect x="2.5" y="2.5" width="27" height="27" rx="13.5" stroke="#E0E0E0"/>
<path d="M16 10C16.2549 10 16.4619 10.207 16.4619 10.4619V15.5381H21.5381C21.793 15.5381 22 15.7451 22 16C22 16.2549 21.793 16.4619 21.5381 16.4619H16.4619V21.5381C16.4619 21.793 16.2549 22 16 22C15.7451 22 15.5381 21.793 15.5381 21.5381V16.4619H10.4619C10.207 16.4619 10 16.2549 10 16C10 15.7451 10.207 15.5381 10.4619 15.5381H15.5381V10.4619C15.5381 10.207 15.7451 10 16 10Z" fill="#171714"/>
</svg>
