<svg width="32" height="32" viewBox="0 0 32 32" fill="none" xmlns="http://www.w3.org/2000/svg">
<rect width="32" height="32" rx="8" fill="#FED9C4"/>
<path d="M14.4297 7.5H17.5703C18.3778 7.50008 19.0404 8.13934 19.0693 8.94629L19.4268 18.9463C19.4571 19.795 18.7769 20.4998 17.9277 20.5H14.0723C13.2231 20.4998 12.5429 19.795 12.5732 18.9463L12.9307 8.94629C12.9596 8.13934 13.6222 7.50008 14.4297 7.5Z" stroke="#FF7B2E"/>
<path d="M8.86732 12.8575C8.94208 11.8109 9.81296 11 10.8622 11H21.1378C22.187 11 23.0579 11.8109 23.1327 12.8575L23.847 22.8575C23.9297 24.0152 23.0127 25 21.852 25H10.148C8.98727 25 8.07034 24.0152 8.15304 22.8575L8.86732 12.8575Z" fill="#F55A00"/>
<rect x="13" y="13" width="6" height="1" rx="0.5" fill="white"/>
</svg>
