<svg width="12" height="12" viewBox="0 0 12 12" fill="none" xmlns="http://www.w3.org/2000/svg">
<path d="M9.52638 0.232115C9.83587 -0.0773716 10.3376 -0.0773718 10.6471 0.232115L11.7679 1.35287C12.0774 1.66235 12.0774 2.16413 11.7679 2.47362L2.47362 11.7679C2.325 11.9165 2.12342 12 1.91324 12H0.79249C0.35481 12 0 11.6452 0 11.2075V10.0868C0 9.87658 0.0834943 9.675 0.232115 9.52638L9.52638 0.232115Z" fill="#999999"/>
<path d="M6 11.5C6 11.2239 6.22386 11 6.5 11H11.5C11.7761 11 12 11.2239 12 11.5C12 11.7761 11.7761 12 11.5 12H6.5C6.22386 12 6 11.7761 6 11.5Z" fill="#999999"/>
</svg>
