<svg width="112" height="112" viewBox="0 0 112 112" fill="none" xmlns="http://www.w3.org/2000/svg">
<rect width="112" height="112" rx="8" fill="#FED9C4"/>
<g filter="url(#filter0_ii_6194_22814)">
<path d="M78.5536 26.167C82.9318 25.1324 86.8676 29.0682 85.833 33.4464L80.8318 54.6085C80.6156 55.5236 80.6156 56.4764 80.8318 57.3915L85.833 78.5536C86.8676 82.9318 82.9318 86.8676 78.5536 85.833L57.3915 80.8318C56.4764 80.6156 55.5236 80.6156 54.6085 80.8318L33.4464 85.833C29.0682 86.8676 25.1324 82.9318 26.167 78.5536L31.1682 57.3915C31.3844 56.4764 31.3844 55.5236 31.1682 54.6085L26.167 33.4464C25.1324 29.0682 29.0682 25.1324 33.4464 26.167L54.6085 31.1682C55.5236 31.3844 56.4764 31.3844 57.3915 31.1682L78.5536 26.167Z" fill="#FF7B2E"/>
</g>
<circle cx="49" cy="64" r="3" fill="#171714"/>
<circle cx="64" cy="64" r="3" fill="#171714"/>
<defs>
<filter id="filter0_ii_6194_22814" x="24" y="24" width="64" height="64" filterUnits="userSpaceOnUse" color-interpolation-filters="sRGB">
<feFlood flood-opacity="0" result="BackgroundImageFix"/>
<feBlend mode="normal" in="SourceGraphic" in2="BackgroundImageFix" result="shape"/>
<feColorMatrix in="SourceAlpha" type="matrix" values="0 0 0 0 0 0 0 0 0 0 0 0 0 0 0 0 0 0 127 0" result="hardAlpha"/>
<feOffset dx="2" dy="2"/>
<feGaussianBlur stdDeviation="2"/>
<feComposite in2="hardAlpha" operator="arithmetic" k2="-1" k3="1"/>
<feColorMatrix type="matrix" values="0 0 0 0 0.996414 0 0 0 0 0.906773 0 0 0 0 0.103586 0 0 0 0.3 0"/>
<feBlend mode="luminosity" in2="shape" result="effect1_innerShadow_6194_22814"/>
<feColorMatrix in="SourceAlpha" type="matrix" values="0 0 0 0 0 0 0 0 0 0 0 0 0 0 0 0 0 0 127 0" result="hardAlpha"/>
<feOffset dx="-2" dy="-2"/>
<feGaussianBlur stdDeviation="2"/>
<feComposite in2="hardAlpha" operator="arithmetic" k2="-1" k3="1"/>
<feColorMatrix type="matrix" values="0 0 0 0 0.996414 0 0 0 0 0.906773 0 0 0 0 0.103586 0 0 0 0.3 0"/>
<feBlend mode="luminosity" in2="effect1_innerShadow_6194_22814" result="effect2_innerShadow_6194_22814"/>
</filter>
</defs>
</svg>
