<svg width="112" height="112" viewBox="0 0 112 112" fill="none" xmlns="http://www.w3.org/2000/svg">
<rect width="112" height="112" rx="8" fill="#F2D6FF"/>
<g filter="url(#filter0_ii_6194_22799)">
<path d="M67 25C78.0457 25 87 33.9543 87 45C87 49.064 85.7866 52.844 83.7041 56C85.7866 59.156 87 62.936 87 67C87 78.0457 78.0457 87 67 87H45C33.9543 87 25 78.0457 25 67C25 62.9362 26.2126 59.1559 28.2949 56C26.2126 52.8441 25 49.0638 25 45C25 33.9543 33.9543 25 45 25H67Z" fill="#D478FF"/>
</g>
<circle cx="49" cy="66" r="3" fill="#171714"/>
<circle cx="64" cy="66" r="3" fill="#171714"/>
<defs>
<filter id="filter0_ii_6194_22799" x="23" y="23" width="66" height="66" filterUnits="userSpaceOnUse" color-interpolation-filters="sRGB">
<feFlood flood-opacity="0" result="BackgroundImageFix"/>
<feBlend mode="normal" in="SourceGraphic" in2="BackgroundImageFix" result="shape"/>
<feColorMatrix in="SourceAlpha" type="matrix" values="0 0 0 0 0 0 0 0 0 0 0 0 0 0 0 0 0 0 127 0" result="hardAlpha"/>
<feOffset dx="2" dy="2"/>
<feGaussianBlur stdDeviation="2"/>
<feComposite in2="hardAlpha" operator="arithmetic" k2="-1" k3="1"/>
<feColorMatrix type="matrix" values="0 0 0 0 1 0 0 0 0 1 0 0 0 0 1 0 0 0 0.3 0"/>
<feBlend mode="luminosity" in2="shape" result="effect1_innerShadow_6194_22799"/>
<feColorMatrix in="SourceAlpha" type="matrix" values="0 0 0 0 0 0 0 0 0 0 0 0 0 0 0 0 0 0 127 0" result="hardAlpha"/>
<feOffset dx="-2" dy="-2"/>
<feGaussianBlur stdDeviation="2"/>
<feComposite in2="hardAlpha" operator="arithmetic" k2="-1" k3="1"/>
<feColorMatrix type="matrix" values="0 0 0 0 1 0 0 0 0 1 0 0 0 0 1 0 0 0 0.3 0"/>
<feBlend mode="luminosity" in2="effect1_innerShadow_6194_22799" result="effect2_innerShadow_6194_22799"/>
</filter>
</defs>
</svg>
