<svg width="24" height="24" viewBox="0 0 24 24" fill="none" xmlns="http://www.w3.org/2000/svg">
<path d="M4 6.03776C4 5.36291 4.46928 4.77884 5.12829 4.63347C6.99018 4.22275 8.93567 4.44032 10.6608 5.25216L11.2517 5.53022C11.7256 5.75324 12.2744 5.75324 12.7483 5.53022L13.3392 5.25216C15.0643 4.44032 17.0098 4.22275 18.8717 4.63347C19.5307 4.77884 20 5.36291 20 6.03776V17.4502C20 18.246 19.2637 18.8376 18.4866 18.6662C16.8744 18.3105 15.1898 18.4989 13.696 19.2019L12.7483 19.6479C12.2744 19.8709 11.7256 19.8709 11.2517 19.6479L10.304 19.2019C8.81018 18.4989 7.12561 18.3105 5.51342 18.6662C4.73629 18.8376 4 18.246 4 17.4502V6.03776Z" fill="white"/>
</svg>
