<svg width="40" height="40" viewBox="0 0 40 40" fill="none" xmlns="http://www.w3.org/2000/svg">
<rect x="4" y="4" width="32" height="32" rx="8" fill="#E0E0E0"/>
<path d="M12 14.0378C12 13.3629 12.4693 12.7788 13.1283 12.6335C14.9902 12.2228 16.9357 12.4403 18.6608 13.2522L19.2517 13.5302C19.7256 13.7532 20.2744 13.7532 20.7483 13.5302L21.3392 13.2522C23.0643 12.4403 25.0098 12.2228 26.8717 12.6335C27.5307 12.7788 28 13.3629 28 14.0378V25.4502C28 26.246 27.2637 26.8376 26.4866 26.6662C24.8744 26.3105 23.1898 26.4989 21.696 27.2019L20.7483 27.6479C20.2744 27.8709 19.7256 27.8709 19.2517 27.6479L18.304 27.2019C16.8102 26.4989 15.1256 26.3105 13.5134 26.6662C12.7363 26.8376 12 26.246 12 25.4502V14.0378Z" fill="white"/>
</svg>
