<svg width="24" height="24" viewBox="0 0 24 24" fill="none" xmlns="http://www.w3.org/2000/svg">
<path d="M17.6016 4.01904C19.9563 3.78357 22 5.63303 22 7.99951V15.5796C22 17.7886 20.1699 19.5794 17.9609 19.5796C16.2158 19.5796 14.6427 18.4478 14.1172 16.7837L13.9072 16.1187C13.3186 14.2553 10.6814 14.2553 10.0928 16.1187L9.88281 16.7837C9.3573 18.4478 7.78418 19.5796 6.03906 19.5796C3.83013 19.5794 2.00001 17.7886 2 15.5796V7.99951C2.00001 5.63303 4.0437 3.78357 6.39844 4.01904L11.2041 4.49951C11.7334 4.55244 12.2666 4.55244 12.7959 4.49951L17.6016 4.01904ZM6.5 7.57959C6.22386 7.57959 6 7.80345 6 8.07959V9.57959H4.5C4.22386 9.57959 4 9.80345 4 10.0796C4.00001 10.3557 4.22386 10.5796 4.5 10.5796H6V12.0796C6.00001 12.3557 6.22386 12.5796 6.5 12.5796C6.77614 12.5796 6.99999 12.3557 7 12.0796V10.5796H8.5C8.77614 10.5796 8.99999 10.3557 9 10.0796C9 9.80345 8.77614 9.57959 8.5 9.57959H7V8.07959C7 7.80345 6.77614 7.57959 6.5 7.57959ZM17.5 10.5796C17.224 10.5797 17 10.8035 17 11.0796V12.0796C17 12.3556 17.224 12.5795 17.5 12.5796C17.7761 12.5796 18 12.3557 18 12.0796V11.0796C18 10.8034 17.7761 10.5796 17.5 10.5796ZM15.5 9.57959C15.2239 9.57959 15 9.80345 15 10.0796C15 10.3557 15.2239 10.5796 15.5 10.5796H16.5C16.7761 10.5796 17 10.3557 17 10.0796C17 9.80345 16.7761 9.57959 16.5 9.57959H15.5ZM18.5 9.57959C18.2239 9.57959 18 9.80345 18 10.0796C18 10.3557 18.2239 10.5796 18.5 10.5796H19.5C19.7761 10.5796 20 10.3557 20 10.0796C20 9.80345 19.7761 9.57959 19.5 9.57959H18.5ZM17.5 7.57959C17.224 7.57972 17 7.80353 17 8.07959V9.07959C17 9.35564 17.224 9.57946 17.5 9.57959C17.7761 9.57959 18 9.35572 18 9.07959V8.07959C18 7.80345 17.7761 7.57959 17.5 7.57959Z" fill="white"/>
</svg>
