<svg width="40" height="40" viewBox="0 0 40 40" fill="none" xmlns="http://www.w3.org/2000/svg">
<rect x="4" y="4" width="32" height="32" rx="8" fill="#E0E0E0"/>
<path d="M25.6016 12.0195C27.9562 11.7841 29.9998 13.6327 30 15.999V23.5791C30 25.7881 28.1699 27.5789 25.9609 27.5791C24.2159 27.5791 22.6428 26.4481 22.1172 24.7842L21.9072 24.1191C21.3187 22.2555 18.6813 22.2555 18.0928 24.1191L17.8828 24.7842C17.3572 26.4481 15.7841 27.5791 14.0391 27.5791C11.8301 27.5789 10 25.7881 10 23.5791V15.999C10.0002 13.6327 12.0438 11.7841 14.3984 12.0195L19.2041 12.5C19.7334 12.5529 20.2666 12.5529 20.7959 12.5L25.6016 12.0195ZM14.5 15.5791C14.2239 15.5791 14.0001 15.8031 14 16.0791V17.5791H12.5C12.2239 17.5791 12.0001 17.8031 12 18.0791C12 18.3552 12.2239 18.5791 12.5 18.5791H14V20.0791C14 20.3552 14.2239 20.5791 14.5 20.5791C14.7761 20.5791 15 20.3552 15 20.0791V18.5791H16.5C16.7761 18.5791 17 18.3552 17 18.0791C16.9999 17.8031 16.7761 17.5791 16.5 17.5791H15V16.0791C14.9999 15.8031 14.7761 15.5791 14.5 15.5791ZM25.5 18.5791C25.2241 18.5792 25.0001 18.8032 25 19.0791V20.0791C25 20.3552 25.224 20.579 25.5 20.5791C25.7761 20.5791 26 20.3552 26 20.0791V19.0791C25.9999 18.8031 25.7761 18.5791 25.5 18.5791ZM23.5 17.5791C23.2239 17.5791 23.0001 17.8031 23 18.0791C23 18.3552 23.2239 18.5791 23.5 18.5791H24.5C24.7761 18.5791 25 18.3552 25 18.0791C24.9999 17.8031 24.7761 17.5791 24.5 17.5791H23.5ZM26.5 17.5791C26.2239 17.5791 26.0001 17.8031 26 18.0791C26 18.3552 26.2239 18.5791 26.5 18.5791H27.5C27.7761 18.5791 28 18.3552 28 18.0791C27.9999 17.8031 27.7761 17.5791 27.5 17.5791H26.5ZM25.5 15.5791C25.2241 15.5792 25.0001 15.8032 25 16.0791V17.0791C25 17.3552 25.224 17.579 25.5 17.5791C25.7761 17.5791 26 17.3552 26 17.0791V16.0791C25.9999 15.8031 25.7761 15.5791 25.5 15.5791Z" fill="white"/>
</svg>
