<svg width="40" height="40" viewBox="0 0 40 40" fill="none" xmlns="http://www.w3.org/2000/svg">
<rect x="4" y="4" width="32" height="32" rx="8" fill="#E0E0E0"/>
<path d="M16 12C16 11.4477 16.4477 11 17 11C17.5523 11 18 11.4477 18 12V28C18 28.5523 17.5523 29 17 29C16.4477 29 16 28.5523 16 28V12Z" fill="white"/>
<path d="M16 12C16 11.4477 16.4477 11 17 11H17.7639C17.9192 11 18.0723 11.0361 18.2111 11.1056L27.2111 15.6056C27.9482 15.9741 27.9482 17.0259 27.2111 17.3944L18 22H17C16.4477 22 16 21.5523 16 21V12Z" fill="white"/>
</svg>
