<svg width="40" height="40" viewBox="0 0 40 40" fill="none" xmlns="http://www.w3.org/2000/svg">
<rect x="4" y="4" width="32" height="32" rx="8" fill="#E0E0E0"/>
<path d="M18.9718 11.7085C19.4382 10.9335 20.5618 10.9335 21.0282 11.7085L23.0295 15.0339C23.197 15.3123 23.4703 15.5109 23.7869 15.5842L27.568 16.4599C28.4492 16.664 28.7964 17.7326 28.2034 18.4156L25.6592 21.3466C25.4462 21.592 25.3418 21.9132 25.3699 22.237L25.7054 26.1036C25.7837 27.0048 24.8747 27.6652 24.0418 27.3123L20.4681 25.7983C20.1689 25.6716 19.8311 25.6716 19.5319 25.7983L15.9582 27.3123C15.1253 27.6652 14.2163 27.0048 14.2946 26.1036L14.6301 22.237C14.6582 21.9132 14.5538 21.592 14.3408 21.3466L11.7966 18.4156C11.2036 17.7326 11.5508 16.664 12.432 16.4599L16.2131 15.5842C16.5297 15.5109 16.803 15.3123 16.9705 15.0339L18.9718 11.7085Z" fill="white"/>
</svg>
