<svg width="40" height="40" viewBox="0 0 40 40" fill="none" xmlns="http://www.w3.org/2000/svg">
<rect x="4" y="4" width="32" height="32" rx="8" fill="#E0E0E0"/>
<path d="M21.7524 11.1722C21.7502 11.096 21.6671 11.0464 21.6016 11.0855C18.1363 13.1558 18.2004 18.3491 18.2418 19.2901C18.2449 19.3611 18.1778 19.4112 18.1135 19.3809C17.7132 19.1924 16.5661 18.4823 16.5027 16.5153C16.5003 16.439 16.4179 16.3899 16.3522 16.4288C14.3458 17.618 13 19.8144 13 22.25C13 25.9779 16.134 29 20 29C23.866 29 27 25.9779 27 22.25C27 16.8341 21.8803 15.6694 21.7524 11.1722Z" fill="white"/>
</svg>
