<svg width="24" height="24" viewBox="0 0 24 24" fill="none" xmlns="http://www.w3.org/2000/svg">
<path d="M10.9718 3.70847C11.4382 2.93348 12.5618 2.93348 13.0282 3.70847L15.0295 7.03392C15.197 7.31233 15.4703 7.51089 15.7869 7.58421L19.568 8.45993C20.4492 8.66401 20.7964 9.73257 20.2034 10.4156L17.6592 13.3466C17.4462 13.592 17.3418 13.9132 17.3699 14.237L17.7054 18.1036C17.7837 19.0048 16.8747 19.6652 16.0418 19.3123L12.4681 17.7983C12.1689 17.6716 11.8311 17.6716 11.5319 17.7983L7.95817 19.3123C7.12532 19.6652 6.21635 19.0048 6.29455 18.1036L6.63013 14.237C6.65822 13.9132 6.55383 13.592 6.34082 13.3466L3.79656 10.4156C3.20363 9.73258 3.55083 8.66401 4.432 8.45993L8.21313 7.58421C8.52969 7.51089 8.80299 7.31233 8.97054 7.03392L10.9718 3.70847Z" fill="white"/>
</svg>
