<svg width="24" height="24" viewBox="0 0 24 24" fill="none" xmlns="http://www.w3.org/2000/svg">
<path d="M7.75391 3C8.47708 3 9.09878 3.51347 9.23535 4.22363L11.2715 14.8115C11.3898 15.4281 10.917 16 10.2891 16H8.72266L8.94336 19.9736C8.97431 20.5308 8.53061 20.9998 7.97266 21C7.4357 21 7 20.5643 7 20.0273V3.76074C7 3.73453 7.00132 3.70815 7.00391 3.68262C7.03995 3.29976 7.36165 3.00012 7.75391 3ZM16 3C17.6569 3 19 4.34315 19 6V8.33301C19 9.77971 17.8479 10.9539 16.4111 10.9951L16.9414 20.002C16.9731 20.5434 16.5424 21 16 21C15.4576 21 15.0269 20.5434 15.0586 20.002L15.5879 10.9951C14.1516 10.9534 13 9.77938 13 8.33301V6C13 4.34315 14.3431 3 16 3Z" fill="white"/>
</svg>
