<svg width="40" height="40" viewBox="0 0 40 40" fill="none" xmlns="http://www.w3.org/2000/svg">
<rect x="4" y="4" width="32" height="32" rx="8" fill="#E0E0E0"/>
<path d="M15.7539 11C16.4771 11 17.0988 11.5135 17.2354 12.2236L19.2715 22.8115C19.3898 23.4281 18.917 24 18.2891 24H16.7227L16.9434 27.9736C16.9743 28.5308 16.5306 28.9998 15.9727 29C15.4357 29 15 28.5643 15 28.0273V11.7607C15 11.7345 15.0013 11.7081 15.0039 11.6826C15.04 11.2998 15.3617 11.0001 15.7539 11ZM24 11C25.6569 11 27 12.3431 27 14V16.333C27 17.7797 25.8479 18.9539 24.4111 18.9951L24.9414 28.002C24.9731 28.5434 24.5424 29 24 29C23.4576 29 23.0269 28.5434 23.0586 28.002L23.5879 18.9951C22.1516 18.9534 21 17.7794 21 16.333V14C21 12.3431 22.3431 11 24 11Z" fill="white"/>
</svg>
