<svg width="40" height="40" viewBox="0 0 40 40" fill="none" xmlns="http://www.w3.org/2000/svg">
<rect x="4" y="4" width="32" height="32" rx="8" fill="#E0E0E0"/>
<path d="M20 10C25.5228 10 30 14.4772 30 20C30 25.5228 25.5228 30 20 30C14.4772 30 10 25.5228 10 20C10 14.4772 14.4772 10 20 10ZM24.3164 16.0518C23.7926 15.8771 23.2265 16.1598 23.0518 16.6836L22.2793 19H21.7207L20.9482 16.6836C20.812 16.2754 20.4303 16 20 16C19.6234 16 19.2835 16.2108 19.1133 16.5371L19.0518 16.6836L18.2793 19H17.7207L16.9482 16.6836C16.7735 16.1598 16.2074 15.8771 15.6836 16.0518C15.1598 16.2265 14.8771 16.7926 15.0518 17.3164L15.6133 19H15C14.4477 19 14 19.4477 14 20C14 20.5523 14.4477 21 15 21H16.2793L17.0518 23.3164C17.188 23.7246 17.5697 24 18 24C18.4303 24 18.812 23.7246 18.9482 23.3164L19.7207 21H20.2793L21.0518 23.3164C21.188 23.7246 21.5697 24 22 24C22.4303 24 22.812 23.7246 22.9482 23.3164L23.7207 21H25C25.5523 21 26 20.5523 26 20C26 19.4477 25.5523 19 25 19H24.3867L24.9482 17.3164C25.1229 16.7926 24.8402 16.2265 24.3164 16.0518Z" fill="white"/>
</svg>
