<svg width="24" height="24" viewBox="0 0 24 24" fill="none" xmlns="http://www.w3.org/2000/svg">
<path d="M12 2C17.5228 2 22 6.47715 22 12C22 17.5228 17.5228 22 12 22C6.47715 22 2 17.5228 2 12C2 6.47715 6.47715 2 12 2ZM16.3164 8.05176C15.7926 7.87714 15.2265 8.15984 15.0518 8.68359L14.2793 11H13.7207L12.9482 8.68359C12.812 8.27541 12.4303 8 12 8C11.6234 8 11.2835 8.2108 11.1133 8.53711L11.0518 8.68359L10.2793 11H9.7207L8.94824 8.68359C8.77348 8.15984 8.20744 7.87714 7.68359 8.05176C7.15984 8.22652 6.87714 8.79256 7.05176 9.31641L7.61328 11H7C6.44772 11 6 11.4477 6 12C6 12.5523 6.44772 13 7 13H8.2793L9.05176 15.3164C9.18796 15.7246 9.56967 16 10 16C10.4303 16 10.812 15.7246 10.9482 15.3164L11.7207 13H12.2793L13.0518 15.3164C13.188 15.7246 13.5697 16 14 16C14.4303 16 14.812 15.7246 14.9482 15.3164L15.7207 13H17C17.5523 13 18 12.5523 18 12C18 11.4477 17.5523 11 17 11H16.3867L16.9482 9.31641C17.1229 8.79256 16.8402 8.22652 16.3164 8.05176Z" fill="white"/>
</svg>
