<svg width="40" height="40" viewBox="0 0 40 40" fill="none" xmlns="http://www.w3.org/2000/svg">
<rect x="4" y="4" width="32" height="32" rx="8" fill="#E0E0E0"/>
<path d="M19.8521 10C21.5088 10.0001 22.8521 11.3432 22.8521 13V15H24.981C26.0337 15.0002 26.906 15.8167 26.9761 16.8672L27.7095 27.8672C27.7863 29.0213 26.871 29.9998 25.7144 30H13.9897C12.8331 29.9998 11.9169 29.0213 11.9937 27.8672L12.7271 16.8672C12.7971 15.8167 13.6704 15.0002 14.7231 15H16.8521V13C16.8521 11.3433 18.1954 10.0002 19.8521 10ZM16.3521 18C16.0759 18 15.8521 18.2239 15.8521 18.5C15.8521 18.7761 16.0759 19 16.3521 19H23.3521C23.6282 19 23.8521 18.7761 23.8521 18.5C23.8521 18.2239 23.6282 18 23.3521 18H16.3521ZM19.8521 11C18.7476 11.0002 17.8521 11.8955 17.8521 13V15H21.8521V13C21.8521 11.8955 20.9565 11.0001 19.8521 11Z" fill="white"/>
</svg>
