<svg width="24" height="24" viewBox="0 0 24 24" fill="none" xmlns="http://www.w3.org/2000/svg">
<path d="M11.8516 2C13.5084 2 14.8516 3.34315 14.8516 5V7H16.9805C18.0334 7 18.9065 7.8166 18.9766 8.86719L19.71 19.8672C19.7868 21.0214 18.8707 22 17.7139 22H5.98926C4.83275 21.9996 3.91734 21.0212 3.99414 19.8672L4.72754 8.86719C4.79756 7.81681 5.67002 7.00033 6.72266 7H8.85156V5C8.85156 3.34338 10.195 2.00038 11.8516 2ZM8.35254 10C8.0764 10 7.85254 10.2239 7.85254 10.5C7.85254 10.7761 8.0764 11 8.35254 11H15.3525C15.6285 10.9998 15.8525 10.776 15.8525 10.5C15.8525 10.224 15.6285 10.0002 15.3525 10H8.35254ZM11.8516 3C10.7473 3.00038 9.85156 3.89567 9.85156 5V7H13.8516V5C13.8516 3.89543 12.9561 3 11.8516 3Z" fill="white"/>
</svg>
