<svg width="40" height="40" viewBox="0 0 40 40" fill="none" xmlns="http://www.w3.org/2000/svg">
<rect x="4" y="4" width="32" height="32" rx="8" fill="#E0E0E0"/>
<path d="M27 12C27.5523 12 28 12.4477 28 13V14.1045C28 15.3041 27.4616 16.4405 26.5332 17.2002L24.4512 18.9023L27.0605 24.1221C27.6213 25.2437 27.4014 26.5986 26.5146 27.4854C26.2303 27.7693 25.7697 27.7693 25.4854 27.4854L20.2998 22.2998L18 24.1816V26.5303C17.9998 27.3419 17.3419 27.9998 16.5303 28C16.2139 28 15.9321 27.7972 15.832 27.4971L15 25L12.5029 24.168C12.2028 24.0679 12 23.7861 12 23.4697C12.0002 22.6581 12.6581 22.0002 13.4697 22H15.8184L17.6992 19.6992L12.5146 14.5146C12.2307 14.2303 12.2307 13.7697 12.5146 13.4854C13.4014 12.5986 14.7563 12.3787 15.8779 12.9395L21.0967 15.5479L22.7998 13.4668C23.5595 12.5384 24.6959 12 25.8955 12H27Z" fill="white"/>
</svg>
