<svg width="24" height="24" viewBox="0 0 24 24" fill="none" xmlns="http://www.w3.org/2000/svg">
<path d="M19 4C19.5523 4 20 4.44772 20 5V6.10449C20 7.30413 19.4616 8.44048 18.5332 9.2002L16.4512 10.9023L19.0605 16.1221C19.6213 17.2437 19.4014 18.5986 18.5146 19.4854C18.2303 19.7693 17.7697 19.7693 17.4854 19.4854L12.2998 14.2998L10 16.1816V18.5303C9.99976 19.3419 9.34187 19.9998 8.53027 20C8.21387 20 7.93209 19.7972 7.83203 19.4971L7 17L4.50293 16.168C4.20276 16.0679 4 15.7861 4 15.4697C4.00024 14.6581 4.65813 14.0002 5.46973 14H7.81836L9.69922 11.6992L4.51465 6.51465C4.23074 6.23029 4.23074 5.76971 4.51465 5.48535C5.40139 4.59861 6.75625 4.37872 7.87793 4.93945L13.0967 7.54785L14.7998 5.4668C15.5595 4.53838 16.6959 4 17.8955 4H19Z" fill="white"/>
</svg>
