<svg width="32" height="32" viewBox="0 0 32 32" fill="none" xmlns="http://www.w3.org/2000/svg">
<rect width="32" height="32" rx="8" fill="#DEFAFF"/>
<path d="M7 12C7 10.8954 7.89543 10 9 10H11V9C11 8.44772 11.4477 8 12 8C12.5523 8 13 8.44772 13 9V10H19V9C19 8.44772 19.4477 8 20 8C20.5523 8 21 8.44772 21 9V10H23C24.1046 10 25 10.8954 25 12V22C25 23.1046 24.1046 24 23 24H9C7.89543 24 7 23.1046 7 22V12Z" fill="#008DCF"/>
<path d="M20 17H12" stroke="white" stroke-linecap="round"/>
<path d="M20 20H12" stroke="white" stroke-linecap="round"/>
<path d="M20 14H12" stroke="white" stroke-linecap="round"/>
</svg>
