<svg width="24" height="24" viewBox="0 0 24 24" fill="none" xmlns="http://www.w3.org/2000/svg">
<path d="M3 10.0704C3 9.40166 3.3342 8.7772 3.8906 8.40627L10.8906 3.7396C11.5624 3.29173 12.4376 3.29173 13.1094 3.7396L20.1094 8.40627C20.6658 8.7772 21 9.40166 21 10.0704V11.6667C21 11.8508 20.8508 12 20.6667 12C20.2985 12 20 12.2985 20 12.6667V20C20 20.5523 19.5523 21 19 21H18C17.4477 21 17 20.5523 17 20V13C17 12.4477 16.5523 12 16 12H14.5C13.9477 12 13.5 12.4477 13.5 13V20C13.5 20.5523 13.0523 21 12.5 21H11.5C10.9477 21 10.5 20.5523 10.5 20V13C10.5 12.4477 10.0523 12 9.5 12H8C7.44772 12 7 12.4477 7 13V20C7 20.5523 6.55228 21 6 21H5C4.44772 21 4 20.5523 4 20V12.6667C4 12.2985 3.70152 12 3.33333 12C3.14924 12 3 11.8508 3 11.6667V10.0704Z" fill="#8793C4"/>
<rect x="3" y="18" width="18" height="3" rx="1" fill="#8793C4"/>
<circle cx="12" cy="8" r="2" fill="#C8D1F5"/>
</svg>
