<svg width="32" height="32" viewBox="0 0 32 32" fill="none" xmlns="http://www.w3.org/2000/svg">
<rect opacity="0.65" width="32" height="32" rx="8" fill="#C0C9F1"/>
<g clip-path="url(#clip0_4242_9561)">
<path d="M12.4246 14.9224C12.0658 14.9224 11.7335 15.0462 11.4897 15.2714L11.4058 15.3487V13.5959H10.4502V16.5922C10.4502 17.7102 11.1358 18.4047 12.2392 18.4047C13.3425 18.4047 14.1012 17.6739 14.1012 16.6672C14.1012 15.6604 13.3963 14.9229 12.4251 14.9229H12.4246V14.9224ZM12.2717 17.5522C11.7699 17.5522 11.3615 17.1539 11.3615 16.6649C11.3615 16.1759 11.7699 15.7774 12.2717 15.7774C12.7735 15.7774 13.182 16.1757 13.182 16.6649C13.182 17.1542 12.7735 17.5522 12.2717 17.5522Z" fill="#0114A7"/>
<path d="M8.85821 13.5952L6.96692 15.7347V13.5952H6V18.2947H6.96692V16.1742L8.89667 18.2947H10.1397L8.00462 15.9447L10.0818 13.5952H8.85821Z" fill="#0114A7"/>
<path d="M25.9997 15.0325H24.9351L23.7118 16.4417V13.5952H22.7559V18.2955H23.7118V16.8865L24.9351 18.2955H25.9997L24.5833 16.6637L25.9997 15.0325Z" fill="#0114A7"/>
<path d="M20.8828 14.9225C20.2928 14.9225 19.9287 15.1915 19.7546 15.3802V15.0337H18.832V18.2952H19.7882V16.519C19.7882 16.075 20.1054 15.765 20.5018 15.765C20.8982 15.765 21.2159 16.075 21.2159 16.519V18.2952H22.1715V16.2395C22.1715 15.4762 21.6038 14.9225 20.8828 14.9225Z" fill="#0114A7"/>
<path d="M16.3919 14.9225C15.3244 14.9225 14.5498 15.6562 14.5498 16.6667C14.5498 17.6772 15.2639 18.4047 16.2472 18.4047C16.9462 18.4047 17.3201 17.9112 17.3234 17.9065L17.3778 17.8332V18.2955H18.2472V16.6667C18.2472 15.656 17.4667 14.9225 16.3919 14.9225ZM16.4208 17.5522C15.919 17.5522 15.5106 17.154 15.5106 16.665C15.5106 16.176 15.919 15.7775 16.4208 15.7775C16.9226 15.7775 17.3311 16.1757 17.3311 16.665C17.3311 17.1542 16.9226 17.5522 16.4208 17.5522Z" fill="#0114A7"/>
</g>
<defs>
<clipPath id="clip0_4242_9561">
<rect width="20" height="6" fill="white" transform="translate(6 13)"/>
</clipPath>
</defs>
</svg>
