<svg width="38" height="38" viewBox="0 0 38 38" fill="none" xmlns="http://www.w3.org/2000/svg">
<path d="M7 12.5C7 11.3954 7.89543 10.5 9 10.5H11V9.5C11 8.94772 11.4477 8.5 12 8.5H13C13.5523 8.5 14 8.94772 14 9.5V10.5H24V9.5C24 8.94772 24.4477 8.5 25 8.5H26C26.5523 8.5 27 8.94772 27 9.5V10.5H29C30.1046 10.5 31 11.3954 31 12.5V27.5C31 28.6046 30.1046 29.5 29 29.5H9C7.89543 29.5 7 28.6046 7 27.5V12.5Z" fill="#70D2FF"/>
<path d="M24 9.5C24 8.94772 24.4477 8.5 25 8.5H26C26.5523 8.5 27 8.94772 27 9.5V10.5H24V9.5Z" fill="#006796"/>
<path d="M11 9.5C11 8.94772 11.4477 8.5 12 8.5H13C13.5523 8.5 14 8.94772 14 9.5V10.5H11V9.5Z" fill="#006796"/>
<path d="M11 14C11 13.4477 11.4477 13 12 13H26C26.5523 13 27 13.4477 27 14V15C27 15.5523 26.5523 16 26 16H12C11.4477 16 11 15.5523 11 15V14Z" fill="#006796"/>
<path d="M11 22.5C11 21.9477 11.4477 21.5 12 21.5H26C26.5523 21.5 27 21.9477 27 22.5C27 23.0523 26.5523 23.5 26 23.5H12C11.4477 23.5 11 23.0523 11 22.5Z" fill="#E5F6FE"/>
<path d="M11 19.5C11 18.9477 11.4477 18.5 12 18.5H26C26.5523 18.5 27 18.9477 27 19.5C27 20.0523 26.5523 20.5 26 20.5H12C11.4477 20.5 11 20.0523 11 19.5Z" fill="#E5F6FE"/>
<path d="M11 25.5C11 24.9477 11.4477 24.5 12 24.5H26C26.5523 24.5 27 24.9477 27 25.5C27 26.0523 26.5523 26.5 26 26.5H12C11.4477 26.5 11 26.0523 11 25.5Z" fill="#E5F6FE"/>
</svg>
