<svg width="38" height="38" viewBox="0 0 38 38" fill="none" xmlns="http://www.w3.org/2000/svg">
<path d="M10 30L26 30C26.5523 30 27 29.5523 27 29L27 17.7333L27 11.6L27 8C27 7.44772 26.5523 7 26 7L10 7C9.44772 7 9 7.44771 9 8L9 29C9 29.5523 9.44772 30 10 30Z" fill="#9EC5FF"/>
<path d="M24 11H12" stroke="white" stroke-linecap="round"/>
<path d="M24 16H12" stroke="white" stroke-linecap="round"/>
<path d="M24 21H12" stroke="white" stroke-linecap="round"/>
<path d="M24 26H12" stroke="white" stroke-linecap="round"/>
<path d="M27.5 22.5C27.2239 22.2239 27.2239 21.7761 27.5 21.5C27.7761 21.2239 28.2239 21.2239 28.5 21.5L34.5 27.5C34.7761 27.7761 34.7761 28.2239 34.5 28.5C34.2239 28.7761 33.7761 28.7761 33.5 28.5L27.5 22.5Z" fill="#69A5FF"/>
<path d="M25 12C21.134 12 18 15.134 18 19C18 22.866 21.134 26 25 26C28.866 26 32 22.866 32 19C32 15.134 28.866 12 25 12Z" fill="#3385FF"/>
<path d="M25 14C22.2386 14 20 16.2386 20 19C20 21.7614 22.2386 24 25 24C27.7614 24 30 21.7614 30 19C30 16.2386 27.7614 14 25 14Z" fill="#EAF2FE"/>
<path d="M30.5204 26.6938C30.2218 26.2957 30.2614 25.7386 30.6133 25.3867L31.3867 24.6133C31.7386 24.2614 32.2957 24.2218 32.6938 24.5204L35.0776 26.3082C35.5644 26.6733 35.615 27.385 35.1847 27.8153L33.8153 29.1847C33.385 29.615 32.6733 29.5644 32.3082 29.0776L30.5204 26.6938Z" fill="#3385FF"/>
</svg>
