<svg width="18" height="18" viewBox="0 0 18 18" fill="none" xmlns="http://www.w3.org/2000/svg">
<path d="M10.1982 0C10.6668 0.00019158 11.0722 0.3258 11.1738 0.783203L11.6025 2.71484L13.2734 1.65234C13.6688 1.40087 14.1852 1.4577 14.5166 1.78906L16.2109 3.48242C16.5423 3.81381 16.5992 4.33115 16.3477 4.72656L15.2842 6.39648L17.2168 6.82617C17.6742 6.92782 17.9998 7.33323 18 7.80176V10.1982C17.9998 10.6668 17.6742 11.0722 17.2168 11.1738L15.2852 11.6025L16.3477 13.2725C16.5993 13.6679 16.5424 14.1852 16.2109 14.5166L14.5166 16.2109C14.1852 16.542 13.6687 16.5981 13.2734 16.3467L11.6025 15.2832L11.1738 17.2168C11.0722 17.6742 10.6668 17.9998 10.1982 18H7.80176C7.33323 17.9998 6.92782 17.6742 6.82617 17.2168L6.39551 15.2842L4.72656 16.3467C4.3313 16.5981 3.8148 16.542 3.4834 16.2109L1.78906 14.5166C1.45764 14.1852 1.40071 13.6679 1.65234 13.2725L2.71387 11.6025L0.783203 11.1738C0.325801 11.0722 0.000192001 10.6668 0 10.1982V7.80176C0.000191159 7.33323 0.3258 6.92782 0.783203 6.82617L2.71484 6.39551L1.65234 4.72656C1.4008 4.33115 1.45768 3.81381 1.78906 3.48242L3.4834 1.78906C3.81476 1.4577 4.33117 1.40087 4.72656 1.65234L6.39648 2.71484L6.82617 0.783203C6.92782 0.3258 7.33323 0.00019158 7.80176 0H10.1982Z" fill="#999999"/>
<circle cx="9" cy="9" r="3" fill="white"/>
</svg>
