<svg width="18" height="18" viewBox="0 0 18 18" fill="none" xmlns="http://www.w3.org/2000/svg">
<path d="M0 7.07037C0 6.40166 0.334202 5.7772 0.8906 5.40627L7.8906 0.7396C8.5624 0.291734 9.4376 0.291734 10.1094 0.7396L17.1094 5.40627C17.6658 5.7772 18 6.40166 18 7.07037V8.66667C18 8.85076 17.8508 9 17.6667 9C17.2985 9 17 9.29848 17 9.66667V17C17 17.5523 16.5523 18 16 18H15C14.4477 18 14 17.5523 14 17V10C14 9.44771 13.5523 9 13 9H11.5C10.9477 9 10.5 9.44771 10.5 10V17C10.5 17.5523 10.0523 18 9.5 18H8.5C7.94772 18 7.5 17.5523 7.5 17V10C7.5 9.44771 7.05228 9 6.5 9H5C4.44772 9 4 9.44771 4 10V17C4 17.5523 3.55228 18 3 18H2C1.44772 18 1 17.5523 1 17V9.66667C1 9.29848 0.701523 9 0.333333 9C0.149238 9 0 8.85076 0 8.66667V7.07037Z" fill="#8793C4"/>
<rect y="15" width="18" height="3" rx="1" fill="#8793C4"/>
<circle cx="9" cy="5" r="2" fill="#C8D1F5"/>
</svg>
