<svg width="14" height="16" viewBox="0 0 14 16" fill="none" xmlns="http://www.w3.org/2000/svg">
<path d="M1 2H13L12.1327 14.1425C12.0579 15.1891 11.187 16 10.1378 16H3.86224C2.81296 16 1.94208 15.1891 1.86732 14.1425L1 2Z" fill="white"/>
<path d="M0 2.5C0 2.22386 0.223858 2 0.5 2H13.5C13.7761 2 14 2.22386 14 2.5C14 2.77614 13.7761 3 13.5 3H0.5C0.223857 3 0 2.77614 0 2.5Z" fill="#225200"/>
<path d="M1 8C1 7.44772 1.44772 7 2 7H12C12.5523 7 13 7.44772 13 8V12C13 12.5523 12.5523 13 12 13H2C1.44772 13 1 12.5523 1 12V8Z" fill="#429E00"/>
<path d="M1 2C1 0.895431 1.89543 0 3 0H11C12.1046 0 13 0.895431 13 2H1Z" fill="#225200"/>
</svg>
