<svg width="18" height="15" viewBox="0 0 18 15" fill="none" xmlns="http://www.w3.org/2000/svg">
<path d="M15.4914 10H2.5086C1.61564 10 0.83087 9.40804 0.585555 8.54944L0.139409 6.98793C0.0479191 6.66772 0.0378389 6.32973 0.110083 6.00463L0.655169 3.55174C0.856649 2.64508 1.66081 2 2.58959 2C2.85237 2 3.10439 1.89561 3.2902 1.7098L3.5 1.5C3.82014 1.17986 4.25435 1 4.70711 1H4.89445C5.2893 1 5.67531 0.883124 6.00385 0.664101L6.03429 0.64381C6.63146 0.245694 7.39617 0.198085 8.03811 0.519056L8.55279 0.776393C8.83431 0.917157 9.16569 0.917157 9.44721 0.776393L9.96189 0.519056C10.6038 0.198085 11.3685 0.245694 11.9657 0.64381L11.9962 0.664101C12.3247 0.883124 12.7107 1 13.1056 1H13.2929C13.7456 1 14.1799 1.17986 14.5 1.5L14.7098 1.7098C14.8956 1.89561 15.1476 2 15.4104 2C16.3392 2 17.1434 2.64508 17.3448 3.55174L17.8899 6.00463C17.9622 6.32973 17.9521 6.66772 17.8606 6.98793L17.4144 8.54944C17.1691 9.40805 16.3844 10 15.4914 10Z" fill="white"/>
<path d="M18 10V6.67507C18 6.29075 17.711 5.96789 17.3291 5.92545C11.7934 5.31038 6.20661 5.31038 0.670938 5.92545C0.288972 5.96789 0 6.29075 0 6.67507V10C0 12.2091 1.79086 14 4 14C4 14.5523 4.44772 15 5 15H9H13C13.5523 15 14 14.5523 14 14C16.2091 14 18 12.2091 18 10Z" fill="#008DCF"/>
</svg>
