<svg width="16" height="18" viewBox="0 0 16 18" fill="none" xmlns="http://www.w3.org/2000/svg">
<path d="M2 2C2 0.895431 2.89543 0 4 0H14C15.1046 0 16 0.895431 16 2V16C16 17.1046 15.1046 18 14 18H4C2.89543 18 2 17.1046 2 16V14C0.895431 14 0 13.1046 0 12V9V6C0 4.89543 0.895431 4 2 4V2Z" fill="#FEE500"/>
<path d="M2 3C2 3.55228 2.44772 4 3 4H4.76393C4.91918 4 5.07229 4.03615 5.21115 4.10557L6.55279 4.77639C6.83431 4.91716 7.16569 4.91716 7.44721 4.77639L8.55279 4.22361C8.83431 4.08284 9.16569 4.08284 9.44721 4.22361L10.5528 4.77639C10.8343 4.91716 11.1657 4.91716 11.4472 4.77639L12.6295 4.18524C12.8667 4.06663 13.1414 4.04712 13.393 4.13099L14.6838 4.56126C15.3313 4.7771 16 4.29513 16 3.61257V2C16 0.895431 15.1046 0 14 0H4C2.89543 0 2 0.895431 2 2V3Z" fill="white"/>
<rect x="13" y="7" width="7" height="1" rx="0.5" transform="rotate(90 13 7)" fill="#D1BD00"/>
<rect x="10" y="7" width="7" height="1" rx="0.5" transform="rotate(90 10 7)" fill="#D1BD00"/>
<rect x="7" y="7" width="7" height="1" rx="0.5" transform="rotate(90 7 7)" fill="#D1BD00"/>
<path d="M2 5L2 13C1.44771 13 1 12.5523 1 12L1 6C1 5.44772 1.44772 5 2 5Z" fill="#D1BD00"/>
</svg>
