<svg width="20" height="18" viewBox="0 0 20 18" fill="none" xmlns="http://www.w3.org/2000/svg">
<path d="M1.68742 1.40663C1.87005 0.584753 2.59902 0 3.44094 0H4.34467C5.35917 0 6.28659 0.57318 6.74029 1.48057C6.88931 1.77862 7.23481 1.92173 7.55094 1.81635L8.10263 1.63246C9.33423 1.22192 10.6658 1.22192 11.8974 1.63246L12.4491 1.81635C12.7652 1.92173 13.1107 1.77862 13.2597 1.48057C13.7134 0.57318 14.6408 0 15.6553 0H16.5591C17.401 0 18.1299 0.584754 18.3126 1.40663L18.3793 1.70675C19.4518 6.53298 19.6865 11.5077 19.0733 16.4135C19.0291 16.767 18.7722 17.057 18.4265 17.1434L17.1017 17.4746C15.9691 17.7577 14.8358 17.0147 14.6438 15.8631L14.1781 13.0685C14.0821 12.4927 13.5154 12.1211 12.9491 12.2627L11.4552 12.6362C10.4998 12.8751 9.50023 12.8751 8.54479 12.6362L7.05085 12.2627C6.48456 12.1211 5.91789 12.4927 5.82192 13.0685L5.35615 15.8631C5.16422 17.0147 4.03088 17.7577 2.89829 17.4746L1.57345 17.1434C1.22783 17.057 0.970872 16.767 0.926683 16.4135C0.31346 11.5077 0.548226 6.53298 1.62072 1.70675L1.68742 1.40663Z" fill="#CCCCCC"/>
<circle cx="14" cy="4" r="1" fill="#666666"/>
<circle cx="16" cy="6" r="1" fill="#FF4242"/>
<circle cx="12" cy="6" r="1" fill="#787878"/>
<circle cx="14" cy="8" r="1" fill="#787878"/>
<rect x="5" y="3" width="2" height="6" rx="1" fill="#999999"/>
<rect x="9" y="5" width="2" height="6" rx="1" transform="rotate(90 9 5)" fill="#999999"/>
</svg>
