<svg width="18" height="18" viewBox="0 0 18 18" fill="none" xmlns="http://www.w3.org/2000/svg">
<path d="M1 6.1085C1 5.41892 1.35524 4.77798 1.94 4.4125L7.94 0.662498C8.58854 0.25716 9.41146 0.257161 10.06 0.662499L16.06 4.4125C16.6448 4.77798 17 5.41892 17 6.1085V16C17 17.1046 16.1046 18 15 18H11C10.4477 18 10 17.5523 10 17V15C10 14.4477 9.55229 14 9 14C8.44772 14 8 14.4477 8 15V17C8 17.5523 7.55228 18 7 18H3C1.89543 18 1 17.1046 1 16V6.1085Z" fill="white"/>
<path d="M0 5.51436C0 5.19689 0.172114 4.90438 0.449629 4.75021L8.02871 0.539604C8.63276 0.204023 9.36724 0.204023 9.97129 0.539603L17.5504 4.75021C17.8279 4.90438 18 5.19689 18 5.51436C18 6.18089 17.284 6.6022 16.7013 6.27851L9.48564 2.2698C9.18362 2.10201 8.81638 2.10201 8.51436 2.2698L1.29869 6.27851C0.716033 6.6022 0 6.18089 0 5.51436Z" fill="#3A16C9"/>
<rect x="11" y="7" width="4" height="4" rx="1" fill="#9E86FC"/>
</svg>
