<svg width="16" height="18" viewBox="0 0 16 18" fill="none" xmlns="http://www.w3.org/2000/svg">
<path d="M16 16V11C16 9.89543 15.1046 9 14 9H13C12.4477 9 12 8.55228 12 8V4C12 3.44772 11.5523 3 11 3H1C0.447715 3 0 3.44772 0 4V16C0 17.1046 0.895431 18 2 18H4H6H14C15.1046 18 16 17.1046 16 16Z" fill="white"/>
<path d="M3 2L9 2V4L3 4L3 2Z" fill="#225200"/>
<path d="M12 11.5C12 11.2239 12.2239 11 12.5 11H13.5C13.7761 11 14 11.2239 14 11.5C14 11.7761 13.7761 12 13.5 12H12.5C12.2239 12 12 11.7761 12 11.5Z" fill="#CCCCCC"/>
<path d="M12 13.5C12 13.2239 12.2239 13 12.5 13H13.5C13.7761 13 14 13.2239 14 13.5C14 13.7761 13.7761 14 13.5 14H12.5C12.2239 14 12 13.7761 12 13.5Z" fill="#CCCCCC"/>
<path d="M12 15.5C12 15.2239 12.2239 15 12.5 15H13.5C13.7761 15 14 15.2239 14 15.5C14 15.7761 13.7761 16 13.5 16H12.5C12.2239 16 12 15.7761 12 15.5Z" fill="#CCCCCC"/>
<path d="M7 0L7 6L5 6L5 -8.74228e-08L7 0Z" fill="#225200"/>
</svg>
