<svg width="18" height="18" viewBox="0 0 18 18" fill="none" xmlns="http://www.w3.org/2000/svg">
<path d="M12.5264 3.23212C12.8359 2.92263 13.3376 2.92263 13.6471 3.23211L14.7679 4.35287C15.0774 4.66235 15.0774 5.16413 14.7679 5.47362L5.47362 14.7679C5.325 14.9165 5.12342 15 4.91324 15H3.79249C3.35481 15 3 14.6452 3 14.2075V13.0868C3 12.8766 3.08349 12.675 3.23212 12.5264L12.5264 3.23212Z" fill="#666666"/>
<path d="M9 14.5C9 14.2239 9.22386 14 9.5 14H14.5C14.7761 14 15 14.2239 15 14.5C15 14.7761 14.7761 15 14.5 15H9.5C9.22386 15 9 14.7761 9 14.5Z" fill="#666666"/>
</svg>
