<svg width="18" height="16" viewBox="0 0 18 16" fill="none" xmlns="http://www.w3.org/2000/svg">
<path d="M1 2C1 0.895431 1.89543 0 3 0H9H15C16.1046 0 17 0.895431 17 2V14C17 15.1046 16.1046 16 15 16H11C10.4477 16 10 15.5523 10 15V13C10 12.4477 9.55229 12 9 12C8.44772 12 8 12.4477 8 13V15C8 15.5523 7.55228 16 7 16H3C1.89543 16 1 15.1046 1 14V2Z" fill="white"/>
<path d="M0 1C0 0.447715 0.447715 0 1 0H4V5C4 5.55228 3.55228 6 3 6H1C0.447715 6 0 5.55228 0 5V1Z" fill="#006796"/>
<path d="M4 0H7V5C7 5.55228 6.55228 6 6 6H5C4.44772 6 4 5.55228 4 5V0Z" fill="#70D2FF"/>
<path d="M7 0H11V5C11 5.55228 10.5523 6 10 6H8C7.44772 6 7 5.55228 7 5V0Z" fill="#006796"/>
<path d="M11 0H14V5C14 5.55228 13.5523 6 13 6H12C11.4477 6 11 5.55228 11 5V0Z" fill="#70D2FF"/>
<path d="M14 0H17C17.5523 0 18 0.447715 18 1V5C18 5.55228 17.5523 6 17 6H15C14.4477 6 14 5.55228 14 5V0Z" fill="#006796"/>
</svg>
