<svg width="16" height="18" viewBox="0 0 16 18" fill="none" xmlns="http://www.w3.org/2000/svg">
<path d="M6.42969 0.5H9.57031C10.3778 0.500084 11.0404 1.13934 11.0693 1.94629L11.4268 11.9463C11.4571 12.795 10.7769 13.4998 9.92773 13.5H6.07227C5.22305 13.4998 4.54293 12.795 4.57324 11.9463L4.93066 1.94629C4.95957 1.13934 5.62223 0.500084 6.42969 0.5Z" stroke="#FF7B2E"/>
<path d="M0.867321 5.8575C0.942079 4.81089 1.81296 4 2.86224 4H13.1378C14.187 4 15.0579 4.8109 15.1327 5.85751L15.847 15.8575C15.9297 17.0152 15.0127 18 13.852 18H2.14795C0.987269 18 0.07034 17.0152 0.153035 15.8575L0.867321 5.8575Z" fill="#F55A00"/>
<rect x="5" y="6" width="6" height="1" rx="0.5" fill="white"/>
</svg>
