<svg width="16" height="14" viewBox="0 0 16 14" fill="none" xmlns="http://www.w3.org/2000/svg">
<path d="M1 11C1 9.89543 1.89543 9 3 9H8H13C14.1046 9 15 9.89543 15 11V13C15 13.5523 14.5523 14 14 14H13C12.4477 14 12 13.5523 12 13V12H4V13C4 13.5523 3.55228 14 3 14H2C1.44772 14 1 13.5523 1 13V11Z" fill="#171714"/>
<path d="M1.86073 0.835601C1.9411 0.353413 2.35829 0 2.84713 0H8H13.1529C13.6417 0 14.0589 0.353413 14.1393 0.835601L15 6H5H1L1.86073 0.835601Z" fill="#F2F2F2"/>
<path d="M0 6C0 5.44772 0.447715 5 1 5H8H15C15.5523 5 16 5.44772 16 6V11C16 11.5523 15.5523 12 15 12H14H2H1C0.447715 12 0 11.5523 0 11V6Z" fill="#B00C0C"/>
<path d="M2 0.5C2 0.223858 2.22386 0 2.5 0H8H13.5C13.7761 0 14 0.223858 14 0.5C14 0.776142 13.7761 1 13.5 1H12.5H3.5H2.5C2.22386 1 2 0.776142 2 0.5Z" fill="#B00C0C"/>
<circle cx="2" cy="9" r="1" fill="#FF8C8C"/>
<circle cx="14" cy="9" r="1" fill="#FF8C8C"/>
<rect x="6" y="10" width="4" height="1" rx="0.5" fill="#FF8C8C"/>
</svg>
