<svg preserveAspectRatio="none" width="100%" height="100%" overflow="visible" style="display: block;" viewBox="0 0 65.6147 118.26" fill="none" xmlns="http://www.w3.org/2000/svg">
<g id="Group 1707482111">
<path id="Rectangle 33450" d="M24.3047 78.539C24.3047 77.6615 25.016 76.9502 25.8935 76.9502H57.221C61.8567 76.9502 65.6147 80.7082 65.6147 85.3439V97.6052C65.6147 109.013 56.3671 118.26 44.9597 118.26V118.26C33.5522 118.26 24.3047 109.013 24.3047 97.6052V78.539Z" fill="var(--fill-0, black)"/>
<path id="Subtract" d="M62.4255 0C64.1565 0 65.589 1.36069 65.6088 3.09153C65.6124 3.41086 65.6143 3.73062 65.6143 4.05078C65.6141 35.0408 49.1937 62.1935 24.5804 77.2898C24.4584 77.3646 24.3018 77.2768 24.3018 77.1337C24.3018 77.0323 24.2196 76.9502 24.1183 76.9502H3.24C1.4506 76.9502 0 75.4996 0 73.7102V51.2271C0 49.952 0.752757 48.8038 1.89232 48.2317C18.0636 40.1123 29.1631 23.3779 29.1631 4.0498C29.1631 3.86932 29.1621 3.68907 29.1601 3.50905C29.1394 1.61645 30.6188 0 32.5116 0H62.4255Z" fill="var(--fill-0, black)"/>
<path id="Vector 1169" d="M24.305 79.38V80.595L29.975 76.95C28.5191 76.95 27.9474 75.0617 29.1588 74.2541L29.975 73.71L21.875 76.95C23.2171 76.95 24.305 78.0379 24.305 79.38Z" fill="var(--fill-0, black)"/>
</g>
</svg>
