<svg width="119" height="66" viewBox="0 0 119 66" fill="none" xmlns="http://www.w3.org/2000/svg">
<path d="M78.539 41.31C77.6615 41.31 76.9502 40.5987 76.9502 39.7212L76.9502 8.39366C76.9502 3.75796 80.7082 1.19035e-06 85.3439 9.87721e-07L97.6052 4.51761e-07C109.013 -4.68739e-08 118.26 9.24755 118.26 20.655C118.26 32.0624 109.013 41.31 97.6052 41.31L78.539 41.31Z" fill="black"/>
<path d="M1.39402e-07 3.18915C6.37393e-08 1.45819 1.36069 0.0257314 3.09153 0.0059407C3.41086 0.00228621 3.73062 0.000432252 4.05078 0.000432238C35.0408 0.000560583 62.1936 16.421 77.2898 41.0343C77.3646 41.1562 77.2768 41.3129 77.1337 41.3129C77.0323 41.3129 76.9502 41.3951 76.9502 41.4964L76.9502 62.3747C76.9502 64.1641 75.4996 65.6147 73.7102 65.6147L51.2271 65.6147C49.952 65.6147 48.8038 64.8619 48.2317 63.7224C40.1123 47.5511 23.3779 36.4516 4.04981 36.4516C3.86933 36.4516 3.68907 36.4526 3.50905 36.4546C1.61645 36.4753 1.52972e-06 34.9958 1.44698e-06 33.1031L1.39402e-07 3.18915Z" fill="black"/>
<path d="M79.38 41.3097L80.595 41.3097L76.95 35.6397C76.95 37.0956 75.0617 37.6673 74.2541 36.4559L73.71 35.6397L76.95 43.7397C76.95 42.3976 78.0379 41.3097 79.38 41.3097Z" fill="black"/>
</svg>
