<svg preserveAspectRatio="none" width="100%" height="100%" overflow="visible" style="display: block;" viewBox="0 0 100 23" fill="none" xmlns="http://www.w3.org/2000/svg">
<g id="Group 1707482911">
<path id="V" d="M7.71915 22.506C8.26588 22.8058 8.82969 22.9557 9.41058 22.9557C9.99147 22.9557 10.5382 22.8058 11.0507 22.506C11.5633 22.2395 11.9392 21.8231 12.1784 21.2568L18.739 4.51713L19.0825 3.66683C19.1789 3.42827 19.0033 3.16797 18.746 3.16797H17.4559H15.9631C15.6599 3.16797 15.3886 3.3565 15.2828 3.64073L9.97439 17.9088C9.87188 18.1753 9.70103 18.3086 9.46183 18.3086C9.22264 18.3086 9.05179 18.1753 8.94928 17.9088L3.94295 3.65332C3.84083 3.36256 3.56625 3.16797 3.25808 3.16797H2.20496H0.518723C0.266703 3.16797 0.0913985 3.41852 0.177765 3.65528L0.492158 4.51713L6.64279 21.2568C6.84781 21.8231 7.2066 22.2395 7.71915 22.506Z" fill="var(--fill-0, black)"/>
<path id="a" d="M25.6198 22.9999C24.1505 22.9999 22.835 22.6668 21.6732 22.0005C20.5114 21.3343 19.6059 20.4182 18.9567 19.2522C18.3074 18.053 17.9828 16.7205 17.9828 15.2547C17.9828 13.8223 18.3074 12.5397 18.9567 11.4071C19.6059 10.2745 20.5114 9.39169 21.6732 8.75875C22.835 8.09249 24.1505 7.75937 25.6198 7.75937C26.5766 7.75937 27.4309 7.92593 28.1826 8.25906C28.9344 8.55887 29.5836 8.95862 30.1303 9.45831V8.1265C30.1303 7.72541 30.4556 7.40035 30.8566 7.4006C31.2389 7.40083 31.6695 7.40107 31.873 7.40107L32.8887 7.39954C33.29 7.39893 33.6157 7.72409 33.6157 8.1254V9.70816V21.4509V22.637C33.6157 22.8374 33.4532 22.9999 33.2527 22.9999H31.873H30.4932C30.2928 22.9999 30.1303 22.8374 30.1303 22.637V21.4509V21.251C29.5836 21.784 28.9344 22.2004 28.1826 22.5002C27.4309 22.8334 26.5766 22.9999 25.6198 22.9999ZM25.9274 19.9018C27.2258 19.9018 28.251 19.4854 29.0027 18.6526C29.7544 17.7865 30.1303 16.6539 30.1303 15.2547C30.1303 13.9222 29.7544 12.8562 29.0027 12.0567C28.251 11.2572 27.2258 10.8574 25.9274 10.8574C24.5947 10.8574 23.5184 11.2572 22.6983 12.0567C21.8782 12.8562 21.4682 13.9222 21.4682 15.2547C21.4682 16.6539 21.8782 17.7865 22.6983 18.6526C23.5184 19.4854 24.5947 19.9018 25.9274 19.9018Z" fill="var(--fill-0, black)"/>
<path id="l" d="M38.6908 22.9565L36.948 22.9567L36.9481 21.4074V2.4192L36.948 1.44465C36.948 1.04375 37.273 0.71875 37.6739 0.71875H38.6908H39.7076C40.1085 0.71875 40.4334 1.04373 40.4334 1.44462V2.4192V21.4074L40.4319 22.5942C40.4316 22.7944 40.2692 22.9566 40.0689 22.9566L38.6908 22.9565Z" fill="var(--fill-0, black)"/>
<path id="u" d="M57.3318 16.4095V9.36382V8.07778C57.3318 7.87733 57.1693 7.71484 56.9689 7.71484H55.5892H54.5723C54.1715 7.71484 53.8465 8.03983 53.8465 8.44071V9.36382V16.4095C53.8465 17.642 53.4706 18.5248 52.7189 19.0578C52.0013 19.5908 51.147 19.8573 50.1561 19.8573C49.1993 19.8573 48.3451 19.5908 47.5933 19.0578C46.8416 18.5248 46.4657 17.642 46.4657 16.4095V9.36382V8.44071C46.4657 8.03983 46.1407 7.71484 45.7398 7.71484H44.723H43.3433C43.1428 7.71484 42.9804 7.87733 42.9804 8.07778V9.36382V16.4095C42.9804 17.9085 43.3221 19.1411 44.0055 20.1072C44.6889 21.0732 45.5773 21.7895 46.6707 22.2558C47.7642 22.7222 48.926 22.9554 50.1561 22.9554C51.3862 22.9554 52.548 22.7222 53.6415 22.2558C54.7349 21.7895 55.6233 21.0732 56.3067 20.1072C56.9901 19.1411 57.3318 17.9085 57.3318 16.4095Z" fill="var(--fill-0, black)"/>
<path id="e" d="M67.7175 22.9554C65.1548 22.9554 63.1558 22.2392 61.7207 20.8067C60.2855 19.3743 59.5679 17.4421 59.5679 15.0103C59.5679 12.8783 60.2855 11.1294 61.7207 9.76357C63.19 8.39775 65.0693 7.71484 67.3587 7.71484C69.5798 7.71484 71.3567 8.34778 72.6893 9.61367C74.0219 10.8462 74.6882 12.3786 74.6882 14.2108C74.6882 14.9437 74.4832 15.4934 74.0732 15.8598C73.6973 16.2262 73.2018 16.4095 72.5868 16.4095H63.6684C63.3267 16.4095 63.2071 16.5927 63.3096 16.9591C63.5829 17.8919 64.1297 18.6247 64.9497 19.1578C65.804 19.6574 66.7608 19.9073 67.82 19.9073C68.6059 19.9073 69.3577 19.8073 70.0753 19.6075C70.827 19.4076 71.4762 19.1078 72.023 18.708L72.3375 18.4868C72.4945 18.3764 72.7103 18.4074 72.83 18.5574L74.0301 20.0616C74.2344 20.3177 74.244 20.6814 74.0236 20.9238C73.8965 21.0635 73.7503 21.2078 73.6119 21.3064C72.7235 21.9394 71.7667 22.3724 70.7416 22.6056C69.7506 22.8388 68.7426 22.9554 67.7175 22.9554ZM70.6903 13.8111C70.8954 13.8111 70.9979 13.7111 70.9979 13.5113C70.9979 12.7451 70.6391 12.0788 69.9215 11.5125C69.2381 10.9462 68.3838 10.663 67.3587 10.663C66.4703 10.663 65.6161 10.8962 64.796 11.3626C64.0101 11.829 63.5317 12.4452 63.3608 13.2114C63.3608 13.2114 63.3608 13.2281 63.3608 13.2614C63.3267 13.3947 63.3096 13.5113 63.3096 13.6112C63.3437 13.7111 63.4975 13.7611 63.7709 13.7611L70.6903 13.8111Z" fill="var(--fill-0, black)"/>
<path id="d" d="M84.7977 22.9565C83.3284 22.9565 82.0128 22.6233 80.851 21.9571C79.6892 21.2908 78.7837 20.3747 78.1345 19.2088C77.4853 18.0095 77.1607 16.677 77.1607 15.2113C77.1607 13.7788 77.4853 12.4963 78.1345 11.3637C78.7837 10.231 79.6892 9.34824 80.851 8.7153C82.0128 8.04904 83.3284 7.71592 84.7977 7.71592C85.7545 7.71592 86.6087 7.86582 87.3605 8.16564C88.1122 8.46545 88.7614 8.88186 89.3082 9.41486V2.4192L89.3092 1.44448C89.3096 1.04365 89.6348 0.71903 90.0357 0.719376L91.0508 0.720253L92.0669 0.719376C92.468 0.719031 92.7934 1.04406 92.7934 1.44516L92.7935 2.4192V21.4074L92.7934 22.5937C92.7933 22.7941 92.6308 22.9566 92.4304 22.9566L91.0508 22.9565L89.6725 22.9566C89.4722 22.9566 89.3098 22.7944 89.3095 22.5941L89.3082 21.4074V21.2076C88.7614 21.7406 88.1122 22.157 87.3605 22.4568C86.6087 22.7899 85.7545 22.9565 84.7977 22.9565ZM85.1052 19.8584C86.4037 19.8584 87.4288 19.442 88.1805 18.6092C88.9323 17.743 89.3082 16.6104 89.3082 15.2113C89.3082 13.8788 88.9323 12.8128 88.1805 12.0133C87.4288 11.2137 86.4037 10.814 85.1052 10.814C83.7726 10.814 82.6962 11.2137 81.8761 12.0133C81.0561 12.8128 80.646 13.8788 80.646 15.2113C80.646 16.6104 81.0561 17.743 81.8761 18.6092C82.6962 19.442 83.7726 19.8584 85.1052 19.8584Z" fill="var(--fill-0, black)"/>
<path id="i" d="M98.1621 22.9588L96.7821 22.9589C96.5816 22.9589 96.4191 22.7964 96.4191 22.5959L96.4194 21.4097V7.9841L96.4192 7.01151C96.4191 6.61065 96.744 6.28561 97.1448 6.28548L98.1621 6.28516L99.1778 6.28548C99.5782 6.28561 99.9029 6.60994 99.9034 7.01034L99.9048 7.9841V21.4097L99.903 22.5965C99.9027 22.7968 99.7402 22.9589 99.54 22.9589L98.1621 22.9588Z" fill="var(--fill-0, black)"/>
<path id="i_2" d="M96.5417 3.3846C96.9609 3.75552 97.4549 3.94097 98.0239 3.94097C98.5629 3.94097 99.027 3.75552 99.4163 3.3846C99.8055 2.98278 100 2.50368 100 1.94731C100 1.42184 99.8055 0.973652 99.4163 0.602738C99.027 0.200913 98.5629 0 98.0239 0C97.4549 0 96.9609 0.200913 96.5417 0.602738C96.1524 0.973652 95.9578 1.42184 95.9578 1.94731C95.9578 2.50368 96.1524 2.98278 96.5417 3.3846Z" fill="var(--fill-0, black)"/>
</g>
</svg>
