<svg width="272" height="272" viewBox="0 0 272 272" fill="none" xmlns="http://www.w3.org/2000/svg">
<rect width="272" height="272" rx="8" fill="#B5F4FF"/>
<g filter="url(#filter0_ii_6461_47459)">
<path d="M180.66 156.3C189.629 156.3 196.9 163.571 196.9 172.54V180.66C196.9 189.629 189.629 196.9 180.66 196.9H91.3398C82.3709 196.9 75.0997 189.629 75.0996 180.66V172.54C75.0996 163.571 82.3708 156.3 91.3398 156.3C82.3708 156.3 75.0996 149.029 75.0996 140.06V131.94C75.0996 122.971 82.3708 115.7 91.3398 115.7C82.3708 115.7 75.0996 108.429 75.0996 99.46V91.3398C75.0997 82.3709 82.3709 75.0997 91.3398 75.0996H180.66C189.629 75.0997 196.9 82.3709 196.9 91.3398V99.46C196.9 108.429 189.629 115.7 180.66 115.7C189.629 115.7 196.9 122.971 196.9 131.94V140.06C196.9 149.029 189.629 156.3 180.66 156.3Z" fill="#28D0ED"/>
</g>
<circle cx="121.789" cy="101.489" r="6.09" fill="#171714"/>
<circle cx="152.239" cy="101.489" r="6.09" fill="#171714"/>
<defs>
<filter id="filter0_ii_6461_47459" x="71.0396" y="71.0396" width="129.921" height="129.921" filterUnits="userSpaceOnUse" color-interpolation-filters="sRGB">
<feFlood flood-opacity="0" result="BackgroundImageFix"/>
<feBlend mode="normal" in="SourceGraphic" in2="BackgroundImageFix" result="shape"/>
<feColorMatrix in="SourceAlpha" type="matrix" values="0 0 0 0 0 0 0 0 0 0 0 0 0 0 0 0 0 0 127 0" result="hardAlpha"/>
<feOffset dx="4.06" dy="4.06"/>
<feGaussianBlur stdDeviation="4.06"/>
<feComposite in2="hardAlpha" operator="arithmetic" k2="-1" k3="1"/>
<feColorMatrix type="matrix" values="0 0 0 0 1 0 0 0 0 1 0 0 0 0 1 0 0 0 0.3 0"/>
<feBlend mode="luminosity" in2="shape" result="effect1_innerShadow_6461_47459"/>
<feColorMatrix in="SourceAlpha" type="matrix" values="0 0 0 0 0 0 0 0 0 0 0 0 0 0 0 0 0 0 127 0" result="hardAlpha"/>
<feOffset dx="-4.06" dy="-4.06"/>
<feGaussianBlur stdDeviation="4.06"/>
<feComposite in2="hardAlpha" operator="arithmetic" k2="-1" k3="1"/>
<feColorMatrix type="matrix" values="0 0 0 0 1 0 0 0 0 1 0 0 0 0 1 0 0 0 0.3 0"/>
<feBlend mode="luminosity" in2="effect1_innerShadow_6461_47459" result="effect2_innerShadow_6461_47459"/>
</filter>
</defs>
</svg>
