<svg width="272" height="272" viewBox="0 0 272 272" fill="none" xmlns="http://www.w3.org/2000/svg">
<rect width="272" height="272" rx="8" fill="#F2D6FF"/>
<g filter="url(#filter0_ii_6461_47399)">
<path d="M158.33 73.0703C180.753 73.0703 198.93 91.2472 198.93 113.67C198.93 121.92 196.467 129.593 192.239 136C196.467 142.407 198.93 150.08 198.93 158.33C198.93 180.753 180.753 198.93 158.33 198.93H113.67C91.2472 198.93 73.0704 180.753 73.0703 158.33C73.0703 150.08 75.5325 142.407 79.7598 136C75.5325 129.593 73.0703 121.92 73.0703 113.67C73.0704 91.2472 91.2472 73.0703 113.67 73.0703H158.33Z" fill="#D478FF"/>
</g>
<circle cx="121.79" cy="136" r="6.09" fill="#171714"/>
<circle cx="152.24" cy="136" r="6.09" fill="#171714"/>
<defs>
<filter id="filter0_ii_6461_47399" x="69.0103" y="69.0103" width="133.979" height="133.979" filterUnits="userSpaceOnUse" color-interpolation-filters="sRGB">
<feFlood flood-opacity="0" result="BackgroundImageFix"/>
<feBlend mode="normal" in="SourceGraphic" in2="BackgroundImageFix" result="shape"/>
<feColorMatrix in="SourceAlpha" type="matrix" values="0 0 0 0 0 0 0 0 0 0 0 0 0 0 0 0 0 0 127 0" result="hardAlpha"/>
<feOffset dx="4.06" dy="4.06"/>
<feGaussianBlur stdDeviation="4.06"/>
<feComposite in2="hardAlpha" operator="arithmetic" k2="-1" k3="1"/>
<feColorMatrix type="matrix" values="0 0 0 0 1 0 0 0 0 1 0 0 0 0 1 0 0 0 0.3 0"/>
<feBlend mode="luminosity" in2="shape" result="effect1_innerShadow_6461_47399"/>
<feColorMatrix in="SourceAlpha" type="matrix" values="0 0 0 0 0 0 0 0 0 0 0 0 0 0 0 0 0 0 127 0" result="hardAlpha"/>
<feOffset dx="-4.06" dy="-4.06"/>
<feGaussianBlur stdDeviation="4.06"/>
<feComposite in2="hardAlpha" operator="arithmetic" k2="-1" k3="1"/>
<feColorMatrix type="matrix" values="0 0 0 0 1 0 0 0 0 1 0 0 0 0 1 0 0 0 0.3 0"/>
<feBlend mode="luminosity" in2="effect1_innerShadow_6461_47399" result="effect2_innerShadow_6461_47399"/>
</filter>
</defs>
</svg>
