<svg width="272" height="272" viewBox="0 0 272 272" fill="none" xmlns="http://www.w3.org/2000/svg">
<rect width="272" height="272" rx="8" fill="#FED5D5"/>
<g filter="url(#filter0_ii_6461_47567)">
<path d="M196.9 170.51C196.9 186.206 184.176 198.929 168.48 198.93C154.163 198.93 142.321 188.343 140.351 174.57L131.65 174.57C129.68 188.343 117.837 198.93 103.52 198.93C87.8238 198.929 75.0996 186.206 75.0996 170.51L75.0996 101.49C75.0996 87.1729 85.6874 75.3305 99.46 73.3603L99.46 73.0703L172.54 73.0703L172.54 73.3604C186.313 75.3306 196.9 87.1729 196.9 101.49L196.9 170.51Z" fill="#FF9B61"/>
</g>
<circle cx="119.76" cy="150.21" r="6.09" fill="#171714"/>
<circle cx="150.21" cy="150.21" r="6.09" fill="#171714"/>
<defs>
<filter id="filter0_ii_6461_47567" x="71.0396" y="69.0103" width="129.921" height="133.979" filterUnits="userSpaceOnUse" color-interpolation-filters="sRGB">
<feFlood flood-opacity="0" result="BackgroundImageFix"/>
<feBlend mode="normal" in="SourceGraphic" in2="BackgroundImageFix" result="shape"/>
<feColorMatrix in="SourceAlpha" type="matrix" values="0 0 0 0 0 0 0 0 0 0 0 0 0 0 0 0 0 0 127 0" result="hardAlpha"/>
<feOffset dx="4.06" dy="4.06"/>
<feGaussianBlur stdDeviation="4.06"/>
<feComposite in2="hardAlpha" operator="arithmetic" k2="-1" k3="1"/>
<feColorMatrix type="matrix" values="0 0 0 0 1 0 0 0 0 1 0 0 0 0 1 0 0 0 0.3 0"/>
<feBlend mode="luminosity" in2="shape" result="effect1_innerShadow_6461_47567"/>
<feColorMatrix in="SourceAlpha" type="matrix" values="0 0 0 0 0 0 0 0 0 0 0 0 0 0 0 0 0 0 127 0" result="hardAlpha"/>
<feOffset dx="-4.06" dy="-4.06"/>
<feGaussianBlur stdDeviation="4.06"/>
<feComposite in2="hardAlpha" operator="arithmetic" k2="-1" k3="1"/>
<feColorMatrix type="matrix" values="0 0 0 0 1 0 0 0 0 1 0 0 0 0 1 0 0 0 0.3 0"/>
<feBlend mode="luminosity" in2="effect1_innerShadow_6461_47567" result="effect2_innerShadow_6461_47567"/>
</filter>
</defs>
</svg>
