<svg width="272" height="272" viewBox="0 0 272 272" fill="none" xmlns="http://www.w3.org/2000/svg">
<rect width="272" height="272" rx="8" fill="#DBD3FE"/>
<g filter="url(#filter0_ii_6461_47519)">
<path d="M170.51 78.1445C183.403 78.1445 193.855 88.5972 193.855 101.49C193.855 108.326 190.916 114.476 186.233 118.745C190.916 123.015 193.855 129.164 193.855 136C193.855 142.836 190.916 148.985 186.233 153.255C190.916 157.524 193.855 163.674 193.855 170.51C193.855 183.403 183.403 193.855 170.51 193.855C163.674 193.855 157.524 190.916 153.255 186.233C148.985 190.916 142.836 193.855 136 193.855C129.164 193.855 123.015 190.916 118.745 186.233C114.476 190.916 108.326 193.855 101.49 193.855C88.5972 193.855 78.1445 183.403 78.1445 170.51C78.1446 163.674 81.0833 157.524 85.7656 153.255C81.0833 148.985 78.1445 142.836 78.1445 136C78.1445 129.164 81.0833 123.015 85.7656 118.745C81.0833 114.476 78.1446 108.326 78.1445 101.49C78.1445 88.5972 88.5972 78.1445 101.49 78.1445C108.326 78.1446 114.476 81.0833 118.745 85.7656C123.015 81.0833 129.164 78.1445 136 78.1445C142.836 78.1445 148.985 81.0833 153.255 85.7656C157.524 81.0833 163.674 78.1446 170.51 78.1445Z" fill="#9E86FC"/>
</g>
<circle cx="120.775" cy="116.715" r="6.09" fill="#171714"/>
<circle cx="151.225" cy="116.715" r="6.09" fill="#171714"/>
<defs>
<filter id="filter0_ii_6461_47519" x="74.0845" y="74.0845" width="123.831" height="123.831" filterUnits="userSpaceOnUse" color-interpolation-filters="sRGB">
<feFlood flood-opacity="0" result="BackgroundImageFix"/>
<feBlend mode="normal" in="SourceGraphic" in2="BackgroundImageFix" result="shape"/>
<feColorMatrix in="SourceAlpha" type="matrix" values="0 0 0 0 0 0 0 0 0 0 0 0 0 0 0 0 0 0 127 0" result="hardAlpha"/>
<feOffset dx="4.06" dy="4.06"/>
<feGaussianBlur stdDeviation="4.06"/>
<feComposite in2="hardAlpha" operator="arithmetic" k2="-1" k3="1"/>
<feColorMatrix type="matrix" values="0 0 0 0 1 0 0 0 0 1 0 0 0 0 1 0 0 0 0.3 0"/>
<feBlend mode="luminosity" in2="shape" result="effect1_innerShadow_6461_47519"/>
<feColorMatrix in="SourceAlpha" type="matrix" values="0 0 0 0 0 0 0 0 0 0 0 0 0 0 0 0 0 0 127 0" result="hardAlpha"/>
<feOffset dx="-4.06" dy="-4.06"/>
<feGaussianBlur stdDeviation="4.06"/>
<feComposite in2="hardAlpha" operator="arithmetic" k2="-1" k3="1"/>
<feColorMatrix type="matrix" values="0 0 0 0 1 0 0 0 0 1 0 0 0 0 1 0 0 0 0.3 0"/>
<feBlend mode="luminosity" in2="effect1_innerShadow_6461_47519" result="effect2_innerShadow_6461_47519"/>
</filter>
</defs>
</svg>
