<svg width="272" height="272" viewBox="0 0 272 272" fill="none" xmlns="http://www.w3.org/2000/svg">
<rect width="272" height="272" rx="8" fill="#ACFCC7"/>
<g filter="url(#filter0_ii_6461_47507)">
<path d="M158.33 75.0996C179.632 75.0997 196.9 92.3684 196.9 113.67C196.9 121.992 194.264 129.698 189.782 136C194.264 142.302 196.9 150.008 196.9 158.33C196.9 179.632 179.632 196.9 158.33 196.9C150.008 196.9 142.302 194.264 136 189.782C129.698 194.264 121.992 196.9 113.67 196.9C92.3684 196.9 75.0997 179.632 75.0996 158.33C75.0996 150.008 77.7349 142.302 82.2168 136C77.7349 129.698 75.0996 121.992 75.0996 113.67C75.0997 92.3684 92.3684 75.0997 113.67 75.0996C121.992 75.0996 129.698 77.7349 136 82.2168C142.302 77.7349 150.008 75.0996 158.33 75.0996Z" fill="#1ED45A"/>
</g>
<circle cx="125.85" cy="113.67" r="6.09" fill="#171714"/>
<circle cx="156.3" cy="113.67" r="6.09" fill="#171714"/>
<defs>
<filter id="filter0_ii_6461_47507" x="71.0396" y="71.0396" width="129.921" height="129.921" filterUnits="userSpaceOnUse" color-interpolation-filters="sRGB">
<feFlood flood-opacity="0" result="BackgroundImageFix"/>
<feBlend mode="normal" in="SourceGraphic" in2="BackgroundImageFix" result="shape"/>
<feColorMatrix in="SourceAlpha" type="matrix" values="0 0 0 0 0 0 0 0 0 0 0 0 0 0 0 0 0 0 127 0" result="hardAlpha"/>
<feOffset dx="4.06" dy="4.06"/>
<feGaussianBlur stdDeviation="4.06"/>
<feComposite in2="hardAlpha" operator="arithmetic" k2="-1" k3="1"/>
<feColorMatrix type="matrix" values="0 0 0 0 1 0 0 0 0 1 0 0 0 0 1 0 0 0 0.3 0"/>
<feBlend mode="luminosity" in2="shape" result="effect1_innerShadow_6461_47507"/>
<feColorMatrix in="SourceAlpha" type="matrix" values="0 0 0 0 0 0 0 0 0 0 0 0 0 0 0 0 0 0 127 0" result="hardAlpha"/>
<feOffset dx="-4.06" dy="-4.06"/>
<feGaussianBlur stdDeviation="4.06"/>
<feComposite in2="hardAlpha" operator="arithmetic" k2="-1" k3="1"/>
<feColorMatrix type="matrix" values="0 0 0 0 1 0 0 0 0 1 0 0 0 0 1 0 0 0 0.3 0"/>
<feBlend mode="luminosity" in2="effect1_innerShadow_6461_47507" result="effect2_innerShadow_6461_47507"/>
</filter>
</defs>
</svg>
