<svg width="32" height="32" viewBox="0 0 32 32" fill="none" xmlns="http://www.w3.org/2000/svg">
<g clip-path="url(#clip0_2833_13212)">
<path d="M10.2791 14.2041C9.70514 14.2041 9.17345 14.4104 8.7833 14.7858L8.64914 14.9145V11.9933H7.12012V16.987C7.12012 18.8504 8.21714 20.0079 9.98248 20.0079C11.7478 20.0079 12.9618 18.79 12.9618 17.112C12.9618 15.4341 11.834 14.205 10.2799 14.205H10.2791V14.2041ZM10.0346 18.587C9.23171 18.587 8.57817 17.9233 8.57817 17.1083C8.57817 16.2933 9.23171 15.6291 10.0346 15.6291C10.8375 15.6291 11.491 16.2929 11.491 17.1083C11.491 17.9237 10.8375 18.587 10.0346 18.587Z" fill="#0114A7"/>
<path d="M4.57313 11.9921L1.54708 15.5579V11.9921H0V19.8246H1.54708V16.2904L4.63467 19.8246H6.62359L3.20738 15.9079L6.53087 11.9921H4.57313Z" fill="#0114A7"/>
<path d="M31.9997 14.3875H30.2963L28.339 16.7362V11.9921H26.8096V19.8258H28.339V17.4775L30.2963 19.8258H31.9997L29.7335 17.1062L31.9997 14.3875Z" fill="#0114A7"/>
<path d="M23.8125 14.2042C22.8685 14.2042 22.2859 14.6525 22.0074 14.9671V14.3896H20.5312V19.8254H22.0611V16.865C22.0611 16.125 22.5686 15.6083 23.2028 15.6083C23.8371 15.6083 24.3454 16.125 24.3454 16.865V19.8254H25.8744V16.3992C25.8744 15.1271 24.9661 14.2042 23.8125 14.2042Z" fill="#0114A7"/>
<path d="M16.626 14.2042C14.9181 14.2042 13.6787 15.4271 13.6787 17.1113C13.6787 18.7955 14.8213 20.008 16.3946 20.008C17.513 20.008 18.1111 19.1855 18.1165 19.1776L18.2034 19.0555V19.8259H19.5946V17.1113C19.5946 15.4267 18.3458 14.2042 16.626 14.2042ZM16.6724 18.5871C15.8695 18.5871 15.2159 17.9234 15.2159 17.1084C15.2159 16.2934 15.8695 15.6292 16.6724 15.6292C17.4752 15.6292 18.1288 16.293 18.1288 17.1084C18.1288 17.9238 17.4752 18.5871 16.6724 18.5871Z" fill="#0114A7"/>
</g>
<defs>
<clipPath id="clip0_2833_13212">
<rect width="32" height="10" fill="white" transform="translate(0 11)"/>
</clipPath>
</defs>
</svg>
